%TF.GenerationSoftware,KiCad,Pcbnew,(6.0.5)*%
%TF.CreationDate,2023-11-15T16:50:55-05:00*%
%TF.ProjectId,solar-controller-2023,736f6c61-722d-4636-9f6e-74726f6c6c65,rev?*%
%TF.SameCoordinates,Original*%
%TF.FileFunction,Soldermask,Bot*%
%TF.FilePolarity,Negative*%
%FSLAX46Y46*%
G04 Gerber Fmt 4.6, Leading zero omitted, Abs format (unit mm)*
G04 Created by KiCad (PCBNEW (6.0.5)) date 2023-11-15 16:50:55*
%MOMM*%
%LPD*%
G01*
G04 APERTURE LIST*
%ADD10C,1.600000*%
%ADD11R,1.700000X1.700000*%
%ADD12O,1.700000X1.700000*%
%ADD13C,3.200000*%
%ADD14O,0.950000X1.250000*%
%ADD15O,1.550000X0.890000*%
%ADD16R,1.600000X1.600000*%
%ADD17O,1.600000X1.600000*%
%ADD18C,2.000000*%
%ADD19C,2.032000*%
%ADD20C,1.500000*%
G04 APERTURE END LIST*
D10*
%TO.C,RV8*%
X146500000Y-129000000D03*
X139000000Y-129000000D03*
%TD*%
%TO.C,RV7*%
X121500000Y-129000000D03*
X114000000Y-129000000D03*
%TD*%
%TO.C,RV6*%
X134000000Y-129000000D03*
X126500000Y-129000000D03*
%TD*%
%TO.C,RV5*%
X109000000Y-129100000D03*
X101500000Y-129100000D03*
%TD*%
%TO.C,RV4*%
X196500000Y-129100000D03*
X189000000Y-129100000D03*
%TD*%
%TO.C,RV3*%
X171500000Y-129100000D03*
X164000000Y-129100000D03*
%TD*%
%TO.C,RV2*%
X184000000Y-129100000D03*
X176500000Y-129100000D03*
%TD*%
%TO.C,RV1*%
X159000000Y-129100000D03*
X151500000Y-129100000D03*
%TD*%
D11*
%TO.C,J3*%
X171500000Y-55380000D03*
D12*
X174040000Y-55380000D03*
X176580000Y-55380000D03*
X179120000Y-55380000D03*
X181660000Y-55380000D03*
X184200000Y-55380000D03*
X186740000Y-55380000D03*
X189280000Y-55380000D03*
%TD*%
D11*
%TO.C,J2*%
X143975000Y-55380000D03*
D12*
X141435000Y-55380000D03*
X138895000Y-55380000D03*
X136355000Y-55380000D03*
X133815000Y-55380000D03*
X131275000Y-55380000D03*
X128735000Y-55380000D03*
X126195000Y-55380000D03*
%TD*%
D13*
%TO.C,MOUNT*%
X105000000Y-55000000D03*
%TD*%
%TO.C,MOUNT*%
X115000000Y-105000000D03*
%TD*%
D14*
%TO.C,J8*%
X104140000Y-89130000D03*
X104140000Y-84130000D03*
D15*
X101440000Y-83130000D03*
X101440000Y-90130000D03*
%TD*%
D16*
%TO.C,U8*%
X185156000Y-117200000D03*
D17*
X182616000Y-117200000D03*
X180076000Y-117200000D03*
X177536000Y-117200000D03*
X177536000Y-124820000D03*
X180076000Y-124820000D03*
X185156000Y-124820000D03*
%TD*%
D18*
%TO.C,F1*%
X154090000Y-132210000D03*
X154090000Y-137210000D03*
%TD*%
D19*
%TO.C,OUT_2*%
X170986600Y-143610000D03*
X165906600Y-143610000D03*
%TD*%
%TO.C,OUT_4*%
X145980000Y-143610000D03*
X140900000Y-143610000D03*
%TD*%
D18*
%TO.C,F8*%
X141440000Y-132210000D03*
X141440000Y-137210000D03*
%TD*%
D19*
%TO.C,OUT_3*%
X158486600Y-143610000D03*
X153406600Y-143610000D03*
%TD*%
D16*
%TO.C,U14*%
X147775000Y-117175000D03*
D17*
X145235000Y-117175000D03*
X142695000Y-117175000D03*
X140155000Y-117175000D03*
X140155000Y-124795000D03*
X142695000Y-124795000D03*
X147775000Y-124795000D03*
%TD*%
D19*
%TO.C,OUT_1*%
X183480000Y-143610000D03*
X178400000Y-143610000D03*
%TD*%
D11*
%TO.C,J6*%
X194775000Y-97675000D03*
D12*
X197315000Y-97675000D03*
X194775000Y-100215000D03*
X197315000Y-100215000D03*
X194775000Y-102755000D03*
X197315000Y-102755000D03*
X194775000Y-105295000D03*
X197315000Y-105295000D03*
X194775000Y-107835000D03*
X197315000Y-107835000D03*
%TD*%
%TO.C,J1*%
X147826000Y-55415000D03*
X150366000Y-55415000D03*
X152906000Y-55415000D03*
X155446000Y-55415000D03*
X157986000Y-55415000D03*
X160526000Y-55415000D03*
X163066000Y-55415000D03*
D11*
X165606000Y-55415000D03*
%TD*%
D18*
%TO.C,F6*%
X128940000Y-132210000D03*
X128940000Y-137210000D03*
%TD*%
D13*
%TO.C,MOUNT*%
X195000000Y-55000000D03*
%TD*%
D16*
%TO.C,U13*%
X122800000Y-117175000D03*
D17*
X120260000Y-117175000D03*
X117720000Y-117175000D03*
X115180000Y-117175000D03*
X115180000Y-124795000D03*
X117720000Y-124795000D03*
X122800000Y-124795000D03*
%TD*%
D14*
%TO.C,J5*%
X104135000Y-71040000D03*
D15*
X101435000Y-77040000D03*
X101435000Y-70040000D03*
D14*
X104135000Y-76040000D03*
%TD*%
D19*
%TO.C,OUT_5*%
X133480000Y-143610000D03*
X128400000Y-143610000D03*
%TD*%
%TO.C,OUT_7*%
X108480000Y-143610000D03*
X103400000Y-143610000D03*
%TD*%
D16*
%TO.C,U10*%
X197300000Y-117200000D03*
D17*
X194760000Y-117200000D03*
X192220000Y-117200000D03*
X189680000Y-117200000D03*
X189680000Y-124820000D03*
X192220000Y-124820000D03*
X197300000Y-124820000D03*
%TD*%
D18*
%TO.C,F4*%
X191940000Y-132210000D03*
X191940000Y-137210000D03*
%TD*%
%TO.C,F3*%
X166370000Y-132334000D03*
X166370000Y-137334000D03*
%TD*%
D13*
%TO.C,MOUNT*%
X185000000Y-105000000D03*
%TD*%
D16*
%TO.C,U12*%
X135250000Y-117175000D03*
D17*
X132710000Y-117175000D03*
X130170000Y-117175000D03*
X127630000Y-117175000D03*
X127630000Y-124795000D03*
X130170000Y-124795000D03*
X135250000Y-124795000D03*
%TD*%
D19*
%TO.C,OUT_0*%
X195980000Y-143610000D03*
X190900000Y-143610000D03*
%TD*%
D18*
%TO.C,F2*%
X178940000Y-132210000D03*
X178940000Y-137210000D03*
%TD*%
D19*
%TO.C,OUT_6*%
X120980000Y-143610000D03*
X115900000Y-143610000D03*
%TD*%
D16*
%TO.C,U9*%
X172700000Y-117175000D03*
D17*
X170160000Y-117175000D03*
X167620000Y-117175000D03*
X165080000Y-117175000D03*
X165080000Y-124795000D03*
X167620000Y-124795000D03*
X172700000Y-124795000D03*
%TD*%
D16*
%TO.C,U7*%
X160150000Y-117175000D03*
D17*
X157610000Y-117175000D03*
X155070000Y-117175000D03*
X152530000Y-117175000D03*
X152530000Y-124795000D03*
X155070000Y-124795000D03*
X160150000Y-124795000D03*
%TD*%
D18*
%TO.C,F5*%
X103940000Y-132210000D03*
X103940000Y-137210000D03*
%TD*%
%TO.C,F7*%
X116440000Y-132210000D03*
X116440000Y-137210000D03*
%TD*%
D11*
%TO.C,J4*%
X144660000Y-99120000D03*
D12*
X147200000Y-99120000D03*
X149740000Y-99120000D03*
X152280000Y-99120000D03*
%TD*%
D16*
%TO.C,U11*%
X110200000Y-117125000D03*
D17*
X107660000Y-117125000D03*
X105120000Y-117125000D03*
X102580000Y-117125000D03*
X102580000Y-124745000D03*
X105120000Y-124745000D03*
X110200000Y-124745000D03*
%TD*%
D11*
%TO.C,J7*%
X105006000Y-97698000D03*
D12*
X102466000Y-97698000D03*
X105006000Y-100238000D03*
X102466000Y-100238000D03*
X105006000Y-102778000D03*
X102466000Y-102778000D03*
X105006000Y-105318000D03*
X102466000Y-105318000D03*
X105006000Y-107858000D03*
X102466000Y-107858000D03*
%TD*%
D20*
%TO.C,Y1*%
X127830000Y-79810000D03*
X132710000Y-79810000D03*
%TD*%
M02*
