%TF.GenerationSoftware,KiCad,Pcbnew,(6.0.5)*%
%TF.CreationDate,2023-11-15T16:50:55-05:00*%
%TF.ProjectId,solar-controller-2023,736f6c61-722d-4636-9f6e-74726f6c6c65,rev?*%
%TF.SameCoordinates,Original*%
%TF.FileFunction,Copper,L1,Top*%
%TF.FilePolarity,Positive*%
%FSLAX46Y46*%
G04 Gerber Fmt 4.6, Leading zero omitted, Abs format (unit mm)*
G04 Created by KiCad (PCBNEW (6.0.5)) date 2023-11-15 16:50:55*
%MOMM*%
%LPD*%
G01*
G04 APERTURE LIST*
G04 Aperture macros list*
%AMRoundRect*
0 Rectangle with rounded corners*
0 $1 Rounding radius*
0 $2 $3 $4 $5 $6 $7 $8 $9 X,Y pos of 4 corners*
0 Add a 4 corners polygon primitive as box body*
4,1,4,$2,$3,$4,$5,$6,$7,$8,$9,$2,$3,0*
0 Add four circle primitives for the rounded corners*
1,1,$1+$1,$2,$3*
1,1,$1+$1,$4,$5*
1,1,$1+$1,$6,$7*
1,1,$1+$1,$8,$9*
0 Add four rect primitives between the rounded corners*
20,1,$1+$1,$2,$3,$4,$5,0*
20,1,$1+$1,$4,$5,$6,$7,0*
20,1,$1+$1,$6,$7,$8,$9,0*
20,1,$1+$1,$8,$9,$2,$3,0*%
G04 Aperture macros list end*
%TA.AperFunction,SMDPad,CuDef*%
%ADD10RoundRect,0.237500X-0.300000X-0.237500X0.300000X-0.237500X0.300000X0.237500X-0.300000X0.237500X0*%
%TD*%
%TA.AperFunction,SMDPad,CuDef*%
%ADD11RoundRect,0.237500X0.300000X0.237500X-0.300000X0.237500X-0.300000X-0.237500X0.300000X-0.237500X0*%
%TD*%
%TA.AperFunction,ComponentPad*%
%ADD12C,1.600000*%
%TD*%
%TA.AperFunction,SMDPad,CuDef*%
%ADD13R,0.900000X1.300000*%
%TD*%
%TA.AperFunction,SMDPad,CuDef*%
%ADD14R,1.800000X3.200000*%
%TD*%
%TA.AperFunction,ComponentPad*%
%ADD15R,1.700000X1.700000*%
%TD*%
%TA.AperFunction,ComponentPad*%
%ADD16O,1.700000X1.700000*%
%TD*%
%TA.AperFunction,SMDPad,CuDef*%
%ADD17RoundRect,0.237500X-0.237500X0.287500X-0.237500X-0.287500X0.237500X-0.287500X0.237500X0.287500X0*%
%TD*%
%TA.AperFunction,SMDPad,CuDef*%
%ADD18RoundRect,0.237500X0.237500X-0.287500X0.237500X0.287500X-0.237500X0.287500X-0.237500X-0.287500X0*%
%TD*%
%TA.AperFunction,SMDPad,CuDef*%
%ADD19RoundRect,0.237500X0.237500X-0.250000X0.237500X0.250000X-0.237500X0.250000X-0.237500X-0.250000X0*%
%TD*%
%TA.AperFunction,SMDPad,CuDef*%
%ADD20RoundRect,0.150000X-0.825000X-0.150000X0.825000X-0.150000X0.825000X0.150000X-0.825000X0.150000X0*%
%TD*%
%TA.AperFunction,SMDPad,CuDef*%
%ADD21RoundRect,0.237500X-0.250000X-0.237500X0.250000X-0.237500X0.250000X0.237500X-0.250000X0.237500X0*%
%TD*%
%TA.AperFunction,SMDPad,CuDef*%
%ADD22R,0.450000X1.750000*%
%TD*%
%TA.AperFunction,SMDPad,CuDef*%
%ADD23R,1.350000X0.400000*%
%TD*%
%TA.AperFunction,ComponentPad*%
%ADD24O,0.950000X1.250000*%
%TD*%
%TA.AperFunction,SMDPad,CuDef*%
%ADD25R,1.550000X1.500000*%
%TD*%
%TA.AperFunction,SMDPad,CuDef*%
%ADD26R,1.550000X1.200000*%
%TD*%
%TA.AperFunction,ComponentPad*%
%ADD27O,1.550000X0.890000*%
%TD*%
%TA.AperFunction,ComponentPad*%
%ADD28R,1.600000X1.600000*%
%TD*%
%TA.AperFunction,ComponentPad*%
%ADD29O,1.600000X1.600000*%
%TD*%
%TA.AperFunction,ComponentPad*%
%ADD30C,2.000000*%
%TD*%
%TA.AperFunction,SMDPad,CuDef*%
%ADD31RoundRect,0.237500X-0.237500X0.300000X-0.237500X-0.300000X0.237500X-0.300000X0.237500X0.300000X0*%
%TD*%
%TA.AperFunction,ComponentPad*%
%ADD32C,2.032000*%
%TD*%
%TA.AperFunction,SMDPad,CuDef*%
%ADD33RoundRect,0.237500X0.250000X0.237500X-0.250000X0.237500X-0.250000X-0.237500X0.250000X-0.237500X0*%
%TD*%
%TA.AperFunction,SMDPad,CuDef*%
%ADD34RoundRect,0.150000X-0.150000X0.587500X-0.150000X-0.587500X0.150000X-0.587500X0.150000X0.587500X0*%
%TD*%
%TA.AperFunction,SMDPad,CuDef*%
%ADD35R,1.550000X1.300000*%
%TD*%
%TA.AperFunction,SMDPad,CuDef*%
%ADD36RoundRect,0.250000X-0.350000X-0.450000X0.350000X-0.450000X0.350000X0.450000X-0.350000X0.450000X0*%
%TD*%
%TA.AperFunction,SMDPad,CuDef*%
%ADD37RoundRect,0.250000X0.337500X0.475000X-0.337500X0.475000X-0.337500X-0.475000X0.337500X-0.475000X0*%
%TD*%
%TA.AperFunction,SMDPad,CuDef*%
%ADD38RoundRect,0.237500X0.237500X-0.300000X0.237500X0.300000X-0.237500X0.300000X-0.237500X-0.300000X0*%
%TD*%
%TA.AperFunction,SMDPad,CuDef*%
%ADD39RoundRect,0.150000X0.150000X-0.675000X0.150000X0.675000X-0.150000X0.675000X-0.150000X-0.675000X0*%
%TD*%
%TA.AperFunction,SMDPad,CuDef*%
%ADD40RoundRect,0.250000X0.475000X-0.337500X0.475000X0.337500X-0.475000X0.337500X-0.475000X-0.337500X0*%
%TD*%
%TA.AperFunction,SMDPad,CuDef*%
%ADD41RoundRect,0.237500X-0.237500X0.250000X-0.237500X-0.250000X0.237500X-0.250000X0.237500X0.250000X0*%
%TD*%
%TA.AperFunction,SMDPad,CuDef*%
%ADD42RoundRect,0.075000X-0.662500X-0.075000X0.662500X-0.075000X0.662500X0.075000X-0.662500X0.075000X0*%
%TD*%
%TA.AperFunction,SMDPad,CuDef*%
%ADD43RoundRect,0.075000X-0.075000X-0.662500X0.075000X-0.662500X0.075000X0.662500X-0.075000X0.662500X0*%
%TD*%
%TA.AperFunction,ComponentPad*%
%ADD44C,1.500000*%
%TD*%
%TA.AperFunction,ViaPad*%
%ADD45C,0.800000*%
%TD*%
%TA.AperFunction,ViaPad*%
%ADD46C,0.600000*%
%TD*%
%TA.AperFunction,Conductor*%
%ADD47C,0.250000*%
%TD*%
%TA.AperFunction,Conductor*%
%ADD48C,0.800000*%
%TD*%
%TA.AperFunction,Conductor*%
%ADD49C,0.400000*%
%TD*%
%TA.AperFunction,Conductor*%
%ADD50C,0.600000*%
%TD*%
%TA.AperFunction,Conductor*%
%ADD51C,1.600000*%
%TD*%
%TA.AperFunction,Conductor*%
%ADD52C,0.500000*%
%TD*%
%TA.AperFunction,Conductor*%
%ADD53C,0.290000*%
%TD*%
%TA.AperFunction,Conductor*%
%ADD54C,1.000000*%
%TD*%
%TA.AperFunction,Conductor*%
%ADD55C,0.750000*%
%TD*%
%TA.AperFunction,Conductor*%
%ADD56C,0.900000*%
%TD*%
%TA.AperFunction,Conductor*%
%ADD57C,0.280000*%
%TD*%
%TA.AperFunction,Conductor*%
%ADD58C,0.700000*%
%TD*%
%TA.AperFunction,Conductor*%
%ADD59C,0.450000*%
%TD*%
%TA.AperFunction,Conductor*%
%ADD60C,1.250000*%
%TD*%
G04 APERTURE END LIST*
D10*
%TO.P,C2,1*%
%TO.N,Net-(R22-Pad2)*%
X161977500Y-83340000D03*
%TO.P,C2,2*%
%TO.N,Net-(R20-Pad2)*%
X163702500Y-83340000D03*
%TD*%
D11*
%TO.P,C1,1*%
%TO.N,Net-(R25-Pad2)*%
X167422500Y-83340000D03*
%TO.P,C1,2*%
%TO.N,Net-(R19-Pad2)*%
X165697500Y-83340000D03*
%TD*%
D12*
%TO.P,RV8,1*%
%TO.N,Net-(OUT_4-Pad1)*%
X146500000Y-129000000D03*
%TO.P,RV8,2*%
%TO.N,Net-(F8-Pad1)*%
X139000000Y-129000000D03*
%TD*%
%TO.P,RV7,1*%
%TO.N,Net-(OUT_6-Pad1)*%
X121500000Y-129000000D03*
%TO.P,RV7,2*%
%TO.N,Net-(F7-Pad1)*%
X114000000Y-129000000D03*
%TD*%
%TO.P,RV6,1*%
%TO.N,Net-(OUT_5-Pad1)*%
X134000000Y-129000000D03*
%TO.P,RV6,2*%
%TO.N,Net-(F6-Pad1)*%
X126500000Y-129000000D03*
%TD*%
%TO.P,RV5,1*%
%TO.N,Net-(OUT_7-Pad1)*%
X109000000Y-129100000D03*
%TO.P,RV5,2*%
%TO.N,Net-(F5-Pad1)*%
X101500000Y-129100000D03*
%TD*%
%TO.P,RV4,1*%
%TO.N,Net-(OUT_0-Pad1)*%
X196500000Y-129100000D03*
%TO.P,RV4,2*%
%TO.N,Net-(F4-Pad1)*%
X189000000Y-129100000D03*
%TD*%
%TO.P,RV3,1*%
%TO.N,Net-(OUT_2-Pad1)*%
X171500000Y-129100000D03*
%TO.P,RV3,2*%
%TO.N,Net-(F3-Pad1)*%
X164000000Y-129100000D03*
%TD*%
%TO.P,RV2,1*%
%TO.N,Net-(OUT_1-Pad1)*%
X184000000Y-129100000D03*
%TO.P,RV2,2*%
%TO.N,Net-(F2-Pad1)*%
X176500000Y-129100000D03*
%TD*%
%TO.P,RV1,1*%
%TO.N,Net-(OUT_3-Pad1)*%
X159000000Y-129100000D03*
%TO.P,RV1,2*%
%TO.N,Net-(F1-Pad1)*%
X151500000Y-129100000D03*
%TD*%
D13*
%TO.P,U6,1,VO*%
%TO.N,+3V3*%
X116088000Y-85381500D03*
D14*
%TO.P,U6,2,GND*%
%TO.N,GND*%
X114588000Y-88031500D03*
D13*
X114588000Y-85331500D03*
%TO.P,U6,3,VI*%
%TO.N,+5V*%
X113088000Y-85381500D03*
%TD*%
D15*
%TO.P,J3,1,Pin_1*%
%TO.N,Net-(FB17-Pad1)*%
X171500000Y-55380000D03*
D16*
%TO.P,J3,2,Pin_2*%
%TO.N,Net-(FB18-Pad1)*%
X174040000Y-55380000D03*
%TO.P,J3,3,Pin_3*%
%TO.N,Net-(FB19-Pad1)*%
X176580000Y-55380000D03*
%TO.P,J3,4,Pin_4*%
%TO.N,Net-(FB20-Pad1)*%
X179120000Y-55380000D03*
%TO.P,J3,5,Pin_5*%
%TO.N,Net-(FB21-Pad1)*%
X181660000Y-55380000D03*
%TO.P,J3,6,Pin_6*%
%TO.N,Net-(FB22-Pad1)*%
X184200000Y-55380000D03*
%TO.P,J3,7,Pin_7*%
%TO.N,Net-(FB23-Pad1)*%
X186740000Y-55380000D03*
%TO.P,J3,8,Pin_8*%
%TO.N,Net-(FB24-Pad1)*%
X189280000Y-55380000D03*
%TD*%
D17*
%TO.P,TVS16,1,A1*%
%TO.N,GND*%
X126220000Y-64345000D03*
%TO.P,TVS16,2,A2*%
%TO.N,Net-(FB16-Pad2)*%
X126220000Y-66095000D03*
%TD*%
D18*
%TO.P,TVS15,1,A1*%
%TO.N,Net-(FB15-Pad2)*%
X128740000Y-66095000D03*
%TO.P,TVS15,2,A2*%
%TO.N,GND*%
X128740000Y-64345000D03*
%TD*%
D17*
%TO.P,TVS14,1,A1*%
%TO.N,GND*%
X131280000Y-64345000D03*
%TO.P,TVS14,2,A2*%
%TO.N,Net-(FB14-Pad2)*%
X131280000Y-66095000D03*
%TD*%
D18*
%TO.P,TVS13,1,A1*%
%TO.N,Net-(FB13-Pad2)*%
X133810000Y-66095000D03*
%TO.P,TVS13,2,A2*%
%TO.N,GND*%
X133810000Y-64345000D03*
%TD*%
D17*
%TO.P,TVS12,2,A2*%
%TO.N,Net-(FB12-Pad2)*%
X136350000Y-66095000D03*
%TO.P,TVS12,1,A1*%
%TO.N,GND*%
X136350000Y-64345000D03*
%TD*%
D18*
%TO.P,TVS11,1,A1*%
%TO.N,Net-(FB11-Pad2)*%
X138890000Y-66095000D03*
%TO.P,TVS11,2,A2*%
%TO.N,GND*%
X138890000Y-64345000D03*
%TD*%
D17*
%TO.P,TVS10,1,A1*%
%TO.N,GND*%
X141430000Y-64345000D03*
%TO.P,TVS10,2,A2*%
%TO.N,Net-(FB10-Pad2)*%
X141430000Y-66095000D03*
%TD*%
D18*
%TO.P,TVS9,1,A1*%
%TO.N,Net-(FB9-Pad2)*%
X143980000Y-66095000D03*
%TO.P,TVS9,2,A2*%
%TO.N,GND*%
X143980000Y-64345000D03*
%TD*%
D17*
%TO.P,TVS8,1,A1*%
%TO.N,GND*%
X147900000Y-64345000D03*
%TO.P,TVS8,2,A2*%
%TO.N,Net-(FB8-Pad2)*%
X147900000Y-66095000D03*
%TD*%
D18*
%TO.P,TVS7,2,A2*%
%TO.N,GND*%
X150420000Y-64345000D03*
%TO.P,TVS7,1,A1*%
%TO.N,Net-(FB7-Pad2)*%
X150420000Y-66095000D03*
%TD*%
D17*
%TO.P,TVS6,1,A1*%
%TO.N,GND*%
X153020000Y-64345000D03*
%TO.P,TVS6,2,A2*%
%TO.N,Net-(FB6-Pad2)*%
X153020000Y-66095000D03*
%TD*%
D18*
%TO.P,TVS5,1,A1*%
%TO.N,Net-(FB5-Pad2)*%
X155570000Y-66095000D03*
%TO.P,TVS5,2,A2*%
%TO.N,GND*%
X155570000Y-64345000D03*
%TD*%
D17*
%TO.P,TVS4,1,A1*%
%TO.N,GND*%
X158070000Y-64345000D03*
%TO.P,TVS4,2,A2*%
%TO.N,Net-(FB4-Pad2)*%
X158070000Y-66095000D03*
%TD*%
D18*
%TO.P,TVS3,1,A1*%
%TO.N,Net-(FB3-Pad2)*%
X160620000Y-66095000D03*
%TO.P,TVS3,2,A2*%
%TO.N,GND*%
X160620000Y-64345000D03*
%TD*%
D17*
%TO.P,TVS2,2,A2*%
%TO.N,Net-(FB2-Pad2)*%
X163160000Y-66095000D03*
%TO.P,TVS2,1,A1*%
%TO.N,GND*%
X163160000Y-64345000D03*
%TD*%
D18*
%TO.P,TVS1,1,A1*%
%TO.N,Net-(FB1-Pad2)*%
X165740000Y-66095000D03*
%TO.P,TVS1,2,A2*%
%TO.N,GND*%
X165740000Y-64345000D03*
%TD*%
D15*
%TO.P,J2,1,Pin_1*%
%TO.N,Net-(FB9-Pad1)*%
X143975000Y-55380000D03*
D16*
%TO.P,J2,2,Pin_2*%
%TO.N,Net-(FB10-Pad1)*%
X141435000Y-55380000D03*
%TO.P,J2,3,Pin_3*%
%TO.N,Net-(FB11-Pad1)*%
X138895000Y-55380000D03*
%TO.P,J2,4,Pin_4*%
%TO.N,Net-(FB12-Pad1)*%
X136355000Y-55380000D03*
%TO.P,J2,5,Pin_5*%
%TO.N,Net-(FB13-Pad1)*%
X133815000Y-55380000D03*
%TO.P,J2,6,Pin_6*%
%TO.N,Net-(FB14-Pad1)*%
X131275000Y-55380000D03*
%TO.P,J2,7,Pin_7*%
%TO.N,Net-(FB15-Pad1)*%
X128735000Y-55380000D03*
%TO.P,J2,8,Pin_8*%
%TO.N,Net-(FB16-Pad1)*%
X126195000Y-55380000D03*
%TD*%
D19*
%TO.P,R45,2*%
%TO.N,Net-(R23-Pad2)*%
X168170000Y-73937500D03*
%TO.P,R45,1*%
%TO.N,SENSOR_TICK*%
X168170000Y-75762500D03*
%TD*%
D11*
%TO.P,C39,1*%
%TO.N,Net-(C39-Pad1)*%
X156850000Y-79110000D03*
%TO.P,C39,2*%
%TO.N,Net-(R18-Pad2)*%
X155125000Y-79110000D03*
%TD*%
D20*
%TO.P,U4,1,~{S}*%
%TO.N,CS0*%
X135705000Y-103595000D03*
%TO.P,U4,2,Q*%
%TO.N,MISO*%
X135705000Y-104865000D03*
%TO.P,U4,3,~{W}*%
%TO.N,+3V3*%
X135705000Y-106135000D03*
%TO.P,U4,4,VSS*%
%TO.N,GND*%
X135705000Y-107405000D03*
%TO.P,U4,5,D*%
%TO.N,MOSI*%
X140655000Y-107405000D03*
%TO.P,U4,6,C*%
%TO.N,SCLK*%
X140655000Y-106135000D03*
%TO.P,U4,7,~{HOLD}*%
%TO.N,+3V3*%
X140655000Y-104865000D03*
%TO.P,U4,8,VCC*%
X140655000Y-103595000D03*
%TD*%
D18*
%TO.P,D5,1,K*%
%TO.N,Net-(D5-Pad1)*%
X107188000Y-114159000D03*
%TO.P,D5,2,A*%
%TO.N,Net-(D5-Pad2)*%
X107188000Y-112409000D03*
%TD*%
D21*
%TO.P,R30,1*%
%TO.N,SW_3*%
X186777500Y-66387500D03*
%TO.P,R30,2*%
%TO.N,+3V3*%
X188602500Y-66387500D03*
%TD*%
D22*
%TO.P,U1,1,VDD*%
%TO.N,+3V3*%
X150416000Y-71970000D03*
%TO.P,U1,2,DB*%
%TO.N,Net-(R17-Pad2)*%
X149766000Y-71970000D03*
%TO.P,U1,3*%
%TO.N,N/C*%
X149116000Y-71970000D03*
%TO.P,U1,4,S8B*%
%TO.N,Net-(FB1-Pad2)*%
X148466000Y-71970000D03*
%TO.P,U1,5,S7B*%
%TO.N,Net-(FB3-Pad2)*%
X147816000Y-71970000D03*
%TO.P,U1,6,S6B*%
%TO.N,Net-(FB5-Pad2)*%
X147166000Y-71970000D03*
%TO.P,U1,7,S5B*%
%TO.N,Net-(FB7-Pad2)*%
X146516000Y-71970000D03*
%TO.P,U1,8,S4B*%
%TO.N,Net-(FB9-Pad2)*%
X145866000Y-71970000D03*
%TO.P,U1,9,S3B*%
%TO.N,Net-(FB11-Pad2)*%
X145216000Y-71970000D03*
%TO.P,U1,10,S2B*%
%TO.N,Net-(FB13-Pad2)*%
X144566000Y-71970000D03*
%TO.P,U1,11,S1B*%
%TO.N,Net-(FB15-Pad2)*%
X143916000Y-71970000D03*
%TO.P,U1,12,GND*%
%TO.N,GND*%
X143266000Y-71970000D03*
%TO.P,U1,13*%
%TO.N,N/C*%
X142616000Y-71970000D03*
%TO.P,U1,14*%
X141966000Y-71970000D03*
%TO.P,U1,15,A2*%
%TO.N,ASW_A2*%
X141966000Y-79170000D03*
%TO.P,U1,16,A1*%
%TO.N,ASW_A1*%
X142616000Y-79170000D03*
%TO.P,U1,17,A0*%
%TO.N,ASW_A0*%
X143266000Y-79170000D03*
%TO.P,U1,18,EN*%
%TO.N,ASW_EN*%
X143916000Y-79170000D03*
%TO.P,U1,19,S1A*%
%TO.N,Net-(FB16-Pad2)*%
X144566000Y-79170000D03*
%TO.P,U1,20,S2A*%
%TO.N,Net-(FB14-Pad2)*%
X145216000Y-79170000D03*
%TO.P,U1,21,S3A*%
%TO.N,Net-(FB12-Pad2)*%
X145866000Y-79170000D03*
%TO.P,U1,22,S4A*%
%TO.N,Net-(FB10-Pad2)*%
X146516000Y-79170000D03*
%TO.P,U1,23,S5A*%
%TO.N,Net-(FB8-Pad2)*%
X147166000Y-79170000D03*
%TO.P,U1,24,S6A*%
%TO.N,Net-(FB6-Pad2)*%
X147816000Y-79170000D03*
%TO.P,U1,25,S7A*%
%TO.N,Net-(FB4-Pad2)*%
X148466000Y-79170000D03*
%TO.P,U1,26,S8A*%
%TO.N,Net-(FB2-Pad2)*%
X149116000Y-79170000D03*
%TO.P,U1,27,VSS*%
%TO.N,GND*%
X149766000Y-79170000D03*
%TO.P,U1,28,DA*%
%TO.N,Net-(R18-Pad2)*%
X150416000Y-79170000D03*
%TD*%
D23*
%TO.P,J8,1,VBUS*%
%TO.N,+5V*%
X104140000Y-85330000D03*
%TO.P,J8,2,D-*%
%TO.N,unconnected-(J8-Pad2)*%
X104140000Y-85980000D03*
%TO.P,J8,3,D+*%
%TO.N,unconnected-(J8-Pad3)*%
X104140000Y-86630000D03*
%TO.P,J8,4,GND*%
%TO.N,GND*%
X104140000Y-87280000D03*
%TO.P,J8,5,Shield*%
X104140000Y-87930000D03*
D24*
%TO.P,J8,6*%
%TO.N,N/C*%
X104140000Y-89130000D03*
D25*
X101440000Y-85630000D03*
X101440000Y-87630000D03*
D24*
X104140000Y-84130000D03*
D26*
X101440000Y-89530000D03*
D27*
X101440000Y-83130000D03*
X101440000Y-90130000D03*
D26*
X101440000Y-83730000D03*
%TD*%
D28*
%TO.P,U8,1*%
%TO.N,Net-(Q3-Pad3)*%
X185156000Y-117200000D03*
D29*
%TO.P,U8,2*%
%TO.N,Net-(D2-Pad1)*%
X182616000Y-117200000D03*
%TO.P,U8,3*%
%TO.N,Net-(Q3-Pad3)*%
X180076000Y-117200000D03*
%TO.P,U8,4*%
X177536000Y-117200000D03*
%TO.P,U8,5*%
%TO.N,unconnected-(U8-Pad5)*%
X177536000Y-124820000D03*
%TO.P,U8,6*%
%TO.N,Net-(F2-Pad1)*%
X180076000Y-124820000D03*
%TO.P,U8,8*%
%TO.N,Net-(OUT_1-Pad1)*%
X185156000Y-124820000D03*
%TD*%
D30*
%TO.P,F1,1*%
%TO.N,Net-(F1-Pad1)*%
X154090000Y-132210000D03*
%TO.P,F1,2*%
%TO.N,Net-(F1-Pad2)*%
X154090000Y-137210000D03*
%TD*%
D19*
%TO.P,R25,1*%
%TO.N,+3V3*%
X169420000Y-83322500D03*
%TO.P,R25,2*%
%TO.N,Net-(R25-Pad2)*%
X169420000Y-81497500D03*
%TD*%
D31*
%TO.P,FB23,1*%
%TO.N,Net-(FB23-Pad1)*%
X186755000Y-60280000D03*
%TO.P,FB23,2*%
%TO.N,SW_3*%
X186755000Y-62005000D03*
%TD*%
D32*
%TO.P,OUT_2,1,Pin_1*%
%TO.N,Net-(OUT_2-Pad1)*%
X170986600Y-143610000D03*
%TO.P,OUT_2,2,Pin_2*%
%TO.N,Net-(F3-Pad2)*%
X165906600Y-143610000D03*
%TD*%
%TO.P,OUT_4,1,Pin_1*%
%TO.N,Net-(OUT_4-Pad1)*%
X145980000Y-143610000D03*
%TO.P,OUT_4,2,Pin_2*%
%TO.N,Net-(F8-Pad2)*%
X140900000Y-143610000D03*
%TD*%
D30*
%TO.P,F8,1*%
%TO.N,Net-(F8-Pad1)*%
X141440000Y-132210000D03*
%TO.P,F8,2*%
%TO.N,Net-(F8-Pad2)*%
X141440000Y-137210000D03*
%TD*%
D18*
%TO.P,D4,1,K*%
%TO.N,Net-(D4-Pad1)*%
X193548000Y-114413000D03*
%TO.P,D4,2,A*%
%TO.N,Net-(D4-Pad2)*%
X193548000Y-112663000D03*
%TD*%
D31*
%TO.P,FB18,1*%
%TO.N,Net-(FB18-Pad1)*%
X174035000Y-60310000D03*
%TO.P,FB18,2*%
%TO.N,GND*%
X174035000Y-62035000D03*
%TD*%
D10*
%TO.P,C23,1*%
%TO.N,SW_2*%
X181645000Y-64477500D03*
%TO.P,C23,2*%
%TO.N,GND*%
X183370000Y-64477500D03*
%TD*%
%TO.P,C22,1*%
%TO.N,SW_1*%
X176565000Y-64477500D03*
%TO.P,C22,2*%
%TO.N,GND*%
X178290000Y-64477500D03*
%TD*%
D18*
%TO.P,D6,1,K*%
%TO.N,Net-(D6-Pad1)*%
X132080000Y-114413000D03*
%TO.P,D6,2,A*%
%TO.N,Net-(D6-Pad2)*%
X132080000Y-112663000D03*
%TD*%
D31*
%TO.P,FB19,1*%
%TO.N,Net-(FB19-Pad1)*%
X176565000Y-60277500D03*
%TO.P,FB19,2*%
%TO.N,SW_1*%
X176565000Y-62002500D03*
%TD*%
D33*
%TO.P,R17,1*%
%TO.N,+3V3*%
X154828500Y-75470000D03*
%TO.P,R17,2*%
%TO.N,Net-(R17-Pad2)*%
X153003500Y-75470000D03*
%TD*%
D10*
%TO.P,C37,1*%
%TO.N,Net-(C35-Pad1)*%
X132627500Y-87200000D03*
%TO.P,C37,2*%
%TO.N,GND*%
X134352500Y-87200000D03*
%TD*%
D31*
%TO.P,FB12,1*%
%TO.N,Net-(FB12-Pad1)*%
X136350000Y-60297500D03*
%TO.P,FB12,2*%
%TO.N,Net-(FB12-Pad2)*%
X136350000Y-62022500D03*
%TD*%
D32*
%TO.P,OUT_3,1,Pin_1*%
%TO.N,Net-(OUT_3-Pad1)*%
X158486600Y-143610000D03*
%TO.P,OUT_3,2,Pin_2*%
%TO.N,Net-(F1-Pad2)*%
X153406600Y-143610000D03*
%TD*%
D21*
%TO.P,R35,1*%
%TO.N,CS0*%
X135465000Y-100130000D03*
%TO.P,R35,2*%
%TO.N,CS3*%
X137290000Y-100130000D03*
%TD*%
%TO.P,R20,1*%
%TO.N,Net-(C39-Pad1)*%
X156877500Y-80890000D03*
%TO.P,R20,2*%
%TO.N,Net-(R20-Pad2)*%
X158702500Y-80890000D03*
%TD*%
D34*
%TO.P,Q7,1,B*%
%TO.N,OUT_5*%
X136078000Y-112346500D03*
%TO.P,Q7,2,E*%
%TO.N,GND*%
X134178000Y-112346500D03*
%TO.P,Q7,3,C*%
%TO.N,Net-(Q7-Pad3)*%
X135128000Y-114221500D03*
%TD*%
D31*
%TO.P,FB16,1*%
%TO.N,Net-(FB16-Pad1)*%
X126210000Y-60307500D03*
%TO.P,FB16,2*%
%TO.N,Net-(FB16-Pad2)*%
X126210000Y-62032500D03*
%TD*%
D28*
%TO.P,U14,1*%
%TO.N,Net-(Q9-Pad3)*%
X147775000Y-117175000D03*
D29*
%TO.P,U14,2*%
%TO.N,Net-(D8-Pad1)*%
X145235000Y-117175000D03*
%TO.P,U14,3*%
%TO.N,Net-(Q9-Pad3)*%
X142695000Y-117175000D03*
%TO.P,U14,4*%
X140155000Y-117175000D03*
%TO.P,U14,5*%
%TO.N,unconnected-(U14-Pad5)*%
X140155000Y-124795000D03*
%TO.P,U14,6*%
%TO.N,Net-(F8-Pad1)*%
X142695000Y-124795000D03*
%TO.P,U14,8*%
%TO.N,Net-(OUT_4-Pad1)*%
X147775000Y-124795000D03*
%TD*%
D32*
%TO.P,OUT_1,1,Pin_1*%
%TO.N,Net-(OUT_1-Pad1)*%
X183480000Y-143610000D03*
%TO.P,OUT_1,2,Pin_2*%
%TO.N,Net-(F2-Pad2)*%
X178400000Y-143610000D03*
%TD*%
D19*
%TO.P,R26,1*%
%TO.N,Net-(R25-Pad2)*%
X169420000Y-79542500D03*
%TO.P,R26,2*%
%TO.N,GND*%
X169420000Y-77717500D03*
%TD*%
D15*
%TO.P,J6,1,Pin_1*%
%TO.N,CS2*%
X194775000Y-97675000D03*
D16*
%TO.P,J6,2,Pin_2*%
%TO.N,+5V*%
X197315000Y-97675000D03*
%TO.P,J6,3,Pin_3*%
%TO.N,CS3*%
X194775000Y-100215000D03*
%TO.P,J6,4,Pin_4*%
%TO.N,+5V*%
X197315000Y-100215000D03*
%TO.P,J6,5,Pin_5*%
%TO.N,MISO*%
X194775000Y-102755000D03*
%TO.P,J6,6,Pin_6*%
%TO.N,GND*%
X197315000Y-102755000D03*
%TO.P,J6,7,Pin_7*%
%TO.N,MOSI*%
X194775000Y-105295000D03*
%TO.P,J6,8,Pin_8*%
%TO.N,GND*%
X197315000Y-105295000D03*
%TO.P,J6,9,Pin_9*%
%TO.N,SCLK*%
X194775000Y-107835000D03*
%TO.P,J6,10,Pin_10*%
%TO.N,GND*%
X197315000Y-107835000D03*
%TD*%
D35*
%TO.P,SW2,1,1*%
%TO.N,Net-(R31-Pad1)*%
X184955000Y-84210000D03*
X192905000Y-84210000D03*
%TO.P,SW2,2,2*%
%TO.N,GND*%
X192905000Y-88710000D03*
X184955000Y-88710000D03*
%TD*%
D34*
%TO.P,Q6,1,B*%
%TO.N,OUT_7*%
X111186000Y-112092500D03*
%TO.P,Q6,2,E*%
%TO.N,GND*%
X109286000Y-112092500D03*
%TO.P,Q6,3,C*%
%TO.N,Net-(Q6-Pad3)*%
X110236000Y-113967500D03*
%TD*%
D10*
%TO.P,C24,1*%
%TO.N,SW_3*%
X186770000Y-64477500D03*
%TO.P,C24,2*%
%TO.N,GND*%
X188495000Y-64477500D03*
%TD*%
D31*
%TO.P,FB6,1*%
%TO.N,Net-(FB6-Pad1)*%
X153020000Y-60267500D03*
%TO.P,FB6,2*%
%TO.N,Net-(FB6-Pad2)*%
X153020000Y-61992500D03*
%TD*%
%TO.P,FB20,1*%
%TO.N,Net-(FB20-Pad1)*%
X179135000Y-60250000D03*
%TO.P,FB20,2*%
%TO.N,GND*%
X179135000Y-61975000D03*
%TD*%
%TO.P,FB22,1*%
%TO.N,Net-(FB22-Pad1)*%
X184215000Y-60240000D03*
%TO.P,FB22,2*%
%TO.N,GND*%
X184215000Y-61965000D03*
%TD*%
D16*
%TO.P,J1,8,Pin_8*%
%TO.N,Net-(FB8-Pad1)*%
X147826000Y-55415000D03*
%TO.P,J1,7,Pin_7*%
%TO.N,Net-(FB7-Pad1)*%
X150366000Y-55415000D03*
%TO.P,J1,6,Pin_6*%
%TO.N,Net-(FB6-Pad1)*%
X152906000Y-55415000D03*
%TO.P,J1,5,Pin_5*%
%TO.N,Net-(FB5-Pad1)*%
X155446000Y-55415000D03*
%TO.P,J1,4,Pin_4*%
%TO.N,Net-(FB4-Pad1)*%
X157986000Y-55415000D03*
%TO.P,J1,3,Pin_3*%
%TO.N,Net-(FB3-Pad1)*%
X160526000Y-55415000D03*
%TO.P,J1,2,Pin_2*%
%TO.N,Net-(FB2-Pad1)*%
X163066000Y-55415000D03*
D15*
%TO.P,J1,1,Pin_1*%
%TO.N,Net-(FB1-Pad1)*%
X165606000Y-55415000D03*
%TD*%
D33*
%TO.P,R21,1*%
%TO.N,Net-(R25-Pad2)*%
X167492500Y-81520000D03*
%TO.P,R21,2*%
%TO.N,Net-(R19-Pad2)*%
X165667500Y-81520000D03*
%TD*%
D11*
%TO.P,C29,1*%
%TO.N,Net-(C29-Pad1)*%
X129297500Y-82040000D03*
%TO.P,C29,2*%
%TO.N,GND*%
X127572500Y-82040000D03*
%TD*%
D31*
%TO.P,FB2,1*%
%TO.N,Net-(FB2-Pad1)*%
X163170000Y-60267500D03*
%TO.P,FB2,2*%
%TO.N,Net-(FB2-Pad2)*%
X163170000Y-61992500D03*
%TD*%
D21*
%TO.P,R29,1*%
%TO.N,SW_2*%
X181627500Y-66407500D03*
%TO.P,R29,2*%
%TO.N,+3V3*%
X183452500Y-66407500D03*
%TD*%
D36*
%TO.P,R37,1*%
%TO.N,+5V*%
X177038000Y-114300000D03*
%TO.P,R37,2*%
%TO.N,Net-(D2-Pad2)*%
X179038000Y-114300000D03*
%TD*%
D37*
%TO.P,C34,1*%
%TO.N,+3V3*%
X123827500Y-93070000D03*
%TO.P,C34,2*%
%TO.N,GND*%
X121752500Y-93070000D03*
%TD*%
D31*
%TO.P,FB5,1*%
%TO.N,Net-(FB5-Pad1)*%
X155545000Y-60267500D03*
%TO.P,FB5,2*%
%TO.N,Net-(FB5-Pad2)*%
X155545000Y-61992500D03*
%TD*%
D30*
%TO.P,F6,1*%
%TO.N,Net-(F6-Pad1)*%
X128940000Y-132210000D03*
%TO.P,F6,2*%
%TO.N,Net-(F6-Pad2)*%
X128940000Y-137210000D03*
%TD*%
D36*
%TO.P,R39,1*%
%TO.N,+5V*%
X189246000Y-114300000D03*
%TO.P,R39,2*%
%TO.N,Net-(D4-Pad2)*%
X191246000Y-114300000D03*
%TD*%
D38*
%TO.P,C38,1*%
%TO.N,Net-(C35-Pad1)*%
X128220000Y-85972500D03*
%TO.P,C38,2*%
%TO.N,GND*%
X128220000Y-84247500D03*
%TD*%
D36*
%TO.P,R42,1*%
%TO.N,+5V*%
X114570000Y-114300000D03*
%TO.P,R42,2*%
%TO.N,Net-(D7-Pad2)*%
X116570000Y-114300000D03*
%TD*%
D31*
%TO.P,FB9,1*%
%TO.N,Net-(FB9-Pad1)*%
X143970000Y-60267500D03*
%TO.P,FB9,2*%
%TO.N,Net-(FB9-Pad2)*%
X143970000Y-61992500D03*
%TD*%
%TO.P,FB8,1*%
%TO.N,Net-(FB8-Pad1)*%
X147945000Y-60267500D03*
%TO.P,FB8,2*%
%TO.N,Net-(FB8-Pad2)*%
X147945000Y-61992500D03*
%TD*%
%TO.P,FB11,1*%
%TO.N,Net-(FB11-Pad1)*%
X138890000Y-60307500D03*
%TO.P,FB11,2*%
%TO.N,Net-(FB11-Pad2)*%
X138890000Y-62032500D03*
%TD*%
D19*
%TO.P,R31,1*%
%TO.N,Net-(R31-Pad1)*%
X184850000Y-80622500D03*
%TO.P,R31,2*%
%TO.N,+3V3*%
X184850000Y-78797500D03*
%TD*%
D21*
%TO.P,R28,2*%
%TO.N,+3V3*%
X178352500Y-66387500D03*
%TO.P,R28,1*%
%TO.N,SW_1*%
X176527500Y-66387500D03*
%TD*%
D38*
%TO.P,C32,1*%
%TO.N,+3V3*%
X126470000Y-88312500D03*
%TO.P,C32,2*%
%TO.N,GND*%
X126470000Y-86587500D03*
%TD*%
D34*
%TO.P,Q8,1,B*%
%TO.N,OUT_6*%
X123632000Y-112346500D03*
%TO.P,Q8,2,E*%
%TO.N,GND*%
X121732000Y-112346500D03*
%TO.P,Q8,3,C*%
%TO.N,Net-(Q8-Pad3)*%
X122682000Y-114221500D03*
%TD*%
D39*
%TO.P,U3,1*%
%TO.N,Net-(R22-Pad2)*%
X162580000Y-79180000D03*
%TO.P,U3,2,-*%
%TO.N,Net-(R20-Pad2)*%
X163850000Y-79180000D03*
%TO.P,U3,3,+*%
%TO.N,Net-(R19-Pad2)*%
X165120000Y-79180000D03*
%TO.P,U3,4,V-*%
%TO.N,GND*%
X166390000Y-79180000D03*
%TO.P,U3,5,+*%
%TO.N,Net-(R23-Pad2)*%
X166390000Y-73930000D03*
%TO.P,U3,6,-*%
%TO.N,Net-(R22-Pad2)*%
X165120000Y-73930000D03*
%TO.P,U3,7*%
%TO.N,SENSOR_TICK*%
X163850000Y-73930000D03*
%TO.P,U3,8,V+*%
%TO.N,+3V3*%
X162580000Y-73930000D03*
%TD*%
D28*
%TO.P,U13,1*%
%TO.N,Net-(Q8-Pad3)*%
X122800000Y-117175000D03*
D29*
%TO.P,U13,2*%
%TO.N,Net-(D7-Pad1)*%
X120260000Y-117175000D03*
%TO.P,U13,3*%
%TO.N,Net-(Q8-Pad3)*%
X117720000Y-117175000D03*
%TO.P,U13,4*%
X115180000Y-117175000D03*
%TO.P,U13,5*%
%TO.N,unconnected-(U13-Pad5)*%
X115180000Y-124795000D03*
%TO.P,U13,6*%
%TO.N,Net-(F7-Pad1)*%
X117720000Y-124795000D03*
%TO.P,U13,8*%
%TO.N,Net-(OUT_6-Pad1)*%
X122800000Y-124795000D03*
%TD*%
D11*
%TO.P,C25,1*%
%TO.N,+3V3*%
X141152500Y-101710000D03*
%TO.P,C25,2*%
%TO.N,GND*%
X139427500Y-101710000D03*
%TD*%
D23*
%TO.P,J5,1,VBUS*%
%TO.N,Net-(J5-Pad1)*%
X104135000Y-72240000D03*
%TO.P,J5,2,D-*%
%TO.N,/mcu/USB-*%
X104135000Y-72890000D03*
%TO.P,J5,3,D+*%
%TO.N,/mcu/USB+*%
X104135000Y-73540000D03*
%TO.P,J5,4,GND*%
%TO.N,GND*%
X104135000Y-74190000D03*
%TO.P,J5,5,Shield*%
X104135000Y-74840000D03*
D24*
%TO.P,J5,6*%
%TO.N,N/C*%
X104135000Y-71040000D03*
D26*
X101435000Y-76440000D03*
D25*
X101435000Y-72540000D03*
D27*
X101435000Y-77040000D03*
D25*
X101435000Y-74540000D03*
D26*
X101435000Y-70640000D03*
D27*
X101435000Y-70040000D03*
D24*
X104135000Y-76040000D03*
%TD*%
D36*
%TO.P,R41,1*%
%TO.N,+5V*%
X127016000Y-114300000D03*
%TO.P,R41,2*%
%TO.N,Net-(D6-Pad2)*%
X129016000Y-114300000D03*
%TD*%
D35*
%TO.P,SW1,1,1*%
%TO.N,Net-(SW1-Pad1)*%
X184930000Y-70820000D03*
X192880000Y-70820000D03*
%TO.P,SW1,2,2*%
%TO.N,+3V3*%
X184930000Y-75320000D03*
X192880000Y-75320000D03*
%TD*%
D31*
%TO.P,FB3,1*%
%TO.N,Net-(FB3-Pad1)*%
X160620000Y-60242500D03*
%TO.P,FB3,2*%
%TO.N,Net-(FB3-Pad2)*%
X160620000Y-61967500D03*
%TD*%
%TO.P,FB14,1*%
%TO.N,Net-(FB14-Pad1)*%
X131280000Y-60297500D03*
%TO.P,FB14,2*%
%TO.N,Net-(FB14-Pad2)*%
X131280000Y-62022500D03*
%TD*%
D32*
%TO.P,OUT_5,1,Pin_1*%
%TO.N,Net-(OUT_5-Pad1)*%
X133480000Y-143610000D03*
%TO.P,OUT_5,2,Pin_2*%
%TO.N,Net-(F6-Pad2)*%
X128400000Y-143610000D03*
%TD*%
D40*
%TO.P,C26,1*%
%TO.N,GND*%
X110470000Y-87377500D03*
%TO.P,C26,2*%
%TO.N,+5V*%
X110470000Y-85302500D03*
%TD*%
D18*
%TO.P,D2,1,K*%
%TO.N,Net-(D2-Pad1)*%
X182118000Y-114413000D03*
%TO.P,D2,2,A*%
%TO.N,Net-(D2-Pad2)*%
X182118000Y-112663000D03*
%TD*%
D41*
%TO.P,R44,1*%
%TO.N,Net-(J5-Pad1)*%
X113030000Y-78081500D03*
%TO.P,R44,2*%
%TO.N,+5V*%
X113030000Y-79906500D03*
%TD*%
D32*
%TO.P,OUT_7,1,Pin_1*%
%TO.N,Net-(OUT_7-Pad1)*%
X108480000Y-143610000D03*
%TO.P,OUT_7,2,Pin_2*%
%TO.N,Net-(F5-Pad2)*%
X103400000Y-143610000D03*
%TD*%
D21*
%TO.P,R19,1*%
%TO.N,Net-(C20-Pad1)*%
X158885000Y-77260000D03*
%TO.P,R19,2*%
%TO.N,Net-(R19-Pad2)*%
X160710000Y-77260000D03*
%TD*%
%TO.P,R33,1*%
%TO.N,Net-(R33-Pad1)*%
X133170000Y-83720000D03*
%TO.P,R33,2*%
%TO.N,/mcu/USB+*%
X134995000Y-83720000D03*
%TD*%
D11*
%TO.P,C36,1*%
%TO.N,Net-(C35-Pad1)*%
X123862500Y-97260000D03*
%TO.P,C36,2*%
%TO.N,GND*%
X122137500Y-97260000D03*
%TD*%
D28*
%TO.P,U10,1*%
%TO.N,Net-(Q5-Pad3)*%
X197300000Y-117200000D03*
D29*
%TO.P,U10,2*%
%TO.N,Net-(D4-Pad1)*%
X194760000Y-117200000D03*
%TO.P,U10,3*%
%TO.N,Net-(Q5-Pad3)*%
X192220000Y-117200000D03*
%TO.P,U10,4*%
X189680000Y-117200000D03*
%TO.P,U10,5*%
%TO.N,unconnected-(U10-Pad5)*%
X189680000Y-124820000D03*
%TO.P,U10,6*%
%TO.N,Net-(F4-Pad1)*%
X192220000Y-124820000D03*
%TO.P,U10,8*%
%TO.N,Net-(OUT_0-Pad1)*%
X197300000Y-124820000D03*
%TD*%
D31*
%TO.P,C19,2*%
%TO.N,GND*%
X160780000Y-75372500D03*
%TO.P,C19,1*%
%TO.N,+3V3*%
X160780000Y-73647500D03*
%TD*%
D42*
%TO.P,U5,1,ADREF*%
%TO.N,+3V3*%
X126807500Y-90980000D03*
%TO.P,U5,2,GND*%
%TO.N,GND*%
X126807500Y-91480000D03*
%TO.P,U5,3,PB0/AD4*%
%TO.N,unconnected-(U5-Pad3)*%
X126807500Y-91980000D03*
%TO.P,U5,4,PB1/AD5*%
%TO.N,unconnected-(U5-Pad4)*%
X126807500Y-92480000D03*
%TO.P,U5,5,PB2/AD6*%
%TO.N,CS2*%
X126807500Y-92980000D03*
%TO.P,U5,6,PB3/AD7*%
%TO.N,ASW_A0*%
X126807500Y-93480000D03*
%TO.P,U5,7,VDDIN*%
%TO.N,+3V3*%
X126807500Y-93980000D03*
%TO.P,U5,8,VDDOUT*%
%TO.N,Net-(C35-Pad1)*%
X126807500Y-94480000D03*
%TO.P,U5,9,PA17*%
%TO.N,OUT_7*%
X126807500Y-94980000D03*
%TO.P,U5,10,PA18*%
%TO.N,OUT_6*%
X126807500Y-95480000D03*
%TO.P,U5,11,PA19*%
%TO.N,OUT_5*%
X126807500Y-95980000D03*
%TO.P,U5,12,PA20*%
%TO.N,OUT_4*%
X126807500Y-96480000D03*
D43*
%TO.P,U5,13,VDDIO*%
%TO.N,+3V3*%
X128220000Y-97892500D03*
%TO.P,U5,14,PA16*%
%TO.N,OUT_3*%
X128720000Y-97892500D03*
%TO.P,U5,15,PA15*%
%TO.N,OUT_2*%
X129220000Y-97892500D03*
%TO.P,U5,16,PA14*%
%TO.N,SCLK*%
X129720000Y-97892500D03*
%TO.P,U5,17,PA13*%
%TO.N,MOSI*%
X130220000Y-97892500D03*
%TO.P,U5,18,VDDCORE*%
%TO.N,Net-(C35-Pad1)*%
X130720000Y-97892500D03*
%TO.P,U5,19,PA12*%
%TO.N,MISO*%
X131220000Y-97892500D03*
%TO.P,U5,20,PA11*%
%TO.N,CS0*%
X131720000Y-97892500D03*
%TO.P,U5,21,PA10*%
%TO.N,Net-(J4-Pad2)*%
X132220000Y-97892500D03*
%TO.P,U5,22,PA9*%
%TO.N,Net-(J4-Pad3)*%
X132720000Y-97892500D03*
%TO.P,U5,23,PA8*%
%TO.N,OUT_1*%
X133220000Y-97892500D03*
%TO.P,U5,24,PA7*%
%TO.N,OUT_0*%
X133720000Y-97892500D03*
D42*
%TO.P,U5,25*%
%TO.N,N/C*%
X135132500Y-96480000D03*
%TO.P,U5,26,PA6*%
%TO.N,unconnected-(U5-Pad26)*%
X135132500Y-95980000D03*
%TO.P,U5,27,PA5*%
%TO.N,CS3*%
X135132500Y-95480000D03*
%TO.P,U5,28,PA4*%
%TO.N,SENSOR_TICK*%
X135132500Y-94980000D03*
%TO.P,U5,29,NRST*%
%TO.N,Net-(R31-Pad1)*%
X135132500Y-94480000D03*
%TO.P,U5,30,TST*%
%TO.N,GND*%
X135132500Y-93980000D03*
%TO.P,U5,31,PA3*%
%TO.N,SW_3*%
X135132500Y-93480000D03*
%TO.P,U5,32,PA2*%
%TO.N,SW_2*%
X135132500Y-92980000D03*
%TO.P,U5,33,VDDIO*%
%TO.N,+3V3*%
X135132500Y-92480000D03*
%TO.P,U5,34,GND*%
%TO.N,GND*%
X135132500Y-91980000D03*
%TO.P,U5,35,PA1*%
%TO.N,SW_1*%
X135132500Y-91480000D03*
%TO.P,U5,36,PA0*%
%TO.N,SW_0*%
X135132500Y-90980000D03*
D43*
%TO.P,U5,37,PB5*%
%TO.N,ASW_A1*%
X133720000Y-89567500D03*
%TO.P,U5,38,JTAGSEL*%
%TO.N,unconnected-(U5-Pad38)*%
X133220000Y-89567500D03*
%TO.P,U5,39,PB6*%
%TO.N,ASW_A2*%
X132720000Y-89567500D03*
%TO.P,U5,40,PB7*%
%TO.N,ASW_EN*%
X132220000Y-89567500D03*
%TO.P,U5,41,VDDCORE*%
%TO.N,Net-(C35-Pad1)*%
X131720000Y-89567500D03*
%TO.P,U5,42,PB12/ERASE*%
%TO.N,Net-(SW1-Pad1)*%
X131220000Y-89567500D03*
%TO.P,U5,43,PB10/DDM*%
%TO.N,Net-(R32-Pad1)*%
X130720000Y-89567500D03*
%TO.P,U5,44,PB11/DDP*%
%TO.N,Net-(R33-Pad1)*%
X130220000Y-89567500D03*
%TO.P,U5,45,PB8/XOUT*%
%TO.N,Net-(C28-Pad1)*%
X129720000Y-89567500D03*
%TO.P,U5,46,PB9/XIN*%
%TO.N,Net-(C29-Pad1)*%
X129220000Y-89567500D03*
%TO.P,U5,47,VDDIO*%
%TO.N,+3V3*%
X128720000Y-89567500D03*
%TO.P,U5,48,VDDPLL*%
%TO.N,Net-(C35-Pad1)*%
X128220000Y-89567500D03*
%TD*%
D37*
%TO.P,C35,1*%
%TO.N,Net-(C35-Pad1)*%
X123817500Y-95280000D03*
%TO.P,C35,2*%
%TO.N,GND*%
X121742500Y-95280000D03*
%TD*%
D31*
%TO.P,FB13,1*%
%TO.N,Net-(FB13-Pad1)*%
X133810000Y-60287500D03*
%TO.P,FB13,2*%
%TO.N,Net-(FB13-Pad2)*%
X133810000Y-62012500D03*
%TD*%
D30*
%TO.P,F4,1*%
%TO.N,Net-(F4-Pad1)*%
X191940000Y-132210000D03*
%TO.P,F4,2*%
%TO.N,Net-(F4-Pad2)*%
X191940000Y-137210000D03*
%TD*%
D31*
%TO.P,FB17,1*%
%TO.N,Net-(FB17-Pad1)*%
X171525000Y-60287500D03*
%TO.P,FB17,2*%
%TO.N,SW_0*%
X171525000Y-62012500D03*
%TD*%
D33*
%TO.P,R22,2*%
%TO.N,Net-(R22-Pad2)*%
X161947500Y-81530000D03*
%TO.P,R22,1*%
%TO.N,Net-(R20-Pad2)*%
X163772500Y-81530000D03*
%TD*%
D10*
%TO.P,C21,1*%
%TO.N,SW_0*%
X171515000Y-64477500D03*
%TO.P,C21,2*%
%TO.N,GND*%
X173240000Y-64477500D03*
%TD*%
D30*
%TO.P,F3,1*%
%TO.N,Net-(F3-Pad1)*%
X166370000Y-132334000D03*
%TO.P,F3,2*%
%TO.N,Net-(F3-Pad2)*%
X166370000Y-137334000D03*
%TD*%
D21*
%TO.P,R24,1*%
%TO.N,Net-(R23-Pad2)*%
X168205000Y-71970000D03*
%TO.P,R24,2*%
%TO.N,GND*%
X170030000Y-71970000D03*
%TD*%
D28*
%TO.P,U12,1*%
%TO.N,Net-(Q7-Pad3)*%
X135250000Y-117175000D03*
D29*
%TO.P,U12,2*%
%TO.N,Net-(D6-Pad1)*%
X132710000Y-117175000D03*
%TO.P,U12,3*%
%TO.N,Net-(Q7-Pad3)*%
X130170000Y-117175000D03*
%TO.P,U12,4*%
X127630000Y-117175000D03*
%TO.P,U12,5*%
%TO.N,unconnected-(U12-Pad5)*%
X127630000Y-124795000D03*
%TO.P,U12,6*%
%TO.N,Net-(F6-Pad1)*%
X130170000Y-124795000D03*
%TO.P,U12,8*%
%TO.N,Net-(OUT_5-Pad1)*%
X135250000Y-124795000D03*
%TD*%
D32*
%TO.P,OUT_0,1,Pin_1*%
%TO.N,Net-(OUT_0-Pad1)*%
X195980000Y-143610000D03*
%TO.P,OUT_0,2,Pin_2*%
%TO.N,Net-(F4-Pad2)*%
X190900000Y-143610000D03*
%TD*%
D30*
%TO.P,F2,1*%
%TO.N,Net-(F2-Pad1)*%
X178940000Y-132210000D03*
%TO.P,F2,2*%
%TO.N,Net-(F2-Pad2)*%
X178940000Y-137210000D03*
%TD*%
D32*
%TO.P,OUT_6,1,Pin_1*%
%TO.N,Net-(OUT_6-Pad1)*%
X120980000Y-143610000D03*
%TO.P,OUT_6,2,Pin_2*%
%TO.N,Net-(F7-Pad2)*%
X115900000Y-143610000D03*
%TD*%
D28*
%TO.P,U9,1*%
%TO.N,Net-(Q4-Pad3)*%
X172700000Y-117175000D03*
D29*
%TO.P,U9,2*%
%TO.N,Net-(D3-Pad1)*%
X170160000Y-117175000D03*
%TO.P,U9,3*%
%TO.N,Net-(Q4-Pad3)*%
X167620000Y-117175000D03*
%TO.P,U9,4*%
X165080000Y-117175000D03*
%TO.P,U9,5*%
%TO.N,unconnected-(U9-Pad5)*%
X165080000Y-124795000D03*
%TO.P,U9,6*%
%TO.N,Net-(F3-Pad1)*%
X167620000Y-124795000D03*
%TO.P,U9,8*%
%TO.N,Net-(OUT_2-Pad1)*%
X172700000Y-124795000D03*
%TD*%
D19*
%TO.P,R18,2*%
%TO.N,Net-(R18-Pad2)*%
X153016000Y-77757500D03*
%TO.P,R18,1*%
%TO.N,GND*%
X153016000Y-79582500D03*
%TD*%
D28*
%TO.P,U7,1*%
%TO.N,Net-(Q2-Pad3)*%
X160150000Y-117175000D03*
D29*
%TO.P,U7,2*%
%TO.N,Net-(D1-Pad1)*%
X157610000Y-117175000D03*
%TO.P,U7,3*%
%TO.N,Net-(Q2-Pad3)*%
X155070000Y-117175000D03*
%TO.P,U7,4*%
X152530000Y-117175000D03*
%TO.P,U7,5*%
%TO.N,unconnected-(U7-Pad5)*%
X152530000Y-124795000D03*
%TO.P,U7,6*%
%TO.N,Net-(F1-Pad1)*%
X155070000Y-124795000D03*
%TO.P,U7,8*%
%TO.N,Net-(OUT_3-Pad1)*%
X160150000Y-124795000D03*
%TD*%
D36*
%TO.P,R43,1*%
%TO.N,+5V*%
X139462000Y-114300000D03*
%TO.P,R43,2*%
%TO.N,Net-(D8-Pad2)*%
X141462000Y-114300000D03*
%TD*%
%TO.P,R40,1*%
%TO.N,+5V*%
X102378000Y-114046000D03*
%TO.P,R40,2*%
%TO.N,Net-(D5-Pad2)*%
X104378000Y-114046000D03*
%TD*%
D31*
%TO.P,FB1,1*%
%TO.N,Net-(FB1-Pad1)*%
X165720000Y-60267500D03*
%TO.P,FB1,2*%
%TO.N,Net-(FB1-Pad2)*%
X165720000Y-61992500D03*
%TD*%
D36*
%TO.P,R36,1*%
%TO.N,+5V*%
X151924000Y-114300000D03*
%TO.P,R36,2*%
%TO.N,Net-(D1-Pad2)*%
X153924000Y-114300000D03*
%TD*%
D41*
%TO.P,R34,1*%
%TO.N,CS0*%
X125750000Y-109357500D03*
%TO.P,R34,2*%
%TO.N,CS2*%
X125750000Y-111182500D03*
%TD*%
D30*
%TO.P,F5,1*%
%TO.N,Net-(F5-Pad1)*%
X103940000Y-132210000D03*
%TO.P,F5,2*%
%TO.N,Net-(F5-Pad2)*%
X103940000Y-137210000D03*
%TD*%
D34*
%TO.P,Q3,1,B*%
%TO.N,OUT_1*%
X186116000Y-112346500D03*
%TO.P,Q3,2,E*%
%TO.N,GND*%
X184216000Y-112346500D03*
%TO.P,Q3,3,C*%
%TO.N,Net-(Q3-Pad3)*%
X185166000Y-114221500D03*
%TD*%
D30*
%TO.P,F7,1*%
%TO.N,Net-(F7-Pad1)*%
X116440000Y-132210000D03*
%TO.P,F7,2*%
%TO.N,Net-(F7-Pad2)*%
X116440000Y-137210000D03*
%TD*%
D31*
%TO.P,FB10,1*%
%TO.N,Net-(FB10-Pad1)*%
X141430000Y-60307500D03*
%TO.P,FB10,2*%
%TO.N,Net-(FB10-Pad2)*%
X141430000Y-62032500D03*
%TD*%
D11*
%TO.P,C33,1*%
%TO.N,+3V3*%
X123892500Y-91060000D03*
%TO.P,C33,2*%
%TO.N,GND*%
X122167500Y-91060000D03*
%TD*%
D31*
%TO.P,FB15,1*%
%TO.N,Net-(FB15-Pad1)*%
X128730000Y-60307500D03*
%TO.P,FB15,2*%
%TO.N,Net-(FB15-Pad2)*%
X128730000Y-62032500D03*
%TD*%
%TO.P,FB21,1*%
%TO.N,Net-(FB21-Pad1)*%
X181655000Y-60240000D03*
%TO.P,FB21,2*%
%TO.N,SW_2*%
X181655000Y-61965000D03*
%TD*%
D10*
%TO.P,C28,1*%
%TO.N,Net-(C28-Pad1)*%
X131357500Y-82040000D03*
%TO.P,C28,2*%
%TO.N,GND*%
X133082500Y-82040000D03*
%TD*%
D31*
%TO.P,C17,1*%
%TO.N,+3V3*%
X153016000Y-71607500D03*
%TO.P,C17,2*%
%TO.N,GND*%
X153016000Y-73332500D03*
%TD*%
D18*
%TO.P,D1,1,K*%
%TO.N,Net-(D1-Pad1)*%
X156972000Y-114413000D03*
%TO.P,D1,2,A*%
%TO.N,Net-(D1-Pad2)*%
X156972000Y-112663000D03*
%TD*%
D34*
%TO.P,Q4,1,B*%
%TO.N,OUT_2*%
X173670000Y-112346500D03*
%TO.P,Q4,2,E*%
%TO.N,GND*%
X171770000Y-112346500D03*
%TO.P,Q4,3,C*%
%TO.N,Net-(Q4-Pad3)*%
X172720000Y-114221500D03*
%TD*%
D21*
%TO.P,R32,1*%
%TO.N,Net-(R32-Pad1)*%
X133180000Y-85360000D03*
%TO.P,R32,2*%
%TO.N,/mcu/USB-*%
X135005000Y-85360000D03*
%TD*%
D40*
%TO.P,C27,1*%
%TO.N,GND*%
X118780000Y-87377500D03*
%TO.P,C27,2*%
%TO.N,+3V3*%
X118780000Y-85302500D03*
%TD*%
D11*
%TO.P,C20,1*%
%TO.N,Net-(C20-Pad1)*%
X156852500Y-77270000D03*
%TO.P,C20,2*%
%TO.N,Net-(R17-Pad2)*%
X155127500Y-77270000D03*
%TD*%
D34*
%TO.P,Q2,1,B*%
%TO.N,OUT_3*%
X160970000Y-112346500D03*
%TO.P,Q2,2,E*%
%TO.N,GND*%
X159070000Y-112346500D03*
%TO.P,Q2,3,C*%
%TO.N,Net-(Q2-Pad3)*%
X160020000Y-114221500D03*
%TD*%
D36*
%TO.P,R38,1*%
%TO.N,+5V*%
X164608000Y-114300000D03*
%TO.P,R38,2*%
%TO.N,Net-(D3-Pad2)*%
X166608000Y-114300000D03*
%TD*%
D15*
%TO.P,J4,1,Pin_1*%
%TO.N,+3V3*%
X144660000Y-99120000D03*
D16*
%TO.P,J4,2,Pin_2*%
%TO.N,Net-(J4-Pad2)*%
X147200000Y-99120000D03*
%TO.P,J4,3,Pin_3*%
%TO.N,Net-(J4-Pad3)*%
X149740000Y-99120000D03*
%TO.P,J4,4,Pin_4*%
%TO.N,GND*%
X152280000Y-99120000D03*
%TD*%
D31*
%TO.P,FB4,1*%
%TO.N,Net-(FB4-Pad1)*%
X158095000Y-60242500D03*
%TO.P,FB4,2*%
%TO.N,Net-(FB4-Pad2)*%
X158095000Y-61967500D03*
%TD*%
D28*
%TO.P,U11,1*%
%TO.N,Net-(Q6-Pad3)*%
X110200000Y-117125000D03*
D29*
%TO.P,U11,2*%
%TO.N,Net-(D5-Pad1)*%
X107660000Y-117125000D03*
%TO.P,U11,3*%
%TO.N,Net-(Q6-Pad3)*%
X105120000Y-117125000D03*
%TO.P,U11,4*%
X102580000Y-117125000D03*
%TO.P,U11,5*%
%TO.N,unconnected-(U11-Pad5)*%
X102580000Y-124745000D03*
%TO.P,U11,6*%
%TO.N,Net-(F5-Pad1)*%
X105120000Y-124745000D03*
%TO.P,U11,8*%
%TO.N,Net-(OUT_7-Pad1)*%
X110200000Y-124745000D03*
%TD*%
D31*
%TO.P,FB7,1*%
%TO.N,Net-(FB7-Pad1)*%
X150470000Y-60267500D03*
%TO.P,FB7,2*%
%TO.N,Net-(FB7-Pad2)*%
X150470000Y-61992500D03*
%TD*%
D18*
%TO.P,D3,1,K*%
%TO.N,Net-(D3-Pad1)*%
X169672000Y-114413000D03*
%TO.P,D3,2,A*%
%TO.N,Net-(D3-Pad2)*%
X169672000Y-112663000D03*
%TD*%
%TO.P,D8,1,K*%
%TO.N,Net-(D8-Pad1)*%
X144780000Y-114413000D03*
%TO.P,D8,2,A*%
%TO.N,Net-(D8-Pad2)*%
X144780000Y-112663000D03*
%TD*%
D31*
%TO.P,FB24,1*%
%TO.N,Net-(FB24-Pad1)*%
X189325000Y-60267500D03*
%TO.P,FB24,2*%
%TO.N,GND*%
X189325000Y-61992500D03*
%TD*%
%TO.P,C30,1*%
%TO.N,+3V3*%
X127700000Y-100347500D03*
%TO.P,C30,2*%
%TO.N,GND*%
X127700000Y-102072500D03*
%TD*%
D10*
%TO.P,C31,1*%
%TO.N,+3V3*%
X138110000Y-92070000D03*
%TO.P,C31,2*%
%TO.N,GND*%
X139835000Y-92070000D03*
%TD*%
D34*
%TO.P,Q5,1,B*%
%TO.N,OUT_0*%
X197546000Y-112346500D03*
%TO.P,Q5,2,E*%
%TO.N,GND*%
X195646000Y-112346500D03*
%TO.P,Q5,3,C*%
%TO.N,Net-(Q5-Pad3)*%
X196596000Y-114221500D03*
%TD*%
D21*
%TO.P,R27,1*%
%TO.N,SW_0*%
X171427500Y-66407500D03*
%TO.P,R27,2*%
%TO.N,+3V3*%
X173252500Y-66407500D03*
%TD*%
D34*
%TO.P,Q9,1,B*%
%TO.N,OUT_4*%
X148778000Y-112346500D03*
%TO.P,Q9,2,E*%
%TO.N,GND*%
X146878000Y-112346500D03*
%TO.P,Q9,3,C*%
%TO.N,Net-(Q9-Pad3)*%
X147828000Y-114221500D03*
%TD*%
D33*
%TO.P,R23,1*%
%TO.N,+3V3*%
X171842500Y-73890000D03*
%TO.P,R23,2*%
%TO.N,Net-(R23-Pad2)*%
X170017500Y-73890000D03*
%TD*%
D18*
%TO.P,D7,1,K*%
%TO.N,Net-(D7-Pad1)*%
X119634000Y-114413000D03*
%TO.P,D7,2,A*%
%TO.N,Net-(D7-Pad2)*%
X119634000Y-112663000D03*
%TD*%
D15*
%TO.P,J7,1,Pin_1*%
%TO.N,CS2*%
X105006000Y-97698000D03*
D16*
%TO.P,J7,2,Pin_2*%
%TO.N,+5V*%
X102466000Y-97698000D03*
%TO.P,J7,3,Pin_3*%
%TO.N,CS3*%
X105006000Y-100238000D03*
%TO.P,J7,4,Pin_4*%
%TO.N,+5V*%
X102466000Y-100238000D03*
%TO.P,J7,5,Pin_5*%
%TO.N,MISO*%
X105006000Y-102778000D03*
%TO.P,J7,6,Pin_6*%
%TO.N,GND*%
X102466000Y-102778000D03*
%TO.P,J7,7,Pin_7*%
%TO.N,MOSI*%
X105006000Y-105318000D03*
%TO.P,J7,8,Pin_8*%
%TO.N,GND*%
X102466000Y-105318000D03*
%TO.P,J7,9,Pin_9*%
%TO.N,SCLK*%
X105006000Y-107858000D03*
%TO.P,J7,10,Pin_10*%
%TO.N,GND*%
X102466000Y-107858000D03*
%TD*%
D44*
%TO.P,Y1,1,1*%
%TO.N,Net-(C29-Pad1)*%
X127830000Y-79810000D03*
%TO.P,Y1,2,2*%
%TO.N,Net-(C28-Pad1)*%
X132710000Y-79810000D03*
%TD*%
D45*
%TO.N,+3V3*%
X171790000Y-67970000D03*
%TO.N,SENSOR_TICK*%
X170600000Y-89750000D03*
X170590000Y-82430000D03*
%TO.N,Net-(R22-Pad2)*%
X165100000Y-75960000D03*
X161910000Y-79170000D03*
%TO.N,Net-(SW1-Pad1)*%
X178602300Y-72312300D03*
%TO.N,GND*%
X126210000Y-63400000D03*
X128740000Y-63400000D03*
X131280000Y-63400000D03*
X133810000Y-63400000D03*
X136350000Y-63400000D03*
X138890000Y-63400000D03*
X141440000Y-63400000D03*
X144000000Y-63400000D03*
X147920000Y-63400000D03*
X150420000Y-63400000D03*
X153020000Y-63400000D03*
X155580000Y-63400000D03*
X158080000Y-63400000D03*
X160630000Y-63400000D03*
X163170000Y-63400000D03*
X165720000Y-63400000D03*
X169420000Y-76740000D03*
X146510000Y-115190000D03*
X161770000Y-75620000D03*
X179150000Y-63370000D03*
X114620000Y-90010000D03*
X126460000Y-85510000D03*
X105903000Y-75682000D03*
X195260000Y-115070000D03*
X154141000Y-73345000D03*
X166300000Y-77540000D03*
D46*
X128110000Y-92200000D03*
D45*
X110430000Y-88590000D03*
X171360000Y-115130000D03*
X170050000Y-71140000D03*
X127700000Y-103280000D03*
X105930000Y-87470000D03*
D46*
X133780000Y-93880000D03*
D45*
X120990000Y-91050000D03*
D46*
X133700000Y-91800000D03*
D45*
X189350000Y-63350000D03*
X153030000Y-80520000D03*
X120540000Y-93080000D03*
X139040000Y-102900000D03*
X174040000Y-63380000D03*
X135380000Y-87200000D03*
X118780000Y-88610000D03*
X120540000Y-95290000D03*
X184240000Y-63370000D03*
X108920000Y-114900000D03*
X121030000Y-97280000D03*
X105930000Y-89330000D03*
X150116000Y-77545000D03*
X137210000Y-107390000D03*
X121340000Y-115180000D03*
X105903000Y-74666000D03*
X105903000Y-76698000D03*
X105930000Y-88400000D03*
X141870000Y-74900000D03*
X127750000Y-83160000D03*
X189110000Y-88680000D03*
X133810000Y-115180000D03*
X183750000Y-115110000D03*
X140920000Y-92040000D03*
X134160000Y-82040000D03*
X158710000Y-115180000D03*
%TO.N,Net-(FB2-Pad2)*%
X160066000Y-68395000D03*
X149866000Y-74795000D03*
%TO.N,Net-(FB4-Pad2)*%
X155291000Y-68745000D03*
X149041000Y-73970000D03*
%TO.N,Net-(FB6-Pad2)*%
X148116000Y-74795000D03*
X152166000Y-67970000D03*
%TO.N,Net-(FB8-Pad2)*%
X146716000Y-68420000D03*
X147241000Y-73970000D03*
%TO.N,Net-(FB10-Pad2)*%
X146391000Y-74795000D03*
X143771000Y-68335000D03*
%TO.N,Net-(FB12-Pad2)*%
X145566000Y-73970000D03*
X141791000Y-68745000D03*
%TO.N,Net-(FB14-Pad2)*%
X135291000Y-68585000D03*
X144766000Y-74795000D03*
%TO.N,Net-(FB16-Pad2)*%
X144041000Y-73970000D03*
X140361000Y-71185000D03*
%TO.N,+3V3*%
X131780000Y-69760000D03*
X146410000Y-95260000D03*
X184570000Y-66410000D03*
X154400000Y-85070000D03*
X151366000Y-71970000D03*
X121340000Y-74590000D03*
X154280000Y-91340000D03*
X179470000Y-66420000D03*
X174370000Y-66410000D03*
X189710000Y-66400000D03*
X121320000Y-71630000D03*
D46*
%TO.N,Net-(C35-Pad1)*%
X129214030Y-94025970D03*
X130680000Y-93720000D03*
X129570000Y-92670000D03*
X131220000Y-91670000D03*
D45*
%TO.N,CS2*%
X122180000Y-89590000D03*
X126560000Y-98870000D03*
X123930000Y-99300000D03*
X127190000Y-107030000D03*
X125560000Y-89590000D03*
X127210000Y-110620000D03*
%TO.N,CS3*%
X138650000Y-96490000D03*
X138650000Y-99280000D03*
X132900000Y-105800000D03*
X138040000Y-102340000D03*
%TO.N,MISO*%
X132040000Y-106760000D03*
%TO.N,MOSI*%
X131250000Y-107610000D03*
%TO.N,SCLK*%
X130400000Y-108430000D03*
%TO.N,CS0*%
X134300000Y-100110000D03*
X134290000Y-103070000D03*
X132920000Y-102070000D03*
X124870000Y-108360000D03*
X131800000Y-104350000D03*
%TO.N,Net-(SW1-Pad1)*%
X144300000Y-85180000D03*
X174010000Y-71590000D03*
X140000000Y-84410000D03*
%TO.N,ASW_A0*%
X122800000Y-74610000D03*
X143450000Y-81130000D03*
X141090000Y-81150000D03*
X122780000Y-71860000D03*
%TO.N,ASW_EN*%
X140960000Y-82360000D03*
X144310000Y-82310000D03*
%TO.N,Net-(J5-Pad1)*%
X113050000Y-74600000D03*
X113040000Y-71650000D03*
%TD*%
D47*
%TO.N,+3V3*%
X171790000Y-67970000D02*
X171790000Y-69340000D01*
X171200000Y-69930000D02*
X171200000Y-70060000D01*
X171790000Y-69340000D02*
X171200000Y-69930000D01*
D48*
X167500000Y-70060000D02*
X171200000Y-70060000D01*
X171200000Y-70060000D02*
X171870000Y-70730000D01*
D47*
X192880000Y-75320000D02*
X194200000Y-75320000D01*
X194200000Y-75320000D02*
X194590000Y-74930000D01*
X194590000Y-74930000D02*
X194590000Y-70000000D01*
X194590000Y-70000000D02*
X190990000Y-66400000D01*
X190990000Y-66400000D02*
X189710000Y-66400000D01*
X188602500Y-66387500D02*
X189697500Y-66387500D01*
X189697500Y-66387500D02*
X189710000Y-66400000D01*
X184570000Y-66410000D02*
X183455000Y-66410000D01*
X183455000Y-66410000D02*
X183452500Y-66407500D01*
%TO.N,SW_3*%
X135132500Y-93480000D02*
X142870000Y-93480000D01*
X142870000Y-93480000D02*
X148020000Y-88330000D01*
X179430000Y-70130000D02*
X183035000Y-70130000D01*
X148020000Y-88330000D02*
X172280000Y-88330000D01*
X172280000Y-88330000D02*
X177710000Y-82900000D01*
X177710000Y-82900000D02*
X177710000Y-71850000D01*
X177710000Y-71850000D02*
X179430000Y-70130000D01*
X183035000Y-70130000D02*
X186777500Y-66387500D01*
%TO.N,+3V3*%
X178352500Y-66387500D02*
X179437500Y-66387500D01*
X179437500Y-66387500D02*
X179470000Y-66420000D01*
%TO.N,SW_2*%
X135132500Y-92980000D02*
X142170000Y-92980000D01*
X147420000Y-87730000D02*
X171800000Y-87730000D01*
X142170000Y-92980000D02*
X147420000Y-87730000D01*
X171800000Y-87730000D02*
X176790000Y-82740000D01*
X176790000Y-82740000D02*
X176790000Y-71245000D01*
X176790000Y-71245000D02*
X181627500Y-66407500D01*
%TO.N,SW_1*%
X135132500Y-91480000D02*
X136620000Y-91480000D01*
X136620000Y-91480000D02*
X137210000Y-90890000D01*
X137210000Y-90890000D02*
X143130000Y-90890000D01*
X143130000Y-90890000D02*
X146860000Y-87160000D01*
X146860000Y-87160000D02*
X171290000Y-87160000D01*
X171290000Y-87160000D02*
X175830000Y-82620000D01*
X175830000Y-82620000D02*
X175830000Y-67085000D01*
X175830000Y-67085000D02*
X176527500Y-66387500D01*
%TO.N,SW_0*%
X135132500Y-90980000D02*
X136270000Y-90980000D01*
X137030000Y-90220000D02*
X142800000Y-90220000D01*
X174970000Y-69930000D02*
X171447500Y-66407500D01*
X136270000Y-90980000D02*
X137030000Y-90220000D01*
X170650000Y-86560000D02*
X174970000Y-82240000D01*
X142800000Y-90220000D02*
X146460000Y-86560000D01*
X174970000Y-82240000D02*
X174970000Y-69930000D01*
X146460000Y-86560000D02*
X170650000Y-86560000D01*
X171447500Y-66407500D02*
X171427500Y-66407500D01*
%TO.N,+3V3*%
X173252500Y-66407500D02*
X174367500Y-66407500D01*
X174367500Y-66407500D02*
X174370000Y-66410000D01*
%TO.N,SW_3*%
X186770000Y-64477500D02*
X186770000Y-62020000D01*
X186770000Y-62020000D02*
X186755000Y-62005000D01*
%TO.N,SW_2*%
X181645000Y-64477500D02*
X181645000Y-61975000D01*
X181645000Y-61975000D02*
X181655000Y-61965000D01*
%TO.N,SW_1*%
X176565000Y-64477500D02*
X176565000Y-62002500D01*
%TO.N,SW_0*%
X171515000Y-64477500D02*
X171515000Y-62022500D01*
X171515000Y-62022500D02*
X171525000Y-62012500D01*
%TO.N,GND*%
X173240000Y-64477500D02*
X173240000Y-64180000D01*
X173240000Y-64180000D02*
X174040000Y-63380000D01*
X174035000Y-62035000D02*
X174035000Y-63375000D01*
X174035000Y-63375000D02*
X174040000Y-63380000D01*
X179135000Y-61975000D02*
X179135000Y-63355000D01*
X179135000Y-63355000D02*
X179150000Y-63370000D01*
X178290000Y-64477500D02*
X178290000Y-64230000D01*
X178290000Y-64230000D02*
X179150000Y-63370000D01*
X188495000Y-64477500D02*
X188495000Y-64205000D01*
X188495000Y-64205000D02*
X189350000Y-63350000D01*
X189325000Y-61992500D02*
X189325000Y-63325000D01*
X189325000Y-63325000D02*
X189350000Y-63350000D01*
X184215000Y-61965000D02*
X184215000Y-63345000D01*
X184215000Y-63345000D02*
X184240000Y-63370000D01*
X183370000Y-64477500D02*
X183370000Y-64240000D01*
X183370000Y-64240000D02*
X184240000Y-63370000D01*
D48*
%TO.N,+3V3*%
X170430000Y-84250000D02*
X171870000Y-82810000D01*
X171870000Y-82810000D02*
X171870000Y-70730000D01*
X160780000Y-73647500D02*
X160780000Y-72990000D01*
X160780000Y-72990000D02*
X161820000Y-71950000D01*
X161820000Y-71950000D02*
X165610000Y-71950000D01*
X165610000Y-71950000D02*
X167500000Y-70060000D01*
D49*
X154828500Y-75470000D02*
X156960000Y-75470000D01*
X156960000Y-75470000D02*
X158760000Y-73670000D01*
D48*
X156697500Y-71607500D02*
X158760000Y-73670000D01*
X155216000Y-71607500D02*
X156697500Y-71607500D01*
X158760000Y-73670000D02*
X160757500Y-73670000D01*
X160757500Y-73670000D02*
X160780000Y-73647500D01*
D50*
%TO.N,GND*%
X170030000Y-71970000D02*
X170030000Y-71160000D01*
X170030000Y-71160000D02*
X170050000Y-71140000D01*
D47*
%TO.N,+3V3*%
X169420000Y-83322500D02*
X169442500Y-83322500D01*
X169442500Y-83322500D02*
X170370000Y-84250000D01*
X170370000Y-84250000D02*
X170430000Y-84250000D01*
D48*
X169610000Y-85070000D02*
X170430000Y-84250000D01*
D47*
%TO.N,SENSOR_TICK*%
X135132500Y-94980000D02*
X143690000Y-94980000D01*
X143690000Y-94980000D02*
X149140000Y-89530000D01*
X149140000Y-89530000D02*
X170380000Y-89530000D01*
X170380000Y-89530000D02*
X170600000Y-89750000D01*
X170590000Y-76600000D02*
X170590000Y-82430000D01*
%TO.N,Net-(C39-Pad1)*%
X156850000Y-79110000D02*
X156850000Y-80862500D01*
X156850000Y-80862500D02*
X156877500Y-80890000D01*
%TO.N,Net-(C20-Pad1)*%
X156852500Y-77270000D02*
X158875000Y-77270000D01*
X158875000Y-77270000D02*
X158885000Y-77260000D01*
%TO.N,Net-(R18-Pad2)*%
X153016000Y-77757500D02*
X153377500Y-77757500D01*
X153377500Y-77757500D02*
X154730000Y-79110000D01*
X154730000Y-79110000D02*
X155125000Y-79110000D01*
%TO.N,Net-(R17-Pad2)*%
X153003500Y-75470000D02*
X153110000Y-75470000D01*
X153110000Y-75470000D02*
X154910000Y-77270000D01*
X154910000Y-77270000D02*
X155127500Y-77270000D01*
%TO.N,Net-(R23-Pad2)*%
X168205000Y-71970000D02*
X168205000Y-73902500D01*
X168205000Y-73902500D02*
X168170000Y-73937500D01*
X170017500Y-73890000D02*
X168217500Y-73890000D01*
X168217500Y-73890000D02*
X168170000Y-73937500D01*
X166390000Y-73930000D02*
X168162500Y-73930000D01*
X168162500Y-73930000D02*
X168170000Y-73937500D01*
%TO.N,SENSOR_TICK*%
X168170000Y-75762500D02*
X169752500Y-75762500D01*
X169752500Y-75762500D02*
X170590000Y-76600000D01*
%TO.N,Net-(R25-Pad2)*%
X167492500Y-81520000D02*
X169397500Y-81520000D01*
X169397500Y-81520000D02*
X169420000Y-81497500D01*
X167422500Y-83340000D02*
X167422500Y-81590000D01*
X167422500Y-81590000D02*
X167492500Y-81520000D01*
%TO.N,Net-(R19-Pad2)*%
X165120000Y-79180000D02*
X165120000Y-80972500D01*
X165120000Y-80972500D02*
X165667500Y-81520000D01*
X165697500Y-83340000D02*
X165697500Y-81550000D01*
X165697500Y-81550000D02*
X165667500Y-81520000D01*
%TO.N,Net-(R22-Pad2)*%
X161977500Y-83340000D02*
X161977500Y-81560000D01*
X161977500Y-81560000D02*
X161947500Y-81530000D01*
X161947500Y-81530000D02*
X162580000Y-80897500D01*
X162580000Y-80897500D02*
X162580000Y-79180000D01*
%TO.N,Net-(R20-Pad2)*%
X163772500Y-81530000D02*
X163772500Y-79257500D01*
X163772500Y-79257500D02*
X163850000Y-79180000D01*
X163702500Y-83340000D02*
X163702500Y-81600000D01*
X163702500Y-81600000D02*
X163772500Y-81530000D01*
%TO.N,SENSOR_TICK*%
X163850000Y-73930000D02*
X163850000Y-75902307D01*
X166750000Y-75760000D02*
X168167500Y-75760000D01*
X168167500Y-75760000D02*
X168170000Y-75762500D01*
X163850000Y-75902307D02*
X164727693Y-76780000D01*
X164727693Y-76780000D02*
X165730000Y-76780000D01*
X165730000Y-76780000D02*
X166750000Y-75760000D01*
%TO.N,Net-(R22-Pad2)*%
X165100000Y-75960000D02*
X165100000Y-73950000D01*
X165100000Y-73950000D02*
X165120000Y-73930000D01*
X162570000Y-79170000D02*
X161910000Y-79170000D01*
X162580000Y-79180000D02*
X162570000Y-79170000D01*
D48*
%TO.N,+3V3*%
X154400000Y-85070000D02*
X169610000Y-85070000D01*
D47*
%TO.N,Net-(R20-Pad2)*%
X163850000Y-79180000D02*
X163850000Y-78120000D01*
X163850000Y-78120000D02*
X163650000Y-77920000D01*
X163650000Y-77920000D02*
X161920000Y-77920000D01*
X161920000Y-77920000D02*
X158950000Y-80890000D01*
X158950000Y-80890000D02*
X158702500Y-80890000D01*
%TO.N,Net-(R19-Pad2)*%
X160710000Y-77260000D02*
X164420000Y-77260000D01*
X164420000Y-77260000D02*
X165120000Y-77960000D01*
X165120000Y-77960000D02*
X165120000Y-79180000D01*
D51*
%TO.N,Net-(F8-Pad1)*%
X139000000Y-129000000D02*
X141330000Y-129000000D01*
X141330000Y-129000000D02*
X141500000Y-128830000D01*
X141500000Y-128830000D02*
X141500000Y-127800000D01*
%TO.N,Net-(F6-Pad1)*%
X129000000Y-127800000D02*
X129000000Y-128560000D01*
X129000000Y-128560000D02*
X129000000Y-132150000D01*
X126500000Y-129000000D02*
X128560000Y-129000000D01*
X128560000Y-129000000D02*
X129000000Y-128560000D01*
%TO.N,Net-(F7-Pad1)*%
X116500000Y-127800000D02*
X116500000Y-128950000D01*
X114000000Y-129000000D02*
X116450000Y-129000000D01*
X116500000Y-128950000D02*
X116500000Y-132150000D01*
X116450000Y-129000000D02*
X116500000Y-128950000D01*
%TO.N,Net-(F5-Pad1)*%
X104000000Y-127900000D02*
X104000000Y-128900000D01*
X104000000Y-128900000D02*
X104000000Y-132150000D01*
X101500000Y-129100000D02*
X103800000Y-129100000D01*
X103800000Y-129100000D02*
X104000000Y-128900000D01*
%TO.N,Net-(F1-Pad1)*%
X154000000Y-127900000D02*
X154000000Y-129440000D01*
X154000000Y-129440000D02*
X154000000Y-132120000D01*
X151500000Y-129100000D02*
X153660000Y-129100000D01*
X153660000Y-129100000D02*
X154000000Y-129440000D01*
%TO.N,Net-(F3-Pad1)*%
X166500000Y-127900000D02*
X166500000Y-129710000D01*
X164000000Y-129100000D02*
X165890000Y-129100000D01*
X166500000Y-129710000D02*
X166500000Y-132204000D01*
X165890000Y-129100000D02*
X166500000Y-129710000D01*
%TO.N,Net-(F4-Pad1)*%
X191940000Y-127650000D02*
X191940000Y-129010000D01*
X191940000Y-129010000D02*
X191940000Y-132210000D01*
X189000000Y-129100000D02*
X191850000Y-129100000D01*
X191850000Y-129100000D02*
X191940000Y-129010000D01*
X192220000Y-124820000D02*
X192220000Y-127370000D01*
X192220000Y-127370000D02*
X191940000Y-127650000D01*
%TO.N,Net-(F2-Pad1)*%
X180076000Y-124820000D02*
X180076000Y-127074000D01*
X180076000Y-127074000D02*
X178940000Y-128210000D01*
X178940000Y-128210000D02*
X178940000Y-129120000D01*
X178940000Y-129120000D02*
X178940000Y-132210000D01*
X176500000Y-129100000D02*
X178920000Y-129100000D01*
X178920000Y-129100000D02*
X178940000Y-129120000D01*
D47*
%TO.N,CS2*%
X122180000Y-89590000D02*
X120120000Y-89590000D01*
X120120000Y-89590000D02*
X118810000Y-90900000D01*
X118810000Y-90900000D02*
X118810000Y-98570000D01*
X118810000Y-98570000D02*
X119540000Y-99300000D01*
X119540000Y-99300000D02*
X123930000Y-99300000D01*
%TO.N,Net-(R31-Pad1)*%
X184955000Y-84210000D02*
X184955000Y-80727500D01*
X184955000Y-80727500D02*
X184850000Y-80622500D01*
%TO.N,+3V3*%
X184850000Y-78797500D02*
X184930000Y-78717500D01*
X184930000Y-78717500D02*
X184930000Y-75320000D01*
%TO.N,Net-(FB24-Pad1)*%
X189325000Y-60267500D02*
X189280000Y-60222500D01*
X189280000Y-60222500D02*
X189280000Y-55380000D01*
%TO.N,Net-(FB23-Pad1)*%
X186755000Y-60280000D02*
X186740000Y-60265000D01*
X186740000Y-60265000D02*
X186740000Y-55380000D01*
%TO.N,Net-(FB22-Pad1)*%
X184215000Y-60240000D02*
X184200000Y-60225000D01*
X184200000Y-60225000D02*
X184200000Y-55380000D01*
%TO.N,Net-(FB21-Pad1)*%
X181655000Y-60240000D02*
X181660000Y-60235000D01*
X181660000Y-60235000D02*
X181660000Y-55380000D01*
%TO.N,Net-(FB20-Pad1)*%
X179135000Y-60250000D02*
X179120000Y-60235000D01*
X179120000Y-60235000D02*
X179120000Y-55380000D01*
%TO.N,Net-(FB19-Pad1)*%
X176565000Y-60277500D02*
X176580000Y-60262500D01*
X176580000Y-60262500D02*
X176580000Y-55380000D01*
%TO.N,Net-(FB18-Pad1)*%
X174035000Y-60310000D02*
X174040000Y-60305000D01*
X174040000Y-60305000D02*
X174040000Y-55380000D01*
%TO.N,Net-(FB17-Pad1)*%
X171525000Y-60287500D02*
X171500000Y-60262500D01*
X171500000Y-60262500D02*
X171500000Y-55380000D01*
%TO.N,SW_2*%
X181655000Y-62332500D02*
X181655000Y-61965000D01*
%TO.N,SW_0*%
X171525000Y-62332500D02*
X171525000Y-62012500D01*
%TO.N,Net-(SW1-Pad1)*%
X178602300Y-72312300D02*
X180094600Y-70820000D01*
X180094600Y-70820000D02*
X184930000Y-70820000D01*
X174170000Y-81930000D02*
X174170000Y-71750000D01*
X174170000Y-71750000D02*
X174010000Y-71590000D01*
%TO.N,Net-(FB11-Pad2)*%
X140241000Y-67115000D02*
X140241000Y-65959000D01*
X140241000Y-65959000D02*
X140241000Y-63383500D01*
X138890000Y-66095000D02*
X140105000Y-66095000D01*
X140105000Y-66095000D02*
X140241000Y-65959000D01*
X145216000Y-71970000D02*
X145216000Y-69710000D01*
X145216000Y-69710000D02*
X144701000Y-69195000D01*
X144701000Y-69195000D02*
X143391000Y-69195000D01*
X143391000Y-69195000D02*
X142151000Y-67955000D01*
X140241000Y-63383500D02*
X138890000Y-62032500D01*
X142151000Y-67955000D02*
X141081000Y-67955000D01*
X141081000Y-67955000D02*
X140241000Y-67115000D01*
%TO.N,Net-(FB10-Pad2)*%
X142781000Y-67089500D02*
X142781000Y-66071000D01*
X142781000Y-66071000D02*
X142781000Y-63383500D01*
X141430000Y-66095000D02*
X142757000Y-66095000D01*
X142757000Y-66095000D02*
X142781000Y-66071000D01*
X142781000Y-63383500D02*
X141430000Y-62032500D01*
%TO.N,Net-(FB9-Pad2)*%
X145866000Y-71970000D02*
X145866000Y-65974000D01*
X145866000Y-65974000D02*
X145866000Y-63888500D01*
X143980000Y-66095000D02*
X145745000Y-66095000D01*
X145745000Y-66095000D02*
X145866000Y-65974000D01*
X145866000Y-63888500D02*
X143970000Y-61992500D01*
%TO.N,Net-(FB15-Pad2)*%
X130041000Y-67100000D02*
X130041000Y-66009000D01*
X128740000Y-66095000D02*
X129955000Y-66095000D01*
X130041000Y-66009000D02*
X130041000Y-63343500D01*
X129955000Y-66095000D02*
X130041000Y-66009000D01*
%TO.N,Net-(FB14-Pad2)*%
X132611000Y-67097500D02*
X132611000Y-66049000D01*
X132611000Y-66049000D02*
X132611000Y-63353500D01*
X131280000Y-66095000D02*
X132565000Y-66095000D01*
X132565000Y-66095000D02*
X132611000Y-66049000D01*
%TO.N,Net-(FB13-Pad2)*%
X135161000Y-67089500D02*
X135161000Y-66111000D01*
X135161000Y-66111000D02*
X135161000Y-63363500D01*
X133810000Y-66095000D02*
X135145000Y-66095000D01*
X135145000Y-66095000D02*
X135161000Y-66111000D01*
%TO.N,Net-(FB12-Pad2)*%
X137701000Y-67089500D02*
X137701000Y-66099000D01*
X137701000Y-66099000D02*
X137701000Y-63373500D01*
X136350000Y-66095000D02*
X137697000Y-66095000D01*
X137697000Y-66095000D02*
X137701000Y-66099000D01*
X137701000Y-63373500D02*
X136350000Y-62022500D01*
%TO.N,Net-(FB13-Pad2)*%
X135161000Y-63363500D02*
X133810000Y-62012500D01*
%TO.N,Net-(FB14-Pad2)*%
X132611000Y-63353500D02*
X131280000Y-62022500D01*
%TO.N,Net-(FB15-Pad2)*%
X130041000Y-63343500D02*
X128730000Y-62032500D01*
%TO.N,Net-(FB16-Pad2)*%
X127531000Y-67110000D02*
X127531000Y-66281000D01*
X127531000Y-66281000D02*
X127531000Y-63353500D01*
X126220000Y-66095000D02*
X127345000Y-66095000D01*
X127345000Y-66095000D02*
X127531000Y-66281000D01*
X127531000Y-63353500D02*
X126210000Y-62032500D01*
D50*
%TO.N,GND*%
X138890000Y-64345000D02*
X138890000Y-63400000D01*
X136350000Y-64345000D02*
X136350000Y-63400000D01*
X133810000Y-64345000D02*
X133810000Y-63400000D01*
X131280000Y-64345000D02*
X131280000Y-63400000D01*
X128740000Y-64345000D02*
X128740000Y-63400000D01*
X126220000Y-64345000D02*
X126220000Y-63410000D01*
D47*
X126220000Y-63410000D02*
X126210000Y-63400000D01*
D50*
X141430000Y-64345000D02*
X141430000Y-63410000D01*
X141430000Y-63410000D02*
X141440000Y-63400000D01*
X143980000Y-64345000D02*
X143980000Y-63420000D01*
X143980000Y-63420000D02*
X144000000Y-63400000D01*
X147900000Y-64345000D02*
X147900000Y-63420000D01*
X147900000Y-63420000D02*
X147920000Y-63400000D01*
X150420000Y-64345000D02*
X150420000Y-63400000D01*
X153020000Y-64345000D02*
X153020000Y-63400000D01*
X155570000Y-64345000D02*
X155570000Y-63410000D01*
X155570000Y-63410000D02*
X155580000Y-63400000D01*
X158070000Y-64345000D02*
X158070000Y-63410000D01*
X158070000Y-63410000D02*
X158080000Y-63400000D01*
X160620000Y-64345000D02*
X160620000Y-63410000D01*
X160620000Y-63410000D02*
X160630000Y-63400000D01*
X163160000Y-64345000D02*
X163160000Y-63410000D01*
X163160000Y-63410000D02*
X163170000Y-63400000D01*
X165740000Y-64345000D02*
X165740000Y-63420000D01*
X165740000Y-63420000D02*
X165720000Y-63400000D01*
D47*
%TO.N,Net-(FB8-Pad2)*%
X146681000Y-68385000D02*
X146681000Y-66109000D01*
X146681000Y-66109000D02*
X146681000Y-63256500D01*
X146695000Y-66095000D02*
X146681000Y-66109000D01*
X147900000Y-66095000D02*
X146695000Y-66095000D01*
%TO.N,Net-(FB7-Pad2)*%
X149216000Y-67470000D02*
X149216000Y-66106000D01*
X149227000Y-66095000D02*
X149216000Y-66106000D01*
X149216000Y-66106000D02*
X149216000Y-63246500D01*
X150420000Y-66095000D02*
X149227000Y-66095000D01*
X146516000Y-71970000D02*
X146516000Y-70170000D01*
X146516000Y-70170000D02*
X149216000Y-67470000D01*
X149216000Y-63246500D02*
X150470000Y-61992500D01*
%TO.N,Net-(FB6-Pad2)*%
X152166000Y-67970000D02*
X152166000Y-66096000D01*
X152166000Y-66096000D02*
X152166000Y-62846500D01*
X153020000Y-66095000D02*
X152167000Y-66095000D01*
X152167000Y-66095000D02*
X152166000Y-66096000D01*
X152166000Y-62846500D02*
X153020000Y-61992500D01*
%TO.N,Net-(FB8-Pad2)*%
X146716000Y-68420000D02*
X146681000Y-68385000D01*
X146681000Y-63256500D02*
X147945000Y-61992500D01*
%TO.N,Net-(FB5-Pad2)*%
X154316000Y-68170000D02*
X154316000Y-65986000D01*
X154316000Y-65986000D02*
X154316000Y-63221500D01*
X155570000Y-66095000D02*
X154425000Y-66095000D01*
X154425000Y-66095000D02*
X154316000Y-65986000D01*
%TO.N,Net-(FB4-Pad2)*%
X156881000Y-67989000D02*
X156881000Y-66159000D01*
X156881000Y-66159000D02*
X156881000Y-63181500D01*
X158070000Y-66095000D02*
X156945000Y-66095000D01*
X156945000Y-66095000D02*
X156881000Y-66159000D01*
%TO.N,Net-(FB3-Pad2)*%
X159478500Y-67107500D02*
X159478500Y-66161500D01*
X159478500Y-66161500D02*
X159478500Y-63161500D01*
X160620000Y-66095000D02*
X159545000Y-66095000D01*
X159545000Y-66095000D02*
X159478500Y-66161500D01*
%TO.N,Net-(FB2-Pad2)*%
X162066000Y-67770000D02*
X162066000Y-66046000D01*
X162066000Y-66046000D02*
X162066000Y-63096500D01*
X163160000Y-66095000D02*
X162115000Y-66095000D01*
X162115000Y-66095000D02*
X162066000Y-66046000D01*
%TO.N,Net-(FB1-Pad2)*%
X164523500Y-67107500D02*
X164523500Y-66193500D01*
X164523500Y-66193500D02*
X164523500Y-63189000D01*
X165740000Y-66095000D02*
X164622000Y-66095000D01*
X164622000Y-66095000D02*
X164523500Y-66193500D01*
%TO.N,Net-(FB4-Pad2)*%
X155291000Y-68745000D02*
X156125000Y-68745000D01*
X156125000Y-68745000D02*
X156881000Y-67989000D01*
X156881000Y-63181500D02*
X158095000Y-61967500D01*
%TO.N,Net-(FB5-Pad2)*%
X147166000Y-71970000D02*
X147166000Y-70345000D01*
X147166000Y-70345000D02*
X148641000Y-68870000D01*
X148641000Y-68870000D02*
X153616000Y-68870000D01*
X153616000Y-68870000D02*
X154316000Y-68170000D01*
X154316000Y-63221500D02*
X155545000Y-61992500D01*
%TO.N,Net-(FB3-Pad2)*%
X147816000Y-71970000D02*
X147816000Y-70595000D01*
X147816000Y-70595000D02*
X148791000Y-69620000D01*
X148791000Y-69620000D02*
X156460000Y-69620000D01*
X158134802Y-68451198D02*
X159478500Y-67107500D01*
X156460000Y-69620000D02*
X157628802Y-68451198D01*
X157628802Y-68451198D02*
X158134802Y-68451198D01*
X159478500Y-63161500D02*
X160620000Y-62020000D01*
X160620000Y-62020000D02*
X160620000Y-61967500D01*
%TO.N,Net-(FB2-Pad2)*%
X160066000Y-68395000D02*
X161441000Y-68395000D01*
X161441000Y-68395000D02*
X162066000Y-67770000D01*
X162066000Y-63096500D02*
X163170000Y-61992500D01*
%TO.N,Net-(FB1-Pad2)*%
X164523500Y-63189000D02*
X165720000Y-61992500D01*
%TO.N,Net-(FB16-Pad1)*%
X126210000Y-60307500D02*
X126195000Y-60292500D01*
X126195000Y-60292500D02*
X126195000Y-55380000D01*
%TO.N,Net-(FB15-Pad1)*%
X128730000Y-60307500D02*
X128735000Y-60302500D01*
X128735000Y-60302500D02*
X128735000Y-55380000D01*
%TO.N,Net-(FB14-Pad1)*%
X131280000Y-60297500D02*
X131275000Y-60292500D01*
X131275000Y-60292500D02*
X131275000Y-55380000D01*
%TO.N,Net-(FB13-Pad1)*%
X133810000Y-60287500D02*
X133815000Y-60282500D01*
X133815000Y-60282500D02*
X133815000Y-55380000D01*
%TO.N,Net-(FB12-Pad1)*%
X136350000Y-60297500D02*
X136355000Y-60292500D01*
X136355000Y-60292500D02*
X136355000Y-55380000D01*
%TO.N,Net-(FB11-Pad1)*%
X138890000Y-60307500D02*
X138895000Y-60302500D01*
X138895000Y-60302500D02*
X138895000Y-55380000D01*
%TO.N,Net-(FB10-Pad1)*%
X141430000Y-60307500D02*
X141435000Y-60302500D01*
X141435000Y-60302500D02*
X141435000Y-55380000D01*
%TO.N,Net-(FB9-Pad1)*%
X143970000Y-60267500D02*
X143975000Y-60262500D01*
X143975000Y-60262500D02*
X143975000Y-55380000D01*
%TO.N,Net-(FB8-Pad1)*%
X147945000Y-60267500D02*
X147826000Y-60148500D01*
X147826000Y-60148500D02*
X147826000Y-55415000D01*
%TO.N,Net-(FB7-Pad1)*%
X150470000Y-60267500D02*
X150366000Y-60163500D01*
X150366000Y-60163500D02*
X150366000Y-55415000D01*
%TO.N,Net-(FB6-Pad1)*%
X153020000Y-60267500D02*
X152906000Y-60153500D01*
X152906000Y-60153500D02*
X152906000Y-55415000D01*
%TO.N,Net-(FB5-Pad1)*%
X155545000Y-60267500D02*
X155446000Y-60168500D01*
X155446000Y-60168500D02*
X155446000Y-55415000D01*
%TO.N,Net-(FB4-Pad1)*%
X158095000Y-60242500D02*
X157986000Y-60133500D01*
X157986000Y-60133500D02*
X157986000Y-55415000D01*
%TO.N,Net-(FB3-Pad1)*%
X160620000Y-60242500D02*
X160526000Y-60148500D01*
X160526000Y-60148500D02*
X160526000Y-55415000D01*
%TO.N,Net-(FB2-Pad1)*%
X163170000Y-60267500D02*
X163066000Y-60163500D01*
X163066000Y-60163500D02*
X163066000Y-55415000D01*
%TO.N,Net-(FB1-Pad1)*%
X165720000Y-60267500D02*
X165606000Y-60153500D01*
X165606000Y-60153500D02*
X165606000Y-55415000D01*
%TO.N,Net-(R25-Pad2)*%
X169420000Y-81497500D02*
X169420000Y-79542500D01*
D50*
%TO.N,GND*%
X169420000Y-77717500D02*
X169420000Y-76740000D01*
D52*
X160780000Y-75372500D02*
X161522500Y-75372500D01*
X161522500Y-75372500D02*
X161770000Y-75620000D01*
%TO.N,+3V3*%
X162317500Y-73667500D02*
X160840000Y-73667500D01*
X160840000Y-73667500D02*
X160830000Y-73657500D01*
D53*
%TO.N,GND*%
X128110000Y-91920000D02*
X128110000Y-92200000D01*
D50*
X137195000Y-107405000D02*
X137210000Y-107390000D01*
X120540000Y-93080000D02*
X121742500Y-93080000D01*
D49*
X143266000Y-73504000D02*
X141870000Y-74900000D01*
X104210000Y-87930000D02*
X105920000Y-87930000D01*
D52*
X121732000Y-113368000D02*
X121732000Y-112346500D01*
D50*
X127572500Y-82040000D02*
X127572500Y-82982500D01*
X166390000Y-79180000D02*
X166390000Y-77755000D01*
D49*
X104135000Y-74840000D02*
X105729000Y-74840000D01*
D52*
X158710000Y-113820000D02*
X159070000Y-113460000D01*
D49*
X149766000Y-77895000D02*
X150116000Y-77545000D01*
D47*
X154253500Y-73332500D02*
X154241000Y-73345000D01*
D54*
X121752500Y-95270000D02*
X121742500Y-95280000D01*
D49*
X149766000Y-79170000D02*
X149766000Y-77895000D01*
D53*
X133880000Y-93980000D02*
X133780000Y-93880000D01*
D50*
X118780000Y-87377500D02*
X118780000Y-88610000D01*
X105930000Y-87940000D02*
X105930000Y-87500000D01*
D52*
X146880000Y-112348500D02*
X146878000Y-112346500D01*
D53*
X135132500Y-93980000D02*
X133880000Y-93980000D01*
D50*
X122157500Y-91050000D02*
X122167500Y-91060000D01*
X139427500Y-101710000D02*
X139427500Y-102512500D01*
D47*
X105710000Y-87280000D02*
X105930000Y-87500000D01*
D50*
X121742500Y-93080000D02*
X121752500Y-93070000D01*
D47*
X105920000Y-87930000D02*
X105930000Y-87940000D01*
D48*
X122137500Y-96587500D02*
X121742500Y-96192500D01*
D53*
X135132500Y-91980000D02*
X133850000Y-91980000D01*
D55*
X135390000Y-87190000D02*
X135380000Y-87200000D01*
D52*
X146880000Y-113430000D02*
X146880000Y-112348500D01*
D50*
X120990000Y-91050000D02*
X122157500Y-91050000D01*
X127700000Y-102072500D02*
X127700000Y-103280000D01*
D52*
X183750000Y-115110000D02*
X183750000Y-113780000D01*
D53*
X133850000Y-91980000D02*
X133770000Y-91900000D01*
D50*
X139427500Y-102512500D02*
X139040000Y-102900000D01*
X135705000Y-107405000D02*
X137195000Y-107405000D01*
X121732500Y-95290000D02*
X121742500Y-95280000D01*
X139835000Y-92070000D02*
X140890000Y-92070000D01*
D53*
X127670000Y-91480000D02*
X128110000Y-91920000D01*
D52*
X171360000Y-115130000D02*
X171360000Y-113690000D01*
D50*
X122117500Y-97280000D02*
X122137500Y-97260000D01*
D52*
X146510000Y-113800000D02*
X146880000Y-113430000D01*
X108920000Y-114900000D02*
X108920000Y-113550000D01*
D50*
X127572500Y-82982500D02*
X127750000Y-83160000D01*
X105930000Y-89330000D02*
X105930000Y-88400000D01*
D52*
X109286000Y-113184000D02*
X109286000Y-112092500D01*
D47*
X105930000Y-87500000D02*
X105950000Y-87480000D01*
D49*
X104210000Y-87280000D02*
X105710000Y-87280000D01*
D54*
X121752500Y-93070000D02*
X121752500Y-95270000D01*
D52*
X195260000Y-115070000D02*
X195260000Y-113640000D01*
D47*
X192905000Y-88710000D02*
X189140000Y-88710000D01*
D52*
X159070000Y-113460000D02*
X159070000Y-112346500D01*
D55*
X134352500Y-87200000D02*
X135380000Y-87200000D01*
D50*
X105930000Y-88400000D02*
X105930000Y-87940000D01*
X140890000Y-92070000D02*
X140920000Y-92040000D01*
X110430000Y-87417500D02*
X110470000Y-87377500D01*
D52*
X133810000Y-115180000D02*
X133810000Y-113910000D01*
D49*
X104135000Y-74190000D02*
X105427000Y-74190000D01*
X105729000Y-74840000D02*
X105903000Y-74666000D01*
D52*
X171360000Y-113690000D02*
X171770000Y-113280000D01*
D49*
X105427000Y-74190000D02*
X105903000Y-74666000D01*
D50*
X153030000Y-80520000D02*
X153030000Y-79596500D01*
D52*
X195646000Y-113254000D02*
X195646000Y-112346500D01*
X184216000Y-113314000D02*
X184216000Y-112346500D01*
D50*
X134160000Y-82040000D02*
X133082500Y-82040000D01*
D52*
X195260000Y-113640000D02*
X195646000Y-113254000D01*
X121340000Y-115180000D02*
X121340000Y-113760000D01*
D47*
X189080000Y-88710000D02*
X189110000Y-88680000D01*
D52*
X158710000Y-115180000D02*
X158710000Y-113820000D01*
D50*
X128220000Y-83630000D02*
X127750000Y-83160000D01*
D48*
X121742500Y-96192500D02*
X121742500Y-95280000D01*
D50*
X153030000Y-79596500D02*
X153016000Y-79582500D01*
D56*
X153016000Y-73332500D02*
X154128500Y-73332500D01*
D52*
X183750000Y-113780000D02*
X184216000Y-113314000D01*
D47*
X161027500Y-75392500D02*
X161040000Y-75405000D01*
D52*
X171770000Y-113280000D02*
X171770000Y-112346500D01*
D50*
X105903000Y-76698000D02*
X105903000Y-75682000D01*
X121030000Y-97280000D02*
X122117500Y-97280000D01*
D47*
X154153500Y-73332500D02*
X154141000Y-73345000D01*
D52*
X108920000Y-113550000D02*
X109286000Y-113184000D01*
D48*
X122167500Y-91652500D02*
X122167500Y-91060000D01*
D49*
X143266000Y-71970000D02*
X143266000Y-73504000D01*
D47*
X126470000Y-85560000D02*
X126430000Y-85520000D01*
D50*
X110430000Y-88590000D02*
X110430000Y-87417500D01*
X126470000Y-86587500D02*
X126470000Y-85560000D01*
D52*
X133810000Y-113910000D02*
X134178000Y-113542000D01*
D50*
X105903000Y-75682000D02*
X105903000Y-74666000D01*
D47*
X154128500Y-73332500D02*
X154141000Y-73345000D01*
D48*
X121752500Y-93070000D02*
X121752500Y-92067500D01*
D50*
X114620000Y-90010000D02*
X114620000Y-85501000D01*
D48*
X121752500Y-92067500D02*
X122167500Y-91652500D01*
D50*
X128220000Y-84247500D02*
X128220000Y-83630000D01*
D52*
X121340000Y-113760000D02*
X121732000Y-113368000D01*
D47*
X189140000Y-88710000D02*
X189110000Y-88680000D01*
X154228500Y-73332500D02*
X154241000Y-73345000D01*
D52*
X146510000Y-115190000D02*
X146510000Y-113800000D01*
D48*
X122137500Y-97260000D02*
X122137500Y-96587500D01*
D50*
X120540000Y-95290000D02*
X121732500Y-95290000D01*
D52*
X134178000Y-113542000D02*
X134178000Y-112346500D01*
D50*
X114620000Y-85501000D02*
X114588000Y-85469000D01*
D53*
X126807500Y-91480000D02*
X127670000Y-91480000D01*
D47*
X184955000Y-88710000D02*
X189080000Y-88710000D01*
%TO.N,Net-(FB1-Pad2)*%
X163986000Y-69170000D02*
X164523500Y-68632500D01*
X157966000Y-69170000D02*
X163986000Y-69170000D01*
X164523500Y-68632500D02*
X164523500Y-67107500D01*
X156966000Y-70170000D02*
X157966000Y-69170000D01*
X164521000Y-67105000D02*
X164523500Y-67107500D01*
X149241000Y-70170000D02*
X156966000Y-70170000D01*
X148466000Y-70945000D02*
X149241000Y-70170000D01*
X148466000Y-71970000D02*
X148466000Y-70945000D01*
%TO.N,Net-(FB2-Pad2)*%
X160091000Y-68370000D02*
X160066000Y-68395000D01*
X149116000Y-79170000D02*
X149116000Y-75970000D01*
X149866000Y-75220000D02*
X149866000Y-74795000D01*
X149116000Y-75970000D02*
X149866000Y-75220000D01*
%TO.N,Net-(FB4-Pad2)*%
X148466000Y-79170000D02*
X148466000Y-75630718D01*
X149041000Y-75055718D02*
X149041000Y-73970000D01*
X158095000Y-61967500D02*
X158057500Y-61967500D01*
X148466000Y-75630718D02*
X149041000Y-75055718D01*
%TO.N,Net-(FB5-Pad2)*%
X155570000Y-62017500D02*
X155545000Y-61992500D01*
%TO.N,Net-(FB6-Pad2)*%
X147816000Y-75095000D02*
X148116000Y-74795000D01*
X153020000Y-61992500D02*
X153007500Y-61992500D01*
X147816000Y-79170000D02*
X147816000Y-75095000D01*
%TO.N,Net-(FB7-Pad2)*%
X150382500Y-61992500D02*
X150470000Y-61992500D01*
%TO.N,Net-(FB8-Pad2)*%
X147945000Y-61992500D02*
X147907500Y-61992500D01*
X147166000Y-74045000D02*
X147241000Y-73970000D01*
X147166000Y-79170000D02*
X147166000Y-74045000D01*
%TO.N,Net-(FB10-Pad2)*%
X146516000Y-74869500D02*
X146441500Y-74795000D01*
X143771000Y-68079500D02*
X142781000Y-67089500D01*
X143771000Y-68335000D02*
X143771000Y-68079500D01*
X146516000Y-79170000D02*
X146516000Y-74869500D01*
%TO.N,Net-(FB12-Pad2)*%
X139356500Y-68745000D02*
X137701000Y-67089500D01*
X145866000Y-75495000D02*
X145566000Y-75195000D01*
X141791000Y-68745000D02*
X139356500Y-68745000D01*
X145866000Y-79170000D02*
X145866000Y-75495000D01*
X145391000Y-74095000D02*
X145491000Y-73995000D01*
X145566000Y-75195000D02*
X145566000Y-73970000D01*
%TO.N,Net-(FB13-Pad2)*%
X144191000Y-69725000D02*
X141451000Y-69725000D01*
X137496500Y-69425000D02*
X135161000Y-67089500D01*
X144566000Y-71970000D02*
X144566000Y-70100000D01*
X144566000Y-70100000D02*
X144191000Y-69725000D01*
X141451000Y-69725000D02*
X141151000Y-69425000D01*
X141151000Y-69425000D02*
X137496500Y-69425000D01*
%TO.N,Net-(FB14-Pad2)*%
X135291000Y-68585000D02*
X134098500Y-68585000D01*
X144766000Y-75595000D02*
X144766000Y-74795000D01*
X145216000Y-76045000D02*
X144766000Y-75595000D01*
X145216000Y-79170000D02*
X145216000Y-76045000D01*
X134098500Y-68585000D02*
X132611000Y-67097500D01*
%TO.N,Net-(FB15-Pad2)*%
X131086000Y-68145000D02*
X130041000Y-67100000D01*
X132431000Y-68145000D02*
X131086000Y-68145000D01*
X143916000Y-70845000D02*
X143426000Y-70355000D01*
X137381000Y-70355000D02*
X136461000Y-69435000D01*
X133721000Y-69435000D02*
X132431000Y-68145000D01*
X136461000Y-69435000D02*
X133721000Y-69435000D01*
X143426000Y-70355000D02*
X137381000Y-70355000D01*
X143916000Y-71970000D02*
X143916000Y-70845000D01*
%TO.N,Net-(FB16-Pad2)*%
X130131000Y-68155000D02*
X128576000Y-68155000D01*
X137285000Y-71185000D02*
X136140000Y-70040000D01*
X133356000Y-70040000D02*
X132031000Y-68715000D01*
X144041000Y-75695000D02*
X144041000Y-73970000D01*
X132031000Y-68715000D02*
X130691000Y-68715000D01*
X144116000Y-75770000D02*
X144041000Y-75695000D01*
X140361000Y-71185000D02*
X137285000Y-71185000D01*
X130691000Y-68715000D02*
X130131000Y-68155000D01*
X128576000Y-68155000D02*
X127531000Y-67110000D01*
X144566000Y-79170000D02*
X144566000Y-76220000D01*
X136140000Y-70040000D02*
X133356000Y-70040000D01*
X144566000Y-76220000D02*
X144116000Y-75770000D01*
D52*
%TO.N,+3V3*%
X141152500Y-103097500D02*
X140655000Y-103595000D01*
D48*
X155216000Y-71607500D02*
X155228500Y-71595000D01*
D57*
X124737500Y-93980000D02*
X123827500Y-93070000D01*
X137700000Y-92480000D02*
X138110000Y-92070000D01*
D47*
X126807500Y-90980000D02*
X126807500Y-88650000D01*
X123892500Y-93005000D02*
X123827500Y-93070000D01*
D58*
X123892500Y-88732500D02*
X120462500Y-85302500D01*
D52*
X162317500Y-73667500D02*
X162580000Y-73930000D01*
D57*
X130880000Y-92480000D02*
X129989511Y-93370489D01*
D54*
X141152500Y-100917500D02*
X141152500Y-101710000D01*
D58*
X123892500Y-91060000D02*
X123892500Y-93005000D01*
X121340000Y-74590000D02*
X121340000Y-84425000D01*
D47*
X128220000Y-97892500D02*
X128220000Y-99827500D01*
D57*
X128749511Y-93370489D02*
X128749511Y-91819511D01*
D47*
X128220000Y-96980000D02*
X129989511Y-95210489D01*
D57*
X135132500Y-92480000D02*
X137700000Y-92480000D01*
D58*
X131780000Y-69760000D02*
X122570000Y-69760000D01*
D47*
X140655000Y-104865000D02*
X139125000Y-104865000D01*
D59*
X151366000Y-71970000D02*
X151728500Y-71607500D01*
D47*
X139125000Y-104865000D02*
X137855000Y-106135000D01*
X129856066Y-91456066D02*
X130880000Y-92480000D01*
X126807500Y-88650000D02*
X126470000Y-88312500D01*
X129766066Y-91456066D02*
X129856066Y-91456066D01*
X184930000Y-75320000D02*
X192880000Y-75320000D01*
D58*
X123892500Y-91060000D02*
X123892500Y-88732500D01*
D54*
X144660000Y-99120000D02*
X142950000Y-99120000D01*
X142950000Y-99120000D02*
X141152500Y-100917500D01*
D47*
X128220000Y-99827500D02*
X127700000Y-100347500D01*
D58*
X121320000Y-71010000D02*
X121320000Y-71630000D01*
D57*
X128749511Y-91819511D02*
X127925481Y-90995481D01*
X127925481Y-90995481D02*
X127560000Y-90995481D01*
X130880000Y-92480000D02*
X135132500Y-92480000D01*
D52*
X141152500Y-101710000D02*
X141152500Y-103097500D01*
D47*
X128220000Y-97892500D02*
X128220000Y-96980000D01*
D59*
X151728500Y-71607500D02*
X153016000Y-71607500D01*
D57*
X126807500Y-93980000D02*
X128140000Y-93980000D01*
D47*
X129989511Y-95210489D02*
X129989511Y-93370489D01*
D48*
X150360000Y-95260000D02*
X146410000Y-95260000D01*
D57*
X128140000Y-93980000D02*
X128749511Y-93370489D01*
D58*
X121340000Y-84425000D02*
X120462500Y-85302500D01*
X118780000Y-85302500D02*
X116167000Y-85302500D01*
D48*
X155216000Y-71607500D02*
X153016000Y-71607500D01*
D57*
X126807500Y-93980000D02*
X124737500Y-93980000D01*
D47*
X128720000Y-89567500D02*
X128720000Y-90410000D01*
D58*
X120462500Y-85302500D02*
X118780000Y-85302500D01*
D47*
X140655000Y-104865000D02*
X140655000Y-103595000D01*
D57*
X129989511Y-93370489D02*
X128749511Y-93370489D01*
D59*
X150416000Y-71970000D02*
X151366000Y-71970000D01*
D58*
X122570000Y-69760000D02*
X121320000Y-71010000D01*
D47*
X128720000Y-90410000D02*
X129766066Y-91456066D01*
D58*
X116167000Y-85302500D02*
X116088000Y-85381500D01*
D48*
X154280000Y-91340000D02*
X150360000Y-95260000D01*
D47*
X137855000Y-106135000D02*
X135705000Y-106135000D01*
%TO.N,SW_0*%
X171510000Y-62027500D02*
X171525000Y-62012500D01*
X171427500Y-64565000D02*
X171515000Y-64477500D01*
X171427500Y-66407500D02*
X171427500Y-64565000D01*
%TO.N,SW_1*%
X176527500Y-64515000D02*
X176565000Y-64477500D01*
X176560000Y-62007500D02*
X176565000Y-62002500D01*
X176527500Y-66387500D02*
X176527500Y-64515000D01*
%TO.N,SW_2*%
X181627500Y-66407500D02*
X181627500Y-64495000D01*
X181640000Y-61980000D02*
X181655000Y-61965000D01*
X181627500Y-64495000D02*
X181645000Y-64477500D01*
%TO.N,SW_3*%
X186777500Y-66387500D02*
X186777500Y-64485000D01*
X186777500Y-64485000D02*
X186770000Y-64477500D01*
D60*
%TO.N,+5V*%
X138380000Y-114300000D02*
X139462000Y-114300000D01*
X175120000Y-119500000D02*
X175120000Y-115180000D01*
X102466000Y-96354000D02*
X108040000Y-90780000D01*
D54*
X110470000Y-85302500D02*
X113009000Y-85302500D01*
D60*
X188640000Y-114300000D02*
X189246000Y-114300000D01*
X125290000Y-119500000D02*
X112720000Y-119500000D01*
X162680000Y-119500000D02*
X150210000Y-119500000D01*
X125290000Y-119500000D02*
X125290000Y-114840000D01*
X187300000Y-115640000D02*
X188640000Y-114300000D01*
D54*
X108520000Y-85960000D02*
X109177500Y-85302500D01*
D60*
X113130000Y-114300000D02*
X114570000Y-114300000D01*
X102245489Y-114178511D02*
X102378000Y-114046000D01*
D49*
X107900000Y-85340000D02*
X108520000Y-85960000D01*
D60*
X137800000Y-114880000D02*
X138380000Y-114300000D01*
X125290000Y-114840000D02*
X125830000Y-114300000D01*
X100791489Y-114178511D02*
X102245489Y-114178511D01*
X100791489Y-114178511D02*
X100791489Y-101912511D01*
X175120000Y-115180000D02*
X176000000Y-114300000D01*
X199160000Y-118640000D02*
X198300000Y-119500000D01*
X162680000Y-119500000D02*
X162680000Y-115080000D01*
X197315000Y-100215000D02*
X197815000Y-100215000D01*
X186000000Y-119500000D02*
X187300000Y-119500000D01*
D49*
X105380000Y-85330000D02*
X104140000Y-85330000D01*
D60*
X199160000Y-101560000D02*
X199160000Y-118640000D01*
D48*
X113088000Y-85381500D02*
X113088000Y-79964500D01*
D60*
X197815000Y-100215000D02*
X199160000Y-101560000D01*
X198300000Y-119500000D02*
X186000000Y-119500000D01*
X137800000Y-119500000D02*
X137800000Y-114880000D01*
X102466000Y-97698000D02*
X102466000Y-96354000D01*
D54*
X108520000Y-90300000D02*
X108520000Y-85960000D01*
D60*
X112720000Y-119500000D02*
X101740000Y-119500000D01*
X102466000Y-100238000D02*
X102466000Y-97698000D01*
X125830000Y-114300000D02*
X127016000Y-114300000D01*
D49*
X105390000Y-85340000D02*
X105380000Y-85330000D01*
D60*
X150210000Y-119500000D02*
X137800000Y-119500000D01*
X112720000Y-119500000D02*
X112720000Y-114710000D01*
X137800000Y-119500000D02*
X125290000Y-119500000D01*
X186000000Y-119500000D02*
X175120000Y-119500000D01*
X150210000Y-119500000D02*
X150210000Y-114910000D01*
X100791489Y-101912511D02*
X102466000Y-100238000D01*
X162680000Y-115080000D02*
X163460000Y-114300000D01*
X187300000Y-119500000D02*
X187300000Y-115640000D01*
X175120000Y-119500000D02*
X162680000Y-119500000D01*
X163460000Y-114300000D02*
X164608000Y-114300000D01*
X176000000Y-114300000D02*
X177038000Y-114300000D01*
D49*
X105390000Y-85340000D02*
X107900000Y-85340000D01*
D60*
X100791489Y-118551489D02*
X100791489Y-114178511D01*
D54*
X108040000Y-90780000D02*
X108520000Y-90300000D01*
D60*
X150210000Y-114910000D02*
X150820000Y-114300000D01*
D54*
X109177500Y-85302500D02*
X110470000Y-85302500D01*
D60*
X112720000Y-114710000D02*
X113130000Y-114300000D01*
X150820000Y-114300000D02*
X151924000Y-114300000D01*
D48*
X113088000Y-79964500D02*
X113030000Y-79906500D01*
D60*
X101740000Y-119500000D02*
X100791489Y-118551489D01*
X197315000Y-100215000D02*
X197315000Y-97675000D01*
D47*
%TO.N,Net-(C28-Pad1)*%
X131357500Y-82040000D02*
X131357500Y-81162500D01*
X131357500Y-81162500D02*
X132710000Y-79810000D01*
X129720000Y-83677500D02*
X131357500Y-82040000D01*
X129720000Y-89567500D02*
X129720000Y-83677500D01*
%TO.N,Net-(C29-Pad1)*%
X129297500Y-82040000D02*
X129297500Y-81277500D01*
X129297500Y-81277500D02*
X127830000Y-79810000D01*
X129220000Y-82117500D02*
X129297500Y-82040000D01*
X129220000Y-89567500D02*
X129220000Y-82117500D01*
D58*
%TO.N,Net-(C35-Pad1)*%
X123817500Y-97215000D02*
X123862500Y-97260000D01*
D47*
X131720000Y-91170000D02*
X131220000Y-91670000D01*
D58*
X123817500Y-95280000D02*
X123817500Y-97215000D01*
D47*
X128220000Y-90590000D02*
X129570000Y-91940000D01*
X128220000Y-89567500D02*
X128220000Y-90590000D01*
X130720000Y-93760000D02*
X130680000Y-93720000D01*
X131720000Y-87970000D02*
X132490000Y-87200000D01*
D57*
X126807500Y-94480000D02*
X124617500Y-94480000D01*
D47*
X131720000Y-89567500D02*
X131720000Y-87970000D01*
X129214030Y-94025970D02*
X128760000Y-94480000D01*
X130720000Y-97892500D02*
X130720000Y-93760000D01*
X132490000Y-87200000D02*
X132627500Y-87200000D01*
X128220000Y-89567500D02*
X128220000Y-85972500D01*
X128760000Y-94480000D02*
X126807500Y-94480000D01*
D57*
X124617500Y-94480000D02*
X123817500Y-95280000D01*
D47*
X129570000Y-91940000D02*
X129570000Y-92670000D01*
X131720000Y-89567500D02*
X131720000Y-91170000D01*
D50*
%TO.N,Net-(D1-Pad1)*%
X156972000Y-116537000D02*
X157610000Y-117175000D01*
X156972000Y-114413000D02*
X156972000Y-116537000D01*
D47*
X157610000Y-116800000D02*
X157235000Y-117175000D01*
X157235000Y-117175000D02*
X157610000Y-117175000D01*
X157610000Y-116426000D02*
X157610000Y-116800000D01*
D50*
%TO.N,Net-(D1-Pad2)*%
X155561000Y-112663000D02*
X153924000Y-114300000D01*
X156972000Y-112663000D02*
X155561000Y-112663000D01*
%TO.N,Net-(D2-Pad1)*%
X182118000Y-116702000D02*
X182616000Y-117200000D01*
X182118000Y-114413000D02*
X182118000Y-116702000D01*
%TO.N,Net-(D2-Pad2)*%
X182118000Y-112663000D02*
X180675000Y-112663000D01*
X180675000Y-112663000D02*
X179038000Y-114300000D01*
%TO.N,Net-(D3-Pad1)*%
X169672000Y-116687000D02*
X170160000Y-117175000D01*
X169672000Y-114413000D02*
X169672000Y-116687000D01*
%TO.N,Net-(D3-Pad2)*%
X169672000Y-112663000D02*
X168245000Y-112663000D01*
X168245000Y-112663000D02*
X166608000Y-114300000D01*
%TO.N,Net-(D4-Pad1)*%
X193920000Y-116360000D02*
X194760000Y-117200000D01*
X193548000Y-115968000D02*
X193920000Y-116340000D01*
X193548000Y-114413000D02*
X193548000Y-115968000D01*
X193920000Y-116340000D02*
X193920000Y-116360000D01*
%TO.N,Net-(D4-Pad2)*%
X191246000Y-114294000D02*
X192877000Y-112663000D01*
D47*
X191246000Y-114300000D02*
X191260000Y-114300000D01*
D50*
X191246000Y-114300000D02*
X191246000Y-114294000D01*
X192877000Y-112663000D02*
X193548000Y-112663000D01*
%TO.N,Net-(D5-Pad1)*%
X107188000Y-116653000D02*
X107660000Y-117125000D01*
X107188000Y-114159000D02*
X107188000Y-116653000D01*
%TO.N,Net-(D5-Pad2)*%
X107188000Y-112409000D02*
X106015000Y-112409000D01*
X106015000Y-112409000D02*
X104378000Y-114046000D01*
%TO.N,Net-(D6-Pad1)*%
X132080000Y-116545000D02*
X132710000Y-117175000D01*
X132080000Y-114413000D02*
X132080000Y-116545000D01*
%TO.N,Net-(D6-Pad2)*%
X130653000Y-112663000D02*
X129016000Y-114300000D01*
X132080000Y-112663000D02*
X130653000Y-112663000D01*
D52*
%TO.N,Net-(D7-Pad1)*%
X119610000Y-116525000D02*
X120260000Y-117175000D01*
X119610000Y-114437000D02*
X119610000Y-116525000D01*
X119634000Y-114413000D02*
X119610000Y-114437000D01*
D50*
%TO.N,Net-(D7-Pad2)*%
X118207000Y-112663000D02*
X116570000Y-114300000D01*
X119634000Y-112663000D02*
X118207000Y-112663000D01*
%TO.N,Net-(D8-Pad1)*%
X144780000Y-116720000D02*
X145235000Y-117175000D01*
X144780000Y-114413000D02*
X144780000Y-116720000D01*
%TO.N,Net-(D8-Pad2)*%
X143099000Y-112663000D02*
X141462000Y-114300000D01*
X144780000Y-112663000D02*
X143099000Y-112663000D01*
D51*
%TO.N,Net-(F1-Pad1)*%
X155070000Y-124795000D02*
X155070000Y-126830000D01*
X154000000Y-132120000D02*
X154090000Y-132210000D01*
X155070000Y-126830000D02*
X154000000Y-127900000D01*
%TO.N,Net-(F1-Pad2)*%
X153406600Y-143610000D02*
X153406600Y-137893400D01*
X153406600Y-137893400D02*
X154090000Y-137210000D01*
%TO.N,Net-(F2-Pad1)*%
X179000000Y-132150000D02*
X178940000Y-132210000D01*
%TO.N,Net-(F2-Pad2)*%
X178400000Y-143610000D02*
X178400000Y-137750000D01*
X178400000Y-137750000D02*
X178940000Y-137210000D01*
%TO.N,Net-(F3-Pad1)*%
X167620000Y-126780000D02*
X166500000Y-127900000D01*
X166500000Y-132204000D02*
X166370000Y-132334000D01*
X167620000Y-124795000D02*
X167620000Y-126780000D01*
%TO.N,Net-(F3-Pad2)*%
X165906600Y-137797400D02*
X166370000Y-137334000D01*
X165906600Y-143610000D02*
X165906600Y-137797400D01*
%TO.N,Net-(F4-Pad2)*%
X190900000Y-138250000D02*
X191940000Y-137210000D01*
X190900000Y-143610000D02*
X190900000Y-138250000D01*
%TO.N,Net-(F5-Pad1)*%
X104000000Y-132150000D02*
X103940000Y-132210000D01*
X105120000Y-124745000D02*
X105120000Y-126780000D01*
X105120000Y-126780000D02*
X104000000Y-127900000D01*
%TO.N,Net-(F5-Pad2)*%
X103400000Y-143610000D02*
X103400000Y-137750000D01*
X103400000Y-137750000D02*
X103940000Y-137210000D01*
%TO.N,Net-(F6-Pad1)*%
X129000000Y-132150000D02*
X128940000Y-132210000D01*
X130170000Y-126630000D02*
X129000000Y-127800000D01*
X130170000Y-124795000D02*
X130170000Y-126630000D01*
%TO.N,Net-(F6-Pad2)*%
X128400000Y-143610000D02*
X128400000Y-137750000D01*
X128400000Y-137750000D02*
X128940000Y-137210000D01*
%TO.N,Net-(F7-Pad1)*%
X116500000Y-132150000D02*
X116440000Y-132210000D01*
X117720000Y-124795000D02*
X117720000Y-126580000D01*
X117720000Y-126580000D02*
X116500000Y-127800000D01*
%TO.N,Net-(F7-Pad2)*%
X115900000Y-143610000D02*
X115900000Y-137750000D01*
X115900000Y-137750000D02*
X116440000Y-137210000D01*
%TO.N,Net-(F8-Pad1)*%
X142695000Y-126605000D02*
X141500000Y-127800000D01*
X141500000Y-127800000D02*
X141500000Y-132150000D01*
X141500000Y-132150000D02*
X141440000Y-132210000D01*
X142695000Y-124795000D02*
X142695000Y-126605000D01*
%TO.N,Net-(F8-Pad2)*%
X140900000Y-137750000D02*
X141440000Y-137210000D01*
X140900000Y-143610000D02*
X140900000Y-137750000D01*
D47*
%TO.N,Net-(J4-Pad2)*%
X140800000Y-99780000D02*
X140025184Y-99780000D01*
X147200000Y-99120000D02*
X146010000Y-97930000D01*
X138189695Y-101615489D02*
X137739897Y-101615489D01*
X133770000Y-101650000D02*
X132220000Y-100100000D01*
X140025184Y-99780000D02*
X138189695Y-101615489D01*
X132220000Y-100100000D02*
X132220000Y-97892500D01*
X146010000Y-97930000D02*
X142650000Y-97930000D01*
X142650000Y-97930000D02*
X140800000Y-99780000D01*
X137739897Y-101615489D02*
X137705386Y-101650000D01*
X137705386Y-101650000D02*
X133770000Y-101650000D01*
%TO.N,Net-(J4-Pad3)*%
X139890000Y-99180000D02*
X137979520Y-101090480D01*
X134060000Y-101090480D02*
X132720000Y-99750480D01*
X142150000Y-97420000D02*
X140390000Y-99180000D01*
X132720000Y-99750480D02*
X132720000Y-97892500D01*
X148040000Y-97420000D02*
X142150000Y-97420000D01*
X137979520Y-101090480D02*
X134060000Y-101090480D01*
X140390000Y-99180000D02*
X139890000Y-99180000D01*
X149740000Y-99120000D02*
X148040000Y-97420000D01*
%TO.N,CS2*%
X125820000Y-92980000D02*
X125560000Y-92720000D01*
X125580000Y-89570000D02*
X125560000Y-89590000D01*
X125560000Y-92720000D02*
X125560000Y-92590000D01*
X126807500Y-92980000D02*
X125820000Y-92980000D01*
X126380000Y-106220000D02*
X126380000Y-99050000D01*
X125560000Y-92590000D02*
X125560000Y-89590000D01*
X126380000Y-99050000D02*
X126560000Y-98870000D01*
X127190000Y-107030000D02*
X126380000Y-106220000D01*
X125750000Y-111182500D02*
X126647500Y-111182500D01*
X126647500Y-111182500D02*
X127210000Y-110620000D01*
%TO.N,CS3*%
X137630000Y-95480000D02*
X138640000Y-96490000D01*
X138660000Y-96300000D02*
X138660000Y-96255500D01*
X132900000Y-103330000D02*
X132900000Y-105800000D01*
X133980000Y-102250000D02*
X132900000Y-103330000D01*
X137800000Y-100130000D02*
X138650000Y-99280000D01*
X137290000Y-100130000D02*
X137800000Y-100130000D01*
X137950000Y-102250000D02*
X133980000Y-102250000D01*
X138640000Y-96490000D02*
X138650000Y-96490000D01*
X135132500Y-95480000D02*
X137630000Y-95480000D01*
X138040000Y-102340000D02*
X137950000Y-102250000D01*
%TO.N,MISO*%
X135095000Y-104865000D02*
X133200000Y-106760000D01*
X132040000Y-106760000D02*
X132040000Y-106700000D01*
X132040000Y-106700000D02*
X130800000Y-105460000D01*
X135705000Y-104865000D02*
X135095000Y-104865000D01*
X130800000Y-103870000D02*
X131220000Y-103450000D01*
X133200000Y-106760000D02*
X132040000Y-106760000D01*
X130800000Y-105460000D02*
X130800000Y-103870000D01*
X131220000Y-103450000D02*
X131220000Y-97892500D01*
%TO.N,MOSI*%
X138970000Y-108350000D02*
X131990000Y-108350000D01*
X131250000Y-107590000D02*
X130220000Y-106560000D01*
X139915000Y-107405000D02*
X138970000Y-108350000D01*
X140655000Y-107405000D02*
X139915000Y-107405000D01*
X131250000Y-107610000D02*
X131250000Y-107590000D01*
X130220000Y-106560000D02*
X130220000Y-97892500D01*
X131990000Y-108350000D02*
X131250000Y-107610000D01*
%TO.N,SCLK*%
X140655000Y-106135000D02*
X141685000Y-106135000D01*
X131070000Y-109100000D02*
X130400000Y-108430000D01*
X141310000Y-109100000D02*
X131070000Y-109100000D01*
X142250000Y-106700000D02*
X142250000Y-108160000D01*
X129720000Y-107750000D02*
X129720000Y-97892500D01*
X141685000Y-106135000D02*
X142250000Y-106700000D01*
X142250000Y-108160000D02*
X141310000Y-109100000D01*
X130400000Y-108430000D02*
X129720000Y-107750000D01*
D51*
%TO.N,Net-(OUT_0-Pad1)*%
X196528000Y-129100000D02*
X197358000Y-128270000D01*
X197358000Y-124878000D02*
X197300000Y-124820000D01*
X196500000Y-143090000D02*
X195980000Y-143610000D01*
X197358000Y-128270000D02*
X197358000Y-124878000D01*
X196500000Y-129100000D02*
X196500000Y-143090000D01*
X196500000Y-129100000D02*
X196528000Y-129100000D01*
%TO.N,Net-(OUT_1-Pad1)*%
X184000000Y-129100000D02*
X184000000Y-143090000D01*
X184000000Y-129100000D02*
X185156000Y-127944000D01*
X184000000Y-143090000D02*
X183480000Y-143610000D01*
X185156000Y-127944000D02*
X185156000Y-124820000D01*
%TO.N,Net-(OUT_2-Pad1)*%
X172700000Y-127900000D02*
X172700000Y-124795000D01*
X171500000Y-129100000D02*
X172700000Y-127900000D01*
X171500000Y-143096600D02*
X170986600Y-143610000D01*
X171500000Y-129100000D02*
X171500000Y-143096600D01*
%TO.N,Net-(OUT_3-Pad1)*%
X159000000Y-129100000D02*
X159000000Y-143096600D01*
X160150000Y-127950000D02*
X160150000Y-124795000D01*
X159000000Y-143096600D02*
X158486600Y-143610000D01*
X159000000Y-129100000D02*
X160150000Y-127950000D01*
%TO.N,Net-(OUT_4-Pad1)*%
X146500000Y-143090000D02*
X145980000Y-143610000D01*
X146500000Y-129000000D02*
X146500000Y-143090000D01*
X147775000Y-127725000D02*
X147775000Y-124795000D01*
X146500000Y-129000000D02*
X147775000Y-127725000D01*
%TO.N,Net-(OUT_5-Pad1)*%
X134000000Y-129000000D02*
X134144000Y-129000000D01*
X134000000Y-129000000D02*
X134000000Y-143090000D01*
X135250000Y-127894000D02*
X135250000Y-124795000D01*
X134000000Y-143090000D02*
X133480000Y-143610000D01*
X134144000Y-129000000D02*
X135250000Y-127894000D01*
%TO.N,Net-(OUT_6-Pad1)*%
X122800000Y-127700000D02*
X121500000Y-129000000D01*
X122800000Y-124795000D02*
X122800000Y-127700000D01*
X121500000Y-129000000D02*
X121500000Y-143090000D01*
X121500000Y-143090000D02*
X120980000Y-143610000D01*
%TO.N,Net-(OUT_7-Pad1)*%
X109000000Y-129100000D02*
X109000000Y-143090000D01*
X109000000Y-143090000D02*
X108480000Y-143610000D01*
X110200000Y-124745000D02*
X110200000Y-127900000D01*
X110200000Y-127900000D02*
X109000000Y-129100000D01*
D47*
%TO.N,OUT_3*%
X129997141Y-110230000D02*
X128720000Y-108952859D01*
X160970000Y-111980000D02*
X159220000Y-110230000D01*
X128720000Y-108952859D02*
X128720000Y-97892500D01*
X159220000Y-110230000D02*
X129997141Y-110230000D01*
X160970000Y-112346500D02*
X160970000Y-111980000D01*
D52*
%TO.N,Net-(Q2-Pad3)*%
X160030000Y-117055000D02*
X160150000Y-117175000D01*
X160030000Y-114231500D02*
X160030000Y-117055000D01*
X160020000Y-114221500D02*
X160030000Y-114231500D01*
D47*
%TO.N,OUT_1*%
X154460000Y-97950000D02*
X153390000Y-96880000D01*
X186116000Y-112046000D02*
X183230000Y-109160000D01*
X154460000Y-105350000D02*
X154460000Y-97950000D01*
X153390000Y-96880000D02*
X141653749Y-96880000D01*
X183230000Y-109160000D02*
X158270000Y-109160000D01*
X141653749Y-96880000D02*
X140103749Y-98430000D01*
X138210000Y-98430000D02*
X137450000Y-99190000D01*
X140103749Y-98430000D02*
X138210000Y-98430000D01*
X186116000Y-112346500D02*
X186116000Y-112046000D01*
X158270000Y-109160000D02*
X154460000Y-105350000D01*
X133220000Y-98810000D02*
X133220000Y-97892500D01*
X133600000Y-99190000D02*
X133220000Y-98810000D01*
X137450000Y-99190000D02*
X133600000Y-99190000D01*
D52*
%TO.N,Net-(Q3-Pad3)*%
X185156000Y-114231500D02*
X185156000Y-117200000D01*
X185166000Y-114221500D02*
X185156000Y-114231500D01*
D47*
%TO.N,OUT_2*%
X173670000Y-112346500D02*
X173670000Y-112010000D01*
X171391440Y-109731440D02*
X130441440Y-109731440D01*
X173670000Y-112010000D02*
X171391440Y-109731440D01*
X129220000Y-108510000D02*
X129220000Y-97892500D01*
X130441440Y-109731440D02*
X129220000Y-108510000D01*
D52*
%TO.N,Net-(Q4-Pad3)*%
X172700000Y-114241500D02*
X172700000Y-117175000D01*
X172720000Y-114221500D02*
X172700000Y-114241500D01*
D47*
%TO.N,OUT_0*%
X133720000Y-97892500D02*
X139737500Y-97892500D01*
X139737500Y-97892500D02*
X141320000Y-96310000D01*
X197546000Y-111866000D02*
X197546000Y-112346500D01*
X184600000Y-108580000D02*
X186580000Y-110560000D01*
X158495718Y-108580000D02*
X184600000Y-108580000D01*
X155030000Y-105114282D02*
X158495718Y-108580000D01*
X155030000Y-97750000D02*
X155030000Y-105114282D01*
X196240000Y-110560000D02*
X197546000Y-111866000D01*
X186580000Y-110560000D02*
X196240000Y-110560000D01*
X153590000Y-96310000D02*
X155030000Y-97750000D01*
X141320000Y-96310000D02*
X153590000Y-96310000D01*
D52*
%TO.N,Net-(Q5-Pad3)*%
X196596000Y-114221500D02*
X196596000Y-115056000D01*
X197300000Y-115760000D02*
X197300000Y-117200000D01*
X196596000Y-115056000D02*
X197300000Y-115760000D01*
D47*
%TO.N,OUT_7*%
X111710000Y-111170000D02*
X111186000Y-111694000D01*
X126807500Y-94980000D02*
X125510000Y-94980000D01*
X124770000Y-105560000D02*
X119160000Y-111170000D01*
X111186000Y-111694000D02*
X111186000Y-112092500D01*
X124770000Y-95720000D02*
X124770000Y-105560000D01*
X125510000Y-94980000D02*
X124770000Y-95720000D01*
X119160000Y-111170000D02*
X111710000Y-111170000D01*
D52*
%TO.N,Net-(Q6-Pad3)*%
X110200000Y-114003500D02*
X110200000Y-117125000D01*
X110236000Y-113967500D02*
X110200000Y-114003500D01*
D47*
%TO.N,OUT_5*%
X136078000Y-112346500D02*
X136078000Y-112018000D01*
X136078000Y-112018000D02*
X135280000Y-111220000D01*
X129070000Y-111220000D02*
X125740000Y-107890000D01*
X125740000Y-107890000D02*
X125740000Y-96230000D01*
X125740000Y-96230000D02*
X125990000Y-95980000D01*
X135280000Y-111220000D02*
X129070000Y-111220000D01*
X125990000Y-95980000D02*
X126807500Y-95980000D01*
D52*
%TO.N,Net-(Q7-Pad3)*%
X135140000Y-117065000D02*
X135250000Y-117175000D01*
X135128000Y-114221500D02*
X135140000Y-114233500D01*
X135140000Y-114233500D02*
X135140000Y-117065000D01*
D47*
%TO.N,OUT_6*%
X125260000Y-106200000D02*
X123632000Y-107828000D01*
X126807500Y-95480000D02*
X125730000Y-95480000D01*
X125260000Y-95950000D02*
X125260000Y-106200000D01*
X123632000Y-107828000D02*
X123632000Y-112346500D01*
X125730000Y-95480000D02*
X125260000Y-95950000D01*
D52*
%TO.N,Net-(Q8-Pad3)*%
X122650000Y-117025000D02*
X122800000Y-117175000D01*
X122682000Y-114221500D02*
X122650000Y-114253500D01*
X122650000Y-114253500D02*
X122650000Y-117025000D01*
D47*
%TO.N,OUT_4*%
X148778000Y-112346500D02*
X148778000Y-111908000D01*
X128150000Y-106500000D02*
X126880000Y-105230000D01*
X126807500Y-97737500D02*
X126807500Y-96480000D01*
X126880000Y-99820000D02*
X127490000Y-99210000D01*
X147600000Y-110730000D02*
X129559520Y-110730000D01*
X129559520Y-110730000D02*
X128150000Y-109320480D01*
X148778000Y-111908000D02*
X147600000Y-110730000D01*
X127490000Y-98420000D02*
X126807500Y-97737500D01*
X127490000Y-99210000D02*
X127490000Y-98420000D01*
X128150000Y-109320480D02*
X128150000Y-106500000D01*
X126880000Y-105230000D02*
X126880000Y-99820000D01*
D52*
%TO.N,Net-(Q9-Pad3)*%
X147775000Y-114274500D02*
X147775000Y-117175000D01*
X147828000Y-114221500D02*
X147775000Y-114274500D01*
D47*
%TO.N,Net-(R17-Pad2)*%
X149766000Y-71970000D02*
X149766000Y-73095000D01*
X149766000Y-73095000D02*
X152141000Y-75470000D01*
X152141000Y-75470000D02*
X153003500Y-75470000D01*
%TO.N,Net-(R18-Pad2)*%
X150416000Y-79170000D02*
X150416000Y-78595000D01*
X150416000Y-78595000D02*
X151253500Y-77757500D01*
X151253500Y-77757500D02*
X153016000Y-77757500D01*
%TO.N,Net-(R31-Pad1)*%
X135132500Y-94480000D02*
X143000000Y-94480000D01*
X184955000Y-84210000D02*
X192905000Y-84210000D01*
X148560000Y-88920000D02*
X172840000Y-88920000D01*
X143000000Y-94480000D02*
X148560000Y-88920000D01*
X172840000Y-88920000D02*
X177550000Y-84210000D01*
X177550000Y-84210000D02*
X184955000Y-84210000D01*
%TO.N,Net-(R32-Pad1)*%
X130720000Y-86590000D02*
X131950000Y-85360000D01*
X131950000Y-85360000D02*
X133180000Y-85360000D01*
X130720000Y-89567500D02*
X130720000Y-86590000D01*
%TO.N,Net-(R33-Pad1)*%
X130220000Y-85910000D02*
X132410000Y-83720000D01*
X130220000Y-89567500D02*
X130220000Y-85910000D01*
X132410000Y-83720000D02*
X133170000Y-83720000D01*
%TO.N,CS0*%
X125750000Y-109240000D02*
X124870000Y-108360000D01*
X131720000Y-100870000D02*
X131720000Y-97892500D01*
X125750000Y-109357500D02*
X125750000Y-109240000D01*
X134815000Y-103595000D02*
X134290000Y-103070000D01*
X132130000Y-102860000D02*
X132130000Y-104020000D01*
X132920000Y-102070000D02*
X131720000Y-100870000D01*
X134320000Y-100130000D02*
X134300000Y-100110000D01*
X132130000Y-104020000D02*
X131800000Y-104350000D01*
X135465000Y-100130000D02*
X134320000Y-100130000D01*
X132920000Y-102070000D02*
X132130000Y-102860000D01*
X135705000Y-103595000D02*
X134815000Y-103595000D01*
%TO.N,Net-(SW1-Pad1)*%
X131220000Y-87040000D02*
X132020000Y-86240000D01*
X138170000Y-86240000D02*
X140000000Y-84410000D01*
X144300000Y-85180000D02*
X145050000Y-85930000D01*
X184930000Y-70820000D02*
X192880000Y-70820000D01*
X170170000Y-85930000D02*
X174170000Y-81930000D01*
X132020000Y-86240000D02*
X138170000Y-86240000D01*
X131220000Y-89567500D02*
X131220000Y-87040000D01*
X145050000Y-85930000D02*
X170170000Y-85930000D01*
%TO.N,ASW_A2*%
X132950000Y-88490000D02*
X132720000Y-88720000D01*
X132720000Y-88720000D02*
X132720000Y-89567500D01*
X134850000Y-88800000D02*
X134540000Y-88490000D01*
X137950000Y-88800000D02*
X134850000Y-88800000D01*
X141966000Y-79170000D02*
X141966000Y-84784000D01*
X134540000Y-88490000D02*
X132950000Y-88490000D01*
X141966000Y-84784000D02*
X137950000Y-88800000D01*
%TO.N,ASW_A1*%
X133720000Y-89567500D02*
X138392500Y-89567500D01*
X138392500Y-89567500D02*
X142616000Y-85344000D01*
X142616000Y-85344000D02*
X142616000Y-79170000D01*
%TO.N,ASW_A0*%
X143266000Y-80946000D02*
X143450000Y-81130000D01*
X123210000Y-70690000D02*
X122780000Y-71120000D01*
X140580000Y-73740000D02*
X138640000Y-71800000D01*
X124835489Y-89890103D02*
X124835489Y-84605489D01*
X125460000Y-93480000D02*
X124930000Y-92950000D01*
X124930000Y-92950000D02*
X124930000Y-89984614D01*
X138640000Y-71800000D02*
X136915480Y-71800000D01*
X143266000Y-79170000D02*
X143266000Y-80946000D01*
X122800000Y-82570000D02*
X122800000Y-74610000D01*
X140580000Y-80640000D02*
X140580000Y-73740000D01*
X126807500Y-93480000D02*
X125460000Y-93480000D01*
X136915480Y-71800000D02*
X135805480Y-70690000D01*
X124930000Y-89984614D02*
X124835489Y-89890103D01*
X141090000Y-81150000D02*
X140580000Y-80640000D01*
X135805480Y-70690000D02*
X123210000Y-70690000D01*
X124835489Y-84605489D02*
X122800000Y-82570000D01*
X122780000Y-71120000D02*
X122780000Y-71860000D01*
%TO.N,ASW_EN*%
X137670000Y-88020000D02*
X140960000Y-84730000D01*
X143916000Y-79170000D02*
X143916000Y-80336000D01*
X144270000Y-80690000D02*
X144270000Y-82270000D01*
X132220000Y-89567500D02*
X132220000Y-88350000D01*
X144270000Y-82270000D02*
X144310000Y-82310000D01*
X140960000Y-84730000D02*
X140960000Y-82360000D01*
X143916000Y-80336000D02*
X144270000Y-80690000D01*
X132550000Y-88020000D02*
X137670000Y-88020000D01*
X132220000Y-88350000D02*
X132550000Y-88020000D01*
D49*
%TO.N,/mcu/USB+*%
X136530380Y-84220000D02*
X135495000Y-84220000D01*
X138285000Y-82465380D02*
X136530380Y-84220000D01*
X104135000Y-73540000D02*
X135260000Y-73540000D01*
X135495000Y-84220000D02*
X134995000Y-83720000D01*
X138285000Y-76564620D02*
X138285000Y-82465380D01*
X135260000Y-73540000D02*
X138287310Y-76567310D01*
D48*
%TO.N,Net-(J5-Pad1)*%
X113030000Y-74620000D02*
X113050000Y-74600000D01*
D54*
X107880000Y-69430000D02*
X111860000Y-69430000D01*
D49*
%TO.N,/mcu/USB-*%
X135532310Y-72882310D02*
X138927690Y-76277690D01*
D48*
%TO.N,Net-(J5-Pad1)*%
X113030000Y-78081500D02*
X113030000Y-74620000D01*
D49*
%TO.N,/mcu/USB-*%
X135495000Y-84870000D02*
X135005000Y-85360000D01*
%TO.N,Net-(J5-Pad1)*%
X104135000Y-72240000D02*
X105070000Y-72240000D01*
%TO.N,/mcu/USB-*%
X104135000Y-72890000D02*
X135524620Y-72890000D01*
D54*
%TO.N,Net-(J5-Pad1)*%
X111860000Y-69430000D02*
X113040000Y-70610000D01*
D49*
%TO.N,/mcu/USB-*%
X138935000Y-76295380D02*
X138935000Y-82734620D01*
X138935000Y-82734620D02*
X136799620Y-84870000D01*
X135524620Y-72890000D02*
X135532310Y-72882310D01*
X136799620Y-84870000D02*
X135495000Y-84870000D01*
D54*
%TO.N,Net-(J5-Pad1)*%
X113040000Y-70610000D02*
X113040000Y-71510000D01*
D49*
X105070000Y-72240000D02*
X107880000Y-69430000D01*
%TD*%
M02*
