M48
; DRILL file {KiCad (6.0.5)} date Mon 09 Oct 2023 09:12:21 PM
; FORMAT={-:-/ absolute / inch / decimal}
; #@! TF.CreationDate,2023-10-09T21:12:21-04:00
; #@! TF.GenerationSoftware,Kicad,Pcbnew,(6.0.5)
; #@! TF.FileFunction,MixedPlating,1,2
FMAT,2
INCH
; #@! TA.AperFunction,Plated,PTH,ViaDrill
T1C0.0118
; #@! TA.AperFunction,Plated,PTH,ViaDrill
T2C0.0157
; #@! TA.AperFunction,Plated,PTH,ComponentDrill
T3C0.0197
; #@! TA.AperFunction,Plated,PTH,ComponentDrill
T4C0.0217
; #@! TA.AperFunction,Plated,PTH,ComponentDrill
T5C0.0236
; #@! TA.AperFunction,Plated,PTH,ComponentDrill
T6C0.0315
; #@! TA.AperFunction,Plated,PTH,ComponentDrill
T7C0.0394
; #@! TA.AperFunction,Plated,PTH,ComponentDrill
T8C0.0500
; #@! TA.AperFunction,NonPlated,NPTH,ComponentDrill
T9C0.1260
%
G90
G05
T1
X5.0437Y-3.6299
X5.0872Y-3.7018
X5.1012Y-3.6484
X5.1449Y-3.6898
X5.1661Y-3.6091
X5.2638Y-3.6142
X5.2669Y-3.6961
T2
X4.1694Y-2.9396
X4.1694Y-2.9796
X4.1694Y-3.0196
X4.1705Y-3.4437
X4.1705Y-3.4803
X4.1705Y-3.5169
X4.2882Y-4.5236
X4.3476Y-3.4878
X4.4504Y-2.8209
X4.4508Y-2.937
X4.5126Y-3.5437
X4.6764Y-3.4886
X4.7457Y-3.6646
X4.7457Y-3.7516
X4.7634Y-3.5846
X4.765Y-3.8299
X4.7764Y-2.8201
X4.7772Y-2.9366
X4.7772Y-4.5346
X4.8102Y-3.5272
X4.8339Y-2.8291
X4.8346Y-2.9374
X4.8791Y-3.9094
X4.9161Y-4.2661
X4.9433Y-3.5272
X4.9787Y-3.3665
X4.9827Y-3.8925
X5.0075Y-4.2138
X5.0083Y-4.3551
X5.0209Y-2.5238
X5.0276Y-4.0661
X5.0295Y-3.274
X5.1197Y-2.5238
X5.1339Y-4.2689
X5.1673Y-4.2366
X5.1882Y-2.7465
X5.189Y-4.1083
X5.1984Y-4.2031
X5.2205Y-2.5234
X5.2323Y-4.1654
X5.2331Y-4.0185
X5.2681Y-4.5346
X5.2819Y-3.2299
X5.287Y-4.0579
X5.2874Y-3.9413
X5.3201Y-2.5234
X5.3264Y-2.7002
X5.3299Y-3.4331
X5.402Y-4.228
X5.4201Y-2.5226
X5.4346Y-4.0291
X5.4587Y-3.7988
X5.4587Y-3.9087
X5.474Y-4.0512
X5.5118Y-3.3232
X5.5205Y-2.5234
X5.526Y-2.8026
X5.548Y-3.6236
X5.5496Y-3.2425
X5.5547Y-3.1949
X5.5823Y-2.7065
X5.5854Y-2.9488
X5.6205Y-2.5238
X5.6476Y-3.1941
X5.6603Y-2.6904
X5.6709Y-2.9122
X5.6811Y-3.3535
X5.6815Y-3.2406
X5.6994Y-2.9447
X5.7205Y-2.5238
X5.7309Y-2.9122
X5.7634Y-2.9447
X5.7642Y-3.7504
X5.7681Y-4.535
X5.7762Y-2.6937
X5.7969Y-2.9122
X5.8229Y-2.5246
X5.8313Y-2.9447
X5.8678Y-2.9122
X5.9002Y-2.9447
X5.9101Y-3.053
X5.9221Y-2.5234
X5.9593Y-2.8335
X5.9908Y-2.676
X6.0244Y-2.5242
X6.0248Y-3.1701
X6.0685Y-2.8876
X6.074Y-3.5961
X6.0787Y-3.3492
X6.1138Y-2.7065
X6.1244Y-2.5238
X6.1496Y-3.335
X6.2233Y-2.5234
X6.2484Y-4.5346
X6.2709Y-3.3492
X6.2717Y-3.5551
X6.3018Y-2.6927
X6.3237Y-2.5242
X6.353Y-2.9909
X6.4248Y-2.5246
X6.4869Y-2.9014
X6.5244Y-2.5234
X6.5965Y-3.5524
X6.5969Y-3.3512
X6.661Y-2.9181
X6.6811Y-2.676
X6.6975Y-2.9939
X6.7465Y-4.5327
X6.7787Y-2.6543
X6.8193Y-2.9181
X6.8382Y-2.3579
X6.8421Y-2.5925
X6.8512Y-2.7539
X6.9063Y-2.5244
X6.9858Y-2.5272
X7.0374Y-2.7539
X7.0394Y-2.3579
X7.089Y-2.4874
X7.139Y-2.5406
X7.2343Y-2.3567
X7.2343Y-4.5319
X7.2512Y-2.5272
X7.3512Y-2.5295
X7.4331Y-2.3591
X7.4453Y-3.4913
X7.6874Y-4.5303
T5
X4.0945Y-5.0354
X4.2913Y-5.0827
X4.5866Y-5.0315
X4.7835Y-5.0787
X5.0787Y-5.0315
X5.2756Y-5.0787
X5.5709Y-5.0315
X5.7677Y-5.0787
X6.063Y-5.0354
X6.2598Y-5.0827
X6.5551Y-5.0354
X6.752Y-5.0827
X7.0472Y-5.0354
X7.2441Y-5.0827
X7.5394Y-5.0354
X7.7362Y-5.0827
T6
X4.0386Y-4.6112
X4.0386Y-4.9112
X4.1386Y-4.6112
X4.1386Y-4.9112
X4.2386Y-4.6112
X4.3386Y-4.6112
X4.3386Y-4.9112
X4.5346Y-4.6132
X4.5346Y-4.9132
X4.6346Y-4.6132
X4.6346Y-4.9132
X4.7346Y-4.6132
X4.8346Y-4.6132
X4.8346Y-4.9132
X5.0248Y-4.6132
X5.0248Y-4.9132
X5.0327Y-3.1421
X5.1248Y-4.6132
X5.1248Y-4.9132
X5.2248Y-3.1421
X5.2248Y-4.6132
X5.3248Y-4.6132
X5.3248Y-4.9132
X5.5179Y-4.6132
X5.5179Y-4.9132
X5.6179Y-4.6132
X5.6179Y-4.9132
X5.7179Y-4.6132
X5.8179Y-4.6132
X5.8179Y-4.9132
X6.0051Y-4.6132
X6.0051Y-4.9132
X6.1051Y-4.6132
X6.1051Y-4.9132
X6.2051Y-4.6132
X6.3051Y-4.6132
X6.3051Y-4.9132
X6.4992Y-4.6132
X6.4992Y-4.9132
X6.5992Y-4.6132
X6.5992Y-4.9132
X6.6992Y-4.6132
X6.7992Y-4.6132
X6.7992Y-4.9132
X6.9896Y-4.6142
X6.9896Y-4.9142
X7.0896Y-4.6142
X7.0896Y-4.9142
X7.1896Y-4.6142
X7.2896Y-4.6142
X7.2896Y-4.9142
X7.4677Y-4.6142
X7.4677Y-4.9142
X7.5677Y-4.6142
X7.5677Y-4.9142
X7.6677Y-4.6142
X7.7677Y-4.6142
X7.7677Y-4.9142
T7
X4.0341Y-3.8464
X4.0341Y-3.9464
X4.0341Y-4.0464
X4.0341Y-4.1464
X4.0341Y-4.2464
X4.0921Y-5.2051
X4.0921Y-5.402
X4.1341Y-3.8464
X4.1341Y-3.9464
X4.1341Y-4.0464
X4.1341Y-4.1464
X4.1341Y-4.2464
X4.5843Y-5.2051
X4.5843Y-5.402
X5.0176Y-2.1262
X5.0764Y-5.2051
X5.0764Y-5.402
X5.1176Y-2.1262
X5.2176Y-2.1262
X5.3176Y-2.1262
X5.4176Y-2.1262
X5.5176Y-2.1262
X5.5685Y-5.2051
X5.5685Y-5.402
X5.6176Y-2.1262
X5.6953Y-3.9024
X5.7176Y-2.1262
X5.7953Y-3.9024
X5.8221Y-2.1262
X5.8953Y-3.9024
X5.9221Y-2.1262
X5.9953Y-3.9024
X6.0221Y-2.1262
X6.0665Y-5.2051
X6.0665Y-5.402
X6.1221Y-2.1262
X6.2221Y-2.1262
X6.3221Y-2.1262
X6.4221Y-2.1262
X6.5221Y-2.1262
X6.55Y-5.21
X6.55Y-5.4069
X6.753Y-2.1258
X6.853Y-2.1258
X6.953Y-2.1258
X7.0449Y-5.2051
X7.0449Y-5.402
X7.053Y-2.1258
X7.153Y-2.1258
X7.253Y-2.1258
X7.353Y-2.1258
X7.453Y-2.1258
X7.5567Y-5.2051
X7.5567Y-5.402
X7.6683Y-3.8455
X7.6683Y-3.9455
X7.6683Y-4.0455
X7.6683Y-4.1455
X7.6683Y-4.2455
X7.7683Y-3.8455
X7.7683Y-3.9455
X7.7683Y-4.0455
X7.7683Y-4.1455
X7.7683Y-4.2455
T8
X4.0709Y-5.6539
X4.2709Y-5.6539
X4.563Y-5.6539
X4.763Y-5.6539
X5.0551Y-5.6539
X5.2551Y-5.6539
X5.5472Y-5.6539
X5.7472Y-5.6539
X6.0396Y-5.6539
X6.2396Y-5.6539
X6.5318Y-5.6539
X6.7318Y-5.6539
X7.0236Y-5.6539
X7.2236Y-5.6539
X7.5157Y-5.6539
X7.7157Y-5.6539
T9
X4.1339Y-2.1654
X4.5276Y-4.1339
X7.2835Y-4.1339
X7.6772Y-2.1654
T3
G00X4.0063Y-2.7575
M15
G01X3.9807Y-2.7575
M16
G05
G00X4.0063Y-3.0331
M15
G01X3.9807Y-3.0331
M16
G05
G00X4.0065Y-3.2728
M15
G01X3.9809Y-3.2728
M16
G05
G00X4.0065Y-3.5484
M15
G01X3.9809Y-3.5484
M16
G05
T4
G00X4.0998Y-2.7909
M15
G01X4.0998Y-2.8028
M16
G05
G00X4.0998Y-2.9878
M15
G01X4.0998Y-2.9996
M16
G05
G00X4.1Y-3.3063
M15
G01X4.1Y-3.3181
M16
G05
G00X4.1Y-3.5031
M15
G01X4.1Y-3.515
M16
G05
T0
M30
