%TF.GenerationSoftware,KiCad,Pcbnew,(6.0.5)*%
%TF.CreationDate,2023-11-15T16:50:55-05:00*%
%TF.ProjectId,solar-controller-2023,736f6c61-722d-4636-9f6e-74726f6c6c65,rev?*%
%TF.SameCoordinates,Original*%
%TF.FileFunction,Paste,Top*%
%TF.FilePolarity,Positive*%
%FSLAX46Y46*%
G04 Gerber Fmt 4.6, Leading zero omitted, Abs format (unit mm)*
G04 Created by KiCad (PCBNEW (6.0.5)) date 2023-11-15 16:50:55*
%MOMM*%
%LPD*%
G01*
G04 APERTURE LIST*
G04 Aperture macros list*
%AMRoundRect*
0 Rectangle with rounded corners*
0 $1 Rounding radius*
0 $2 $3 $4 $5 $6 $7 $8 $9 X,Y pos of 4 corners*
0 Add a 4 corners polygon primitive as box body*
4,1,4,$2,$3,$4,$5,$6,$7,$8,$9,$2,$3,0*
0 Add four circle primitives for the rounded corners*
1,1,$1+$1,$2,$3*
1,1,$1+$1,$4,$5*
1,1,$1+$1,$6,$7*
1,1,$1+$1,$8,$9*
0 Add four rect primitives between the rounded corners*
20,1,$1+$1,$2,$3,$4,$5,0*
20,1,$1+$1,$4,$5,$6,$7,0*
20,1,$1+$1,$6,$7,$8,$9,0*
20,1,$1+$1,$8,$9,$2,$3,0*%
G04 Aperture macros list end*
%ADD10RoundRect,0.237500X-0.300000X-0.237500X0.300000X-0.237500X0.300000X0.237500X-0.300000X0.237500X0*%
%ADD11RoundRect,0.237500X0.300000X0.237500X-0.300000X0.237500X-0.300000X-0.237500X0.300000X-0.237500X0*%
%ADD12R,0.900000X1.300000*%
%ADD13R,1.800000X3.200000*%
%ADD14RoundRect,0.237500X-0.237500X0.287500X-0.237500X-0.287500X0.237500X-0.287500X0.237500X0.287500X0*%
%ADD15RoundRect,0.237500X0.237500X-0.287500X0.237500X0.287500X-0.237500X0.287500X-0.237500X-0.287500X0*%
%ADD16RoundRect,0.237500X0.237500X-0.250000X0.237500X0.250000X-0.237500X0.250000X-0.237500X-0.250000X0*%
%ADD17RoundRect,0.150000X-0.825000X-0.150000X0.825000X-0.150000X0.825000X0.150000X-0.825000X0.150000X0*%
%ADD18RoundRect,0.237500X-0.250000X-0.237500X0.250000X-0.237500X0.250000X0.237500X-0.250000X0.237500X0*%
%ADD19R,0.450000X1.750000*%
%ADD20O,1.550000X0.890000*%
%ADD21O,0.950000X1.250000*%
%ADD22R,1.350000X0.400000*%
%ADD23R,1.550000X1.500000*%
%ADD24R,1.550000X1.200000*%
%ADD25RoundRect,0.237500X-0.237500X0.300000X-0.237500X-0.300000X0.237500X-0.300000X0.237500X0.300000X0*%
%ADD26RoundRect,0.237500X0.250000X0.237500X-0.250000X0.237500X-0.250000X-0.237500X0.250000X-0.237500X0*%
%ADD27RoundRect,0.150000X-0.150000X0.587500X-0.150000X-0.587500X0.150000X-0.587500X0.150000X0.587500X0*%
%ADD28R,1.550000X1.300000*%
%ADD29RoundRect,0.250000X-0.350000X-0.450000X0.350000X-0.450000X0.350000X0.450000X-0.350000X0.450000X0*%
%ADD30RoundRect,0.250000X0.337500X0.475000X-0.337500X0.475000X-0.337500X-0.475000X0.337500X-0.475000X0*%
%ADD31RoundRect,0.237500X0.237500X-0.300000X0.237500X0.300000X-0.237500X0.300000X-0.237500X-0.300000X0*%
%ADD32RoundRect,0.150000X0.150000X-0.675000X0.150000X0.675000X-0.150000X0.675000X-0.150000X-0.675000X0*%
%ADD33RoundRect,0.250000X0.475000X-0.337500X0.475000X0.337500X-0.475000X0.337500X-0.475000X-0.337500X0*%
%ADD34RoundRect,0.237500X-0.237500X0.250000X-0.237500X-0.250000X0.237500X-0.250000X0.237500X0.250000X0*%
%ADD35RoundRect,0.075000X-0.662500X-0.075000X0.662500X-0.075000X0.662500X0.075000X-0.662500X0.075000X0*%
%ADD36RoundRect,0.075000X-0.075000X-0.662500X0.075000X-0.662500X0.075000X0.662500X-0.075000X0.662500X0*%
G04 APERTURE END LIST*
D10*
%TO.C,C2*%
X161977500Y-83340000D03*
X163702500Y-83340000D03*
%TD*%
D11*
%TO.C,C1*%
X167422500Y-83340000D03*
X165697500Y-83340000D03*
%TD*%
D12*
%TO.C,U6*%
X116088000Y-85381500D03*
D13*
X114588000Y-88031500D03*
D12*
X114588000Y-85331500D03*
X113088000Y-85381500D03*
%TD*%
D14*
%TO.C,TVS16*%
X126220000Y-64345000D03*
X126220000Y-66095000D03*
%TD*%
D15*
%TO.C,TVS15*%
X128740000Y-66095000D03*
X128740000Y-64345000D03*
%TD*%
D14*
%TO.C,TVS14*%
X131280000Y-64345000D03*
X131280000Y-66095000D03*
%TD*%
D15*
%TO.C,TVS13*%
X133810000Y-66095000D03*
X133810000Y-64345000D03*
%TD*%
D14*
%TO.C,TVS12*%
X136350000Y-66095000D03*
X136350000Y-64345000D03*
%TD*%
D15*
%TO.C,TVS11*%
X138890000Y-66095000D03*
X138890000Y-64345000D03*
%TD*%
D14*
%TO.C,TVS10*%
X141430000Y-64345000D03*
X141430000Y-66095000D03*
%TD*%
D15*
%TO.C,TVS9*%
X143980000Y-66095000D03*
X143980000Y-64345000D03*
%TD*%
D14*
%TO.C,TVS8*%
X147900000Y-64345000D03*
X147900000Y-66095000D03*
%TD*%
D15*
%TO.C,TVS7*%
X150420000Y-64345000D03*
X150420000Y-66095000D03*
%TD*%
D14*
%TO.C,TVS6*%
X153020000Y-64345000D03*
X153020000Y-66095000D03*
%TD*%
D15*
%TO.C,TVS5*%
X155570000Y-66095000D03*
X155570000Y-64345000D03*
%TD*%
D14*
%TO.C,TVS4*%
X158070000Y-64345000D03*
X158070000Y-66095000D03*
%TD*%
D15*
%TO.C,TVS3*%
X160620000Y-66095000D03*
X160620000Y-64345000D03*
%TD*%
D14*
%TO.C,TVS2*%
X163160000Y-66095000D03*
X163160000Y-64345000D03*
%TD*%
D15*
%TO.C,TVS1*%
X165740000Y-66095000D03*
X165740000Y-64345000D03*
%TD*%
D16*
%TO.C,R45*%
X168170000Y-73937500D03*
X168170000Y-75762500D03*
%TD*%
D11*
%TO.C,C39*%
X156850000Y-79110000D03*
X155125000Y-79110000D03*
%TD*%
D17*
%TO.C,U4*%
X135705000Y-103595000D03*
X135705000Y-104865000D03*
X135705000Y-106135000D03*
X135705000Y-107405000D03*
X140655000Y-107405000D03*
X140655000Y-106135000D03*
X140655000Y-104865000D03*
X140655000Y-103595000D03*
%TD*%
D15*
%TO.C,D5*%
X107188000Y-114159000D03*
X107188000Y-112409000D03*
%TD*%
D18*
%TO.C,R30*%
X186777500Y-66387500D03*
X188602500Y-66387500D03*
%TD*%
D19*
%TO.C,U1*%
X150416000Y-71970000D03*
X149766000Y-71970000D03*
X149116000Y-71970000D03*
X148466000Y-71970000D03*
X147816000Y-71970000D03*
X147166000Y-71970000D03*
X146516000Y-71970000D03*
X145866000Y-71970000D03*
X145216000Y-71970000D03*
X144566000Y-71970000D03*
X143916000Y-71970000D03*
X143266000Y-71970000D03*
X142616000Y-71970000D03*
X141966000Y-71970000D03*
X141966000Y-79170000D03*
X142616000Y-79170000D03*
X143266000Y-79170000D03*
X143916000Y-79170000D03*
X144566000Y-79170000D03*
X145216000Y-79170000D03*
X145866000Y-79170000D03*
X146516000Y-79170000D03*
X147166000Y-79170000D03*
X147816000Y-79170000D03*
X148466000Y-79170000D03*
X149116000Y-79170000D03*
X149766000Y-79170000D03*
X150416000Y-79170000D03*
%TD*%
D20*
%TO.C,J8*%
X101440000Y-90130000D03*
D21*
X104140000Y-89130000D03*
X104140000Y-84130000D03*
D20*
X101440000Y-83130000D03*
D22*
X104140000Y-85330000D03*
X104140000Y-85980000D03*
X104140000Y-86630000D03*
X104140000Y-87280000D03*
X104140000Y-87930000D03*
D23*
X101440000Y-85630000D03*
X101440000Y-87630000D03*
D24*
X101440000Y-89530000D03*
X101440000Y-83730000D03*
%TD*%
D16*
%TO.C,R25*%
X169420000Y-83322500D03*
X169420000Y-81497500D03*
%TD*%
D25*
%TO.C,FB23*%
X186755000Y-60280000D03*
X186755000Y-62005000D03*
%TD*%
D15*
%TO.C,D4*%
X193548000Y-114413000D03*
X193548000Y-112663000D03*
%TD*%
D25*
%TO.C,FB18*%
X174035000Y-60310000D03*
X174035000Y-62035000D03*
%TD*%
D10*
%TO.C,C23*%
X181645000Y-64477500D03*
X183370000Y-64477500D03*
%TD*%
%TO.C,C22*%
X176565000Y-64477500D03*
X178290000Y-64477500D03*
%TD*%
D15*
%TO.C,D6*%
X132080000Y-114413000D03*
X132080000Y-112663000D03*
%TD*%
D25*
%TO.C,FB19*%
X176565000Y-60277500D03*
X176565000Y-62002500D03*
%TD*%
D26*
%TO.C,R17*%
X154828500Y-75470000D03*
X153003500Y-75470000D03*
%TD*%
D10*
%TO.C,C37*%
X132627500Y-87200000D03*
X134352500Y-87200000D03*
%TD*%
D25*
%TO.C,FB12*%
X136350000Y-60297500D03*
X136350000Y-62022500D03*
%TD*%
D18*
%TO.C,R35*%
X135465000Y-100130000D03*
X137290000Y-100130000D03*
%TD*%
%TO.C,R20*%
X156877500Y-80890000D03*
X158702500Y-80890000D03*
%TD*%
D27*
%TO.C,Q7*%
X136078000Y-112346500D03*
X134178000Y-112346500D03*
X135128000Y-114221500D03*
%TD*%
D25*
%TO.C,FB16*%
X126210000Y-60307500D03*
X126210000Y-62032500D03*
%TD*%
D16*
%TO.C,R26*%
X169420000Y-79542500D03*
X169420000Y-77717500D03*
%TD*%
D28*
%TO.C,SW2*%
X184955000Y-84210000D03*
X192905000Y-84210000D03*
X192905000Y-88710000D03*
X184955000Y-88710000D03*
%TD*%
D27*
%TO.C,Q6*%
X111186000Y-112092500D03*
X109286000Y-112092500D03*
X110236000Y-113967500D03*
%TD*%
D10*
%TO.C,C24*%
X186770000Y-64477500D03*
X188495000Y-64477500D03*
%TD*%
D25*
%TO.C,FB6*%
X153020000Y-60267500D03*
X153020000Y-61992500D03*
%TD*%
%TO.C,FB20*%
X179135000Y-60250000D03*
X179135000Y-61975000D03*
%TD*%
%TO.C,FB22*%
X184215000Y-60240000D03*
X184215000Y-61965000D03*
%TD*%
D26*
%TO.C,R21*%
X167492500Y-81520000D03*
X165667500Y-81520000D03*
%TD*%
D11*
%TO.C,C29*%
X129297500Y-82040000D03*
X127572500Y-82040000D03*
%TD*%
D25*
%TO.C,FB2*%
X163170000Y-60267500D03*
X163170000Y-61992500D03*
%TD*%
D18*
%TO.C,R29*%
X181627500Y-66407500D03*
X183452500Y-66407500D03*
%TD*%
D29*
%TO.C,R37*%
X177038000Y-114300000D03*
X179038000Y-114300000D03*
%TD*%
D30*
%TO.C,C34*%
X123827500Y-93070000D03*
X121752500Y-93070000D03*
%TD*%
D25*
%TO.C,FB5*%
X155545000Y-60267500D03*
X155545000Y-61992500D03*
%TD*%
D29*
%TO.C,R39*%
X189246000Y-114300000D03*
X191246000Y-114300000D03*
%TD*%
D31*
%TO.C,C38*%
X128220000Y-85972500D03*
X128220000Y-84247500D03*
%TD*%
D29*
%TO.C,R42*%
X114570000Y-114300000D03*
X116570000Y-114300000D03*
%TD*%
D25*
%TO.C,FB9*%
X143970000Y-60267500D03*
X143970000Y-61992500D03*
%TD*%
%TO.C,FB8*%
X147945000Y-60267500D03*
X147945000Y-61992500D03*
%TD*%
%TO.C,FB11*%
X138890000Y-60307500D03*
X138890000Y-62032500D03*
%TD*%
D16*
%TO.C,R31*%
X184850000Y-80622500D03*
X184850000Y-78797500D03*
%TD*%
D18*
%TO.C,R28*%
X178352500Y-66387500D03*
X176527500Y-66387500D03*
%TD*%
D31*
%TO.C,C32*%
X126470000Y-88312500D03*
X126470000Y-86587500D03*
%TD*%
D27*
%TO.C,Q8*%
X123632000Y-112346500D03*
X121732000Y-112346500D03*
X122682000Y-114221500D03*
%TD*%
D32*
%TO.C,U3*%
X162580000Y-79180000D03*
X163850000Y-79180000D03*
X165120000Y-79180000D03*
X166390000Y-79180000D03*
X166390000Y-73930000D03*
X165120000Y-73930000D03*
X163850000Y-73930000D03*
X162580000Y-73930000D03*
%TD*%
D11*
%TO.C,C25*%
X141152500Y-101710000D03*
X139427500Y-101710000D03*
%TD*%
D21*
%TO.C,J5*%
X104135000Y-71040000D03*
D20*
X101435000Y-77040000D03*
D21*
X104135000Y-76040000D03*
D20*
X101435000Y-70040000D03*
D22*
X104135000Y-72240000D03*
X104135000Y-72890000D03*
X104135000Y-73540000D03*
X104135000Y-74190000D03*
X104135000Y-74840000D03*
D24*
X101435000Y-76440000D03*
D23*
X101435000Y-72540000D03*
X101435000Y-74540000D03*
D24*
X101435000Y-70640000D03*
%TD*%
D29*
%TO.C,R41*%
X127016000Y-114300000D03*
X129016000Y-114300000D03*
%TD*%
D28*
%TO.C,SW1*%
X184930000Y-70820000D03*
X192880000Y-70820000D03*
X184930000Y-75320000D03*
X192880000Y-75320000D03*
%TD*%
D25*
%TO.C,FB3*%
X160620000Y-60242500D03*
X160620000Y-61967500D03*
%TD*%
%TO.C,FB14*%
X131280000Y-60297500D03*
X131280000Y-62022500D03*
%TD*%
D33*
%TO.C,C26*%
X110470000Y-87377500D03*
X110470000Y-85302500D03*
%TD*%
D15*
%TO.C,D2*%
X182118000Y-114413000D03*
X182118000Y-112663000D03*
%TD*%
D34*
%TO.C,R44*%
X113030000Y-78081500D03*
X113030000Y-79906500D03*
%TD*%
D18*
%TO.C,R19*%
X158885000Y-77260000D03*
X160710000Y-77260000D03*
%TD*%
%TO.C,R33*%
X133170000Y-83720000D03*
X134995000Y-83720000D03*
%TD*%
D11*
%TO.C,C36*%
X123862500Y-97260000D03*
X122137500Y-97260000D03*
%TD*%
D25*
%TO.C,C19*%
X160780000Y-75372500D03*
X160780000Y-73647500D03*
%TD*%
D35*
%TO.C,U5*%
X126807500Y-90980000D03*
X126807500Y-91480000D03*
X126807500Y-91980000D03*
X126807500Y-92480000D03*
X126807500Y-92980000D03*
X126807500Y-93480000D03*
X126807500Y-93980000D03*
X126807500Y-94480000D03*
X126807500Y-94980000D03*
X126807500Y-95480000D03*
X126807500Y-95980000D03*
X126807500Y-96480000D03*
D36*
X128220000Y-97892500D03*
X128720000Y-97892500D03*
X129220000Y-97892500D03*
X129720000Y-97892500D03*
X130220000Y-97892500D03*
X130720000Y-97892500D03*
X131220000Y-97892500D03*
X131720000Y-97892500D03*
X132220000Y-97892500D03*
X132720000Y-97892500D03*
X133220000Y-97892500D03*
X133720000Y-97892500D03*
D35*
X135132500Y-96480000D03*
X135132500Y-95980000D03*
X135132500Y-95480000D03*
X135132500Y-94980000D03*
X135132500Y-94480000D03*
X135132500Y-93980000D03*
X135132500Y-93480000D03*
X135132500Y-92980000D03*
X135132500Y-92480000D03*
X135132500Y-91980000D03*
X135132500Y-91480000D03*
X135132500Y-90980000D03*
D36*
X133720000Y-89567500D03*
X133220000Y-89567500D03*
X132720000Y-89567500D03*
X132220000Y-89567500D03*
X131720000Y-89567500D03*
X131220000Y-89567500D03*
X130720000Y-89567500D03*
X130220000Y-89567500D03*
X129720000Y-89567500D03*
X129220000Y-89567500D03*
X128720000Y-89567500D03*
X128220000Y-89567500D03*
%TD*%
D30*
%TO.C,C35*%
X123817500Y-95280000D03*
X121742500Y-95280000D03*
%TD*%
D25*
%TO.C,FB13*%
X133810000Y-60287500D03*
X133810000Y-62012500D03*
%TD*%
%TO.C,FB17*%
X171525000Y-60287500D03*
X171525000Y-62012500D03*
%TD*%
D26*
%TO.C,R22*%
X161947500Y-81530000D03*
X163772500Y-81530000D03*
%TD*%
D10*
%TO.C,C21*%
X171515000Y-64477500D03*
X173240000Y-64477500D03*
%TD*%
D18*
%TO.C,R24*%
X168205000Y-71970000D03*
X170030000Y-71970000D03*
%TD*%
D16*
%TO.C,R18*%
X153016000Y-77757500D03*
X153016000Y-79582500D03*
%TD*%
D29*
%TO.C,R43*%
X139462000Y-114300000D03*
X141462000Y-114300000D03*
%TD*%
%TO.C,R40*%
X102378000Y-114046000D03*
X104378000Y-114046000D03*
%TD*%
D25*
%TO.C,FB1*%
X165720000Y-60267500D03*
X165720000Y-61992500D03*
%TD*%
D29*
%TO.C,R36*%
X151924000Y-114300000D03*
X153924000Y-114300000D03*
%TD*%
D34*
%TO.C,R34*%
X125750000Y-109357500D03*
X125750000Y-111182500D03*
%TD*%
D27*
%TO.C,Q3*%
X186116000Y-112346500D03*
X184216000Y-112346500D03*
X185166000Y-114221500D03*
%TD*%
D25*
%TO.C,FB10*%
X141430000Y-60307500D03*
X141430000Y-62032500D03*
%TD*%
D11*
%TO.C,C33*%
X123892500Y-91060000D03*
X122167500Y-91060000D03*
%TD*%
D25*
%TO.C,FB15*%
X128730000Y-60307500D03*
X128730000Y-62032500D03*
%TD*%
%TO.C,FB21*%
X181655000Y-60240000D03*
X181655000Y-61965000D03*
%TD*%
D10*
%TO.C,C28*%
X131357500Y-82040000D03*
X133082500Y-82040000D03*
%TD*%
D25*
%TO.C,C17*%
X153016000Y-71607500D03*
X153016000Y-73332500D03*
%TD*%
D15*
%TO.C,D1*%
X156972000Y-114413000D03*
X156972000Y-112663000D03*
%TD*%
D27*
%TO.C,Q4*%
X173670000Y-112346500D03*
X171770000Y-112346500D03*
X172720000Y-114221500D03*
%TD*%
D18*
%TO.C,R32*%
X133180000Y-85360000D03*
X135005000Y-85360000D03*
%TD*%
D33*
%TO.C,C27*%
X118780000Y-87377500D03*
X118780000Y-85302500D03*
%TD*%
D11*
%TO.C,C20*%
X156852500Y-77270000D03*
X155127500Y-77270000D03*
%TD*%
D27*
%TO.C,Q2*%
X160970000Y-112346500D03*
X159070000Y-112346500D03*
X160020000Y-114221500D03*
%TD*%
D29*
%TO.C,R38*%
X164608000Y-114300000D03*
X166608000Y-114300000D03*
%TD*%
D25*
%TO.C,FB4*%
X158095000Y-60242500D03*
X158095000Y-61967500D03*
%TD*%
%TO.C,FB7*%
X150470000Y-60267500D03*
X150470000Y-61992500D03*
%TD*%
D15*
%TO.C,D3*%
X169672000Y-114413000D03*
X169672000Y-112663000D03*
%TD*%
%TO.C,D8*%
X144780000Y-114413000D03*
X144780000Y-112663000D03*
%TD*%
D25*
%TO.C,FB24*%
X189325000Y-60267500D03*
X189325000Y-61992500D03*
%TD*%
%TO.C,C30*%
X127700000Y-100347500D03*
X127700000Y-102072500D03*
%TD*%
D10*
%TO.C,C31*%
X138110000Y-92070000D03*
X139835000Y-92070000D03*
%TD*%
D27*
%TO.C,Q5*%
X197546000Y-112346500D03*
X195646000Y-112346500D03*
X196596000Y-114221500D03*
%TD*%
D18*
%TO.C,R27*%
X171427500Y-66407500D03*
X173252500Y-66407500D03*
%TD*%
D27*
%TO.C,Q9*%
X148778000Y-112346500D03*
X146878000Y-112346500D03*
X147828000Y-114221500D03*
%TD*%
D26*
%TO.C,R23*%
X171842500Y-73890000D03*
X170017500Y-73890000D03*
%TD*%
D15*
%TO.C,D7*%
X119634000Y-114413000D03*
X119634000Y-112663000D03*
%TD*%
M02*
