%TF.GenerationSoftware,KiCad,Pcbnew,(6.0.5)*%
%TF.CreationDate,2023-10-09T20:54:02-04:00*%
%TF.ProjectId,solar-controller-2023,736f6c61-722d-4636-9f6e-74726f6c6c65,rev?*%
%TF.SameCoordinates,Original*%
%TF.FileFunction,Soldermask,Top*%
%TF.FilePolarity,Negative*%
%FSLAX46Y46*%
G04 Gerber Fmt 4.6, Leading zero omitted, Abs format (unit mm)*
G04 Created by KiCad (PCBNEW (6.0.5)) date 2023-10-09 20:54:02*
%MOMM*%
%LPD*%
G01*
G04 APERTURE LIST*
G04 Aperture macros list*
%AMRoundRect*
0 Rectangle with rounded corners*
0 $1 Rounding radius*
0 $2 $3 $4 $5 $6 $7 $8 $9 X,Y pos of 4 corners*
0 Add a 4 corners polygon primitive as box body*
4,1,4,$2,$3,$4,$5,$6,$7,$8,$9,$2,$3,0*
0 Add four circle primitives for the rounded corners*
1,1,$1+$1,$2,$3*
1,1,$1+$1,$4,$5*
1,1,$1+$1,$6,$7*
1,1,$1+$1,$8,$9*
0 Add four rect primitives between the rounded corners*
20,1,$1+$1,$2,$3,$4,$5,0*
20,1,$1+$1,$4,$5,$6,$7,0*
20,1,$1+$1,$6,$7,$8,$9,0*
20,1,$1+$1,$8,$9,$2,$3,0*%
%AMFreePoly0*
4,1,9,3.862500,-0.866500,0.737500,-0.866500,0.737500,-0.450000,-0.737500,-0.450000,-0.737500,0.450000,0.737500,0.450000,0.737500,0.866500,3.862500,0.866500,3.862500,-0.866500,3.862500,-0.866500,$1*%
G04 Aperture macros list end*
%ADD10RoundRect,0.237500X-0.237500X0.250000X-0.237500X-0.250000X0.237500X-0.250000X0.237500X0.250000X0*%
%ADD11C,3.200000*%
%ADD12R,1.350000X0.400000*%
%ADD13R,1.550000X1.200000*%
%ADD14O,0.950000X1.250000*%
%ADD15R,1.550000X1.500000*%
%ADD16O,1.550000X0.890000*%
%ADD17RoundRect,0.150000X0.587500X0.150000X-0.587500X0.150000X-0.587500X-0.150000X0.587500X-0.150000X0*%
%ADD18C,2.000000*%
%ADD19C,1.500000*%
%ADD20O,1.600000X1.600000*%
%ADD21R,1.600000X1.600000*%
%ADD22R,0.900000X1.300000*%
%ADD23FreePoly0,270.000000*%
%ADD24RoundRect,0.075000X-0.662500X-0.075000X0.662500X-0.075000X0.662500X0.075000X-0.662500X0.075000X0*%
%ADD25RoundRect,0.075000X-0.075000X-0.662500X0.075000X-0.662500X0.075000X0.662500X-0.075000X0.662500X0*%
%ADD26RoundRect,0.150000X-0.825000X-0.150000X0.825000X-0.150000X0.825000X0.150000X-0.825000X0.150000X0*%
%ADD27RoundRect,0.150000X0.150000X-0.675000X0.150000X0.675000X-0.150000X0.675000X-0.150000X-0.675000X0*%
%ADD28R,0.450000X1.750000*%
%ADD29R,1.550000X1.300000*%
%ADD30C,1.600000*%
%ADD31RoundRect,0.250000X-0.350000X-0.450000X0.350000X-0.450000X0.350000X0.450000X-0.350000X0.450000X0*%
%ADD32RoundRect,0.237500X-0.250000X-0.237500X0.250000X-0.237500X0.250000X0.237500X-0.250000X0.237500X0*%
%ADD33RoundRect,0.237500X0.237500X-0.250000X0.237500X0.250000X-0.237500X0.250000X-0.237500X-0.250000X0*%
%ADD34RoundRect,0.237500X0.250000X0.237500X-0.250000X0.237500X-0.250000X-0.237500X0.250000X-0.237500X0*%
%ADD35RoundRect,0.150000X-0.150000X0.587500X-0.150000X-0.587500X0.150000X-0.587500X0.150000X0.587500X0*%
%ADD36C,2.032000*%
%ADD37O,1.700000X1.700000*%
%ADD38R,1.700000X1.700000*%
%ADD39RoundRect,0.237500X-0.237500X0.300000X-0.237500X-0.300000X0.237500X-0.300000X0.237500X0.300000X0*%
%ADD40RoundRect,0.237500X0.237500X-0.287500X0.237500X0.287500X-0.237500X0.287500X-0.237500X-0.287500X0*%
%ADD41RoundRect,0.237500X0.237500X-0.300000X0.237500X0.300000X-0.237500X0.300000X-0.237500X-0.300000X0*%
%ADD42RoundRect,0.237500X-0.300000X-0.237500X0.300000X-0.237500X0.300000X0.237500X-0.300000X0.237500X0*%
%ADD43RoundRect,0.237500X0.300000X0.237500X-0.300000X0.237500X-0.300000X-0.237500X0.300000X-0.237500X0*%
%ADD44RoundRect,0.250000X0.337500X0.475000X-0.337500X0.475000X-0.337500X-0.475000X0.337500X-0.475000X0*%
%ADD45RoundRect,0.250000X0.475000X-0.337500X0.475000X0.337500X-0.475000X0.337500X-0.475000X-0.337500X0*%
G04 APERTURE END LIST*
D10*
%TO.C,R44*%
X113030000Y-78081500D03*
X113030000Y-79906500D03*
%TD*%
D11*
%TO.C,REF\u002A\u002A*%
X185000000Y-105000000D03*
%TD*%
D12*
%TO.C,J5*%
X104135000Y-72240000D03*
X104135000Y-72890000D03*
X104135000Y-73540000D03*
X104135000Y-74190000D03*
X104135000Y-74840000D03*
D13*
X101435000Y-70640000D03*
D14*
X104135000Y-76040000D03*
D15*
X101435000Y-74540000D03*
D16*
X101435000Y-77040000D03*
D13*
X101435000Y-76440000D03*
D14*
X104135000Y-71040000D03*
D15*
X101435000Y-72540000D03*
D16*
X101435000Y-70040000D03*
%TD*%
D12*
%TO.C,J8*%
X104140000Y-85330000D03*
X104140000Y-85980000D03*
X104140000Y-86630000D03*
X104140000Y-87280000D03*
X104140000Y-87930000D03*
D13*
X101440000Y-83730000D03*
D14*
X104140000Y-89130000D03*
D15*
X101440000Y-87630000D03*
D16*
X101440000Y-90130000D03*
D13*
X101440000Y-89530000D03*
D14*
X104140000Y-84130000D03*
D15*
X101440000Y-85630000D03*
D16*
X101440000Y-83130000D03*
%TD*%
D11*
%TO.C,REF\u002A\u002A*%
X195000000Y-55000000D03*
%TD*%
%TO.C,REF\u002A\u002A*%
X115000000Y-105000000D03*
%TD*%
%TO.C,REF\u002A\u002A*%
X105000000Y-55000000D03*
%TD*%
D17*
%TO.C,Q1*%
X163450000Y-84260000D03*
X163450000Y-82360000D03*
X161575000Y-83310000D03*
%TD*%
D18*
%TO.C,F8*%
X141440000Y-132210000D03*
X141440000Y-137210000D03*
%TD*%
%TO.C,F7*%
X116440000Y-137210000D03*
X116440000Y-132210000D03*
%TD*%
%TO.C,F6*%
X128940000Y-132210000D03*
X128940000Y-137210000D03*
%TD*%
%TO.C,F5*%
X103940000Y-132210000D03*
X103940000Y-137210000D03*
%TD*%
%TO.C,F4*%
X191940000Y-132210000D03*
X191940000Y-137210000D03*
%TD*%
%TO.C,F3*%
X166370000Y-132334000D03*
X166370000Y-137334000D03*
%TD*%
%TO.C,F2*%
X178940000Y-132210000D03*
X178940000Y-137210000D03*
%TD*%
%TO.C,F1*%
X154090000Y-132210000D03*
X154090000Y-137210000D03*
%TD*%
D19*
%TO.C,Y1*%
X132710000Y-79810000D03*
X127830000Y-79810000D03*
%TD*%
D20*
%TO.C,U14*%
X147775000Y-124795000D03*
X142695000Y-124795000D03*
X140155000Y-124795000D03*
X140155000Y-117175000D03*
X142695000Y-117175000D03*
X145235000Y-117175000D03*
D21*
X147775000Y-117175000D03*
%TD*%
%TO.C,U13*%
X122800000Y-117175000D03*
D20*
X120260000Y-117175000D03*
X117720000Y-117175000D03*
X115180000Y-117175000D03*
X115180000Y-124795000D03*
X117720000Y-124795000D03*
X122800000Y-124795000D03*
%TD*%
%TO.C,U12*%
X135250000Y-124795000D03*
X130170000Y-124795000D03*
X127630000Y-124795000D03*
X127630000Y-117175000D03*
X130170000Y-117175000D03*
X132710000Y-117175000D03*
D21*
X135250000Y-117175000D03*
%TD*%
D20*
%TO.C,U11*%
X110200000Y-124745000D03*
X105120000Y-124745000D03*
X102580000Y-124745000D03*
X102580000Y-117125000D03*
X105120000Y-117125000D03*
X107660000Y-117125000D03*
D21*
X110200000Y-117125000D03*
%TD*%
%TO.C,U10*%
X197300000Y-117200000D03*
D20*
X194760000Y-117200000D03*
X192220000Y-117200000D03*
X189680000Y-117200000D03*
X189680000Y-124820000D03*
X192220000Y-124820000D03*
X197300000Y-124820000D03*
%TD*%
D21*
%TO.C,U9*%
X172700000Y-117175000D03*
D20*
X170160000Y-117175000D03*
X167620000Y-117175000D03*
X165080000Y-117175000D03*
X165080000Y-124795000D03*
X167620000Y-124795000D03*
X172700000Y-124795000D03*
%TD*%
D21*
%TO.C,U8*%
X185156000Y-117200000D03*
D20*
X182616000Y-117200000D03*
X180076000Y-117200000D03*
X177536000Y-117200000D03*
X177536000Y-124820000D03*
X180076000Y-124820000D03*
X185156000Y-124820000D03*
%TD*%
D21*
%TO.C,U7*%
X160150000Y-117175000D03*
D20*
X157610000Y-117175000D03*
X155070000Y-117175000D03*
X152530000Y-117175000D03*
X152530000Y-124795000D03*
X155070000Y-124795000D03*
X160150000Y-124795000D03*
%TD*%
D22*
%TO.C,U6*%
X116088000Y-85381500D03*
D23*
X114588000Y-85469000D03*
D22*
X113088000Y-85381500D03*
%TD*%
D24*
%TO.C,U5*%
X126807500Y-90980000D03*
X126807500Y-91480000D03*
X126807500Y-91980000D03*
X126807500Y-92480000D03*
X126807500Y-92980000D03*
X126807500Y-93480000D03*
X126807500Y-93980000D03*
X126807500Y-94480000D03*
X126807500Y-94980000D03*
X126807500Y-95480000D03*
X126807500Y-95980000D03*
X126807500Y-96480000D03*
D25*
X128220000Y-97892500D03*
X128720000Y-97892500D03*
X129220000Y-97892500D03*
X129720000Y-97892500D03*
X130220000Y-97892500D03*
X130720000Y-97892500D03*
X131220000Y-97892500D03*
X131720000Y-97892500D03*
X132220000Y-97892500D03*
X132720000Y-97892500D03*
X133220000Y-97892500D03*
X133720000Y-97892500D03*
D24*
X135132500Y-96480000D03*
X135132500Y-95980000D03*
X135132500Y-95480000D03*
X135132500Y-94980000D03*
X135132500Y-94480000D03*
X135132500Y-93980000D03*
X135132500Y-93480000D03*
X135132500Y-92980000D03*
X135132500Y-92480000D03*
X135132500Y-91980000D03*
X135132500Y-91480000D03*
X135132500Y-90980000D03*
D25*
X133720000Y-89567500D03*
X133220000Y-89567500D03*
X132720000Y-89567500D03*
X132220000Y-89567500D03*
X131720000Y-89567500D03*
X131220000Y-89567500D03*
X130720000Y-89567500D03*
X130220000Y-89567500D03*
X129720000Y-89567500D03*
X129220000Y-89567500D03*
X128720000Y-89567500D03*
X128220000Y-89567500D03*
%TD*%
D26*
%TO.C,U4*%
X135705000Y-103595000D03*
X135705000Y-104865000D03*
X135705000Y-106135000D03*
X135705000Y-107405000D03*
X140655000Y-107405000D03*
X140655000Y-106135000D03*
X140655000Y-104865000D03*
X140655000Y-103595000D03*
%TD*%
D27*
%TO.C,U3*%
X166306000Y-72220000D03*
X167576000Y-72220000D03*
X168846000Y-72220000D03*
X170116000Y-72220000D03*
X170116000Y-77470000D03*
X168846000Y-77470000D03*
X167576000Y-77470000D03*
X166306000Y-77470000D03*
%TD*%
%TO.C,U2*%
X157536000Y-72245000D03*
X158806000Y-72245000D03*
X160076000Y-72245000D03*
X161346000Y-72245000D03*
X161346000Y-77495000D03*
X160076000Y-77495000D03*
X158806000Y-77495000D03*
X157536000Y-77495000D03*
%TD*%
D28*
%TO.C,U1*%
X150416000Y-79170000D03*
X149766000Y-79170000D03*
X149116000Y-79170000D03*
X148466000Y-79170000D03*
X147816000Y-79170000D03*
X147166000Y-79170000D03*
X146516000Y-79170000D03*
X145866000Y-79170000D03*
X145216000Y-79170000D03*
X144566000Y-79170000D03*
X143916000Y-79170000D03*
X143266000Y-79170000D03*
X142616000Y-79170000D03*
X141966000Y-79170000D03*
X141966000Y-71970000D03*
X142616000Y-71970000D03*
X143266000Y-71970000D03*
X143916000Y-71970000D03*
X144566000Y-71970000D03*
X145216000Y-71970000D03*
X145866000Y-71970000D03*
X146516000Y-71970000D03*
X147166000Y-71970000D03*
X147816000Y-71970000D03*
X148466000Y-71970000D03*
X149116000Y-71970000D03*
X149766000Y-71970000D03*
X150416000Y-71970000D03*
%TD*%
D29*
%TO.C,SW2*%
X192905000Y-84210000D03*
X184955000Y-84210000D03*
X184955000Y-88710000D03*
X192905000Y-88710000D03*
%TD*%
%TO.C,SW1*%
X192905000Y-74390000D03*
X184955000Y-74390000D03*
X184955000Y-69890000D03*
X192905000Y-69890000D03*
%TD*%
D30*
%TO.C,RV8*%
X146500000Y-129000000D03*
X141500000Y-127800000D03*
%TD*%
%TO.C,RV7*%
X116500000Y-127800000D03*
X121500000Y-129000000D03*
%TD*%
%TO.C,RV6*%
X134000000Y-129000000D03*
X129000000Y-127800000D03*
%TD*%
%TO.C,RV5*%
X109000000Y-129100000D03*
X104000000Y-127900000D03*
%TD*%
%TO.C,RV4*%
X191500000Y-127900000D03*
X196500000Y-129100000D03*
%TD*%
%TO.C,RV3*%
X171500000Y-129100000D03*
X166500000Y-127900000D03*
%TD*%
%TO.C,RV2*%
X184000000Y-129100000D03*
X179000000Y-127900000D03*
%TD*%
%TO.C,RV1*%
X159000000Y-129100000D03*
X154000000Y-127900000D03*
%TD*%
D31*
%TO.C,R43*%
X139462000Y-114300000D03*
X141462000Y-114300000D03*
%TD*%
%TO.C,R42*%
X114570000Y-114300000D03*
X116570000Y-114300000D03*
%TD*%
%TO.C,R41*%
X127016000Y-114300000D03*
X129016000Y-114300000D03*
%TD*%
%TO.C,R40*%
X102378000Y-114046000D03*
X104378000Y-114046000D03*
%TD*%
%TO.C,R39*%
X191246000Y-114300000D03*
X189246000Y-114300000D03*
%TD*%
%TO.C,R38*%
X164608000Y-114300000D03*
X166608000Y-114300000D03*
%TD*%
%TO.C,R37*%
X177038000Y-114300000D03*
X179038000Y-114300000D03*
%TD*%
%TO.C,R36*%
X151924000Y-114300000D03*
X153924000Y-114300000D03*
%TD*%
D32*
%TO.C,R35*%
X135465000Y-100130000D03*
X137290000Y-100130000D03*
%TD*%
D10*
%TO.C,R34*%
X125750000Y-109357500D03*
X125750000Y-111182500D03*
%TD*%
D32*
%TO.C,R33*%
X133170000Y-83720000D03*
X134995000Y-83720000D03*
%TD*%
%TO.C,R32*%
X133180000Y-85360000D03*
X135005000Y-85360000D03*
%TD*%
D33*
%TO.C,R31*%
X184870000Y-80042500D03*
X184870000Y-78217500D03*
%TD*%
D32*
%TO.C,R30*%
X188623500Y-63005000D03*
X186798500Y-63005000D03*
%TD*%
%TO.C,R29*%
X183473500Y-63025000D03*
X181648500Y-63025000D03*
%TD*%
%TO.C,R28*%
X178373500Y-63005000D03*
X176548500Y-63005000D03*
%TD*%
%TO.C,R27*%
X173273500Y-63025000D03*
X171448500Y-63025000D03*
%TD*%
D10*
%TO.C,R26*%
X157060000Y-82910000D03*
X157060000Y-84735000D03*
%TD*%
D34*
%TO.C,R25*%
X167550000Y-84250000D03*
X165725000Y-84250000D03*
%TD*%
D33*
%TO.C,R24*%
X170561000Y-67982500D03*
X170561000Y-69807500D03*
%TD*%
D32*
%TO.C,R23*%
X168663500Y-69825000D03*
X166838500Y-69825000D03*
%TD*%
%TO.C,R22*%
X166186000Y-79795000D03*
X164361000Y-79795000D03*
%TD*%
%TO.C,R21*%
X170186000Y-79770000D03*
X168361000Y-79770000D03*
%TD*%
%TO.C,R20*%
X155153500Y-79770000D03*
X156978500Y-79770000D03*
%TD*%
D10*
%TO.C,R19*%
X163691000Y-77807500D03*
X163691000Y-75982500D03*
%TD*%
D33*
%TO.C,R18*%
X153016000Y-77757500D03*
X153016000Y-79582500D03*
%TD*%
D34*
%TO.C,R17*%
X153003500Y-75470000D03*
X154828500Y-75470000D03*
%TD*%
D33*
%TO.C,R16*%
X127531000Y-65285000D03*
X127531000Y-67110000D03*
%TD*%
D10*
%TO.C,R15*%
X130041000Y-67100000D03*
X130041000Y-65275000D03*
%TD*%
D33*
%TO.C,R14*%
X132611000Y-65272500D03*
X132611000Y-67097500D03*
%TD*%
D10*
%TO.C,R13*%
X135161000Y-67089500D03*
X135161000Y-65264500D03*
%TD*%
D33*
%TO.C,R12*%
X137701000Y-65264500D03*
X137701000Y-67089500D03*
%TD*%
D10*
%TO.C,R11*%
X140241000Y-67089500D03*
X140241000Y-65264500D03*
%TD*%
D33*
%TO.C,R10*%
X142781000Y-65264500D03*
X142781000Y-67089500D03*
%TD*%
D10*
%TO.C,R9*%
X145321000Y-67089500D03*
X145321000Y-65264500D03*
%TD*%
D33*
%TO.C,R8*%
X147916000Y-65307500D03*
X147916000Y-67132500D03*
%TD*%
D10*
%TO.C,R7*%
X150441000Y-67107500D03*
X150441000Y-65282500D03*
%TD*%
D33*
%TO.C,R6*%
X153016000Y-65282500D03*
X153016000Y-67107500D03*
%TD*%
D10*
%TO.C,R5*%
X155541000Y-67107500D03*
X155541000Y-65282500D03*
%TD*%
D33*
%TO.C,R4*%
X158091000Y-65282500D03*
X158091000Y-67107500D03*
%TD*%
D10*
%TO.C,R3*%
X160666000Y-67107500D03*
X160666000Y-65282500D03*
%TD*%
D33*
%TO.C,R2*%
X163186000Y-67107500D03*
X163186000Y-65282500D03*
%TD*%
D10*
%TO.C,R1*%
X165716000Y-65282500D03*
X165716000Y-67107500D03*
%TD*%
D35*
%TO.C,Q9*%
X148778000Y-112346500D03*
X146878000Y-112346500D03*
X147828000Y-114221500D03*
%TD*%
%TO.C,Q8*%
X123632000Y-112346500D03*
X121732000Y-112346500D03*
X122682000Y-114221500D03*
%TD*%
%TO.C,Q7*%
X136078000Y-112346500D03*
X134178000Y-112346500D03*
X135128000Y-114221500D03*
%TD*%
%TO.C,Q6*%
X110236000Y-113967500D03*
X109286000Y-112092500D03*
X111186000Y-112092500D03*
%TD*%
%TO.C,Q5*%
X196596000Y-114221500D03*
X195646000Y-112346500D03*
X197546000Y-112346500D03*
%TD*%
%TO.C,Q4*%
X172720000Y-114221500D03*
X171770000Y-112346500D03*
X173670000Y-112346500D03*
%TD*%
%TO.C,Q3*%
X185166000Y-114221500D03*
X184216000Y-112346500D03*
X186116000Y-112346500D03*
%TD*%
%TO.C,Q2*%
X160970000Y-112346500D03*
X159070000Y-112346500D03*
X160020000Y-114221500D03*
%TD*%
D36*
%TO.C,OUT_7*%
X103400000Y-143610000D03*
X108480000Y-143610000D03*
%TD*%
%TO.C,OUT_6*%
X115900000Y-143610000D03*
X120980000Y-143610000D03*
%TD*%
%TO.C,OUT_5*%
X133480000Y-143610000D03*
X128400000Y-143610000D03*
%TD*%
%TO.C,OUT_4*%
X145980000Y-143610000D03*
X140900000Y-143610000D03*
%TD*%
%TO.C,OUT_3*%
X158486600Y-143610000D03*
X153406600Y-143610000D03*
%TD*%
%TO.C,OUT_2*%
X170986600Y-143610000D03*
X165906600Y-143610000D03*
%TD*%
%TO.C,OUT_1*%
X183480000Y-143610000D03*
X178400000Y-143610000D03*
%TD*%
%TO.C,OUT_0*%
X190900000Y-143610000D03*
X195980000Y-143610000D03*
%TD*%
D37*
%TO.C,J7*%
X102466000Y-107858000D03*
X105006000Y-107858000D03*
X102466000Y-105318000D03*
X105006000Y-105318000D03*
X102466000Y-102778000D03*
X105006000Y-102778000D03*
X102466000Y-100238000D03*
X105006000Y-100238000D03*
X102466000Y-97698000D03*
D38*
X105006000Y-97698000D03*
%TD*%
D37*
%TO.C,J6*%
X197315000Y-107835000D03*
X194775000Y-107835000D03*
X197315000Y-105295000D03*
X194775000Y-105295000D03*
X197315000Y-102755000D03*
X194775000Y-102755000D03*
X197315000Y-100215000D03*
X194775000Y-100215000D03*
X197315000Y-97675000D03*
D38*
X194775000Y-97675000D03*
%TD*%
%TO.C,J4*%
X144660000Y-99120000D03*
D37*
X147200000Y-99120000D03*
X149740000Y-99120000D03*
X152280000Y-99120000D03*
%TD*%
%TO.C,J3*%
X189306000Y-53995000D03*
X186766000Y-53995000D03*
X184226000Y-53995000D03*
X181686000Y-53995000D03*
X179146000Y-53995000D03*
X176606000Y-53995000D03*
X174066000Y-53995000D03*
D38*
X171526000Y-53995000D03*
%TD*%
D37*
%TO.C,J2*%
X127446000Y-54005000D03*
X129986000Y-54005000D03*
X132526000Y-54005000D03*
X135066000Y-54005000D03*
X137606000Y-54005000D03*
X140146000Y-54005000D03*
X142686000Y-54005000D03*
D38*
X145226000Y-54005000D03*
%TD*%
D37*
%TO.C,J1*%
X147881000Y-54005000D03*
X150421000Y-54005000D03*
X152961000Y-54005000D03*
X155501000Y-54005000D03*
X158041000Y-54005000D03*
X160581000Y-54005000D03*
X163121000Y-54005000D03*
D38*
X165661000Y-54005000D03*
%TD*%
D39*
%TO.C,FB24*%
X189351000Y-58685000D03*
X189351000Y-56960000D03*
%TD*%
%TO.C,FB23*%
X186781000Y-58697500D03*
X186781000Y-56972500D03*
%TD*%
%TO.C,FB22*%
X184241000Y-58657500D03*
X184241000Y-56932500D03*
%TD*%
%TO.C,FB21*%
X181681000Y-58657500D03*
X181681000Y-56932500D03*
%TD*%
%TO.C,FB20*%
X179161000Y-58667500D03*
X179161000Y-56942500D03*
%TD*%
%TO.C,FB19*%
X176591000Y-58695000D03*
X176591000Y-56970000D03*
%TD*%
%TO.C,FB18*%
X174061000Y-58727500D03*
X174061000Y-57002500D03*
%TD*%
%TO.C,FB17*%
X171551000Y-58705000D03*
X171551000Y-56980000D03*
%TD*%
%TO.C,FB16*%
X127511000Y-56992500D03*
X127511000Y-58717500D03*
%TD*%
%TO.C,FB15*%
X130031000Y-58717500D03*
X130031000Y-56992500D03*
%TD*%
%TO.C,FB14*%
X132581000Y-58707500D03*
X132581000Y-56982500D03*
%TD*%
%TO.C,FB13*%
X135111000Y-58697500D03*
X135111000Y-56972500D03*
%TD*%
%TO.C,FB12*%
X137651000Y-58707500D03*
X137651000Y-56982500D03*
%TD*%
%TO.C,FB11*%
X140191000Y-58717500D03*
X140191000Y-56992500D03*
%TD*%
%TO.C,FB10*%
X142731000Y-58717500D03*
X142731000Y-56992500D03*
%TD*%
%TO.C,FB9*%
X145271000Y-56952500D03*
X145271000Y-58677500D03*
%TD*%
%TO.C,FB8*%
X147941000Y-57007500D03*
X147941000Y-58732500D03*
%TD*%
%TO.C,FB7*%
X150466000Y-58732500D03*
X150466000Y-57007500D03*
%TD*%
%TO.C,FB6*%
X153016000Y-58732500D03*
X153016000Y-57007500D03*
%TD*%
%TO.C,FB5*%
X155541000Y-58732500D03*
X155541000Y-57007500D03*
%TD*%
%TO.C,FB4*%
X158091000Y-58707500D03*
X158091000Y-56982500D03*
%TD*%
%TO.C,FB3*%
X160616000Y-58707500D03*
X160616000Y-56982500D03*
%TD*%
%TO.C,FB2*%
X163166000Y-58732500D03*
X163166000Y-57007500D03*
%TD*%
%TO.C,FB1*%
X165716000Y-57007500D03*
X165716000Y-58732500D03*
%TD*%
D40*
%TO.C,D8*%
X144780000Y-114413000D03*
X144780000Y-112663000D03*
%TD*%
%TO.C,D7*%
X119634000Y-114413000D03*
X119634000Y-112663000D03*
%TD*%
%TO.C,D6*%
X132080000Y-114413000D03*
X132080000Y-112663000D03*
%TD*%
%TO.C,D5*%
X107188000Y-114159000D03*
X107188000Y-112409000D03*
%TD*%
%TO.C,D4*%
X193548000Y-114413000D03*
X193548000Y-112663000D03*
%TD*%
%TO.C,D3*%
X169672000Y-114413000D03*
X169672000Y-112663000D03*
%TD*%
%TO.C,D2*%
X182118000Y-114413000D03*
X182118000Y-112663000D03*
%TD*%
%TO.C,D1*%
X156972000Y-114413000D03*
X156972000Y-112663000D03*
%TD*%
D41*
%TO.C,C38*%
X128220000Y-84247500D03*
X128220000Y-85972500D03*
%TD*%
D42*
%TO.C,C37*%
X132627500Y-87200000D03*
X134352500Y-87200000D03*
%TD*%
D43*
%TO.C,C36*%
X122137500Y-97260000D03*
X123862500Y-97260000D03*
%TD*%
D44*
%TO.C,C35*%
X121742500Y-95280000D03*
X123817500Y-95280000D03*
%TD*%
%TO.C,C34*%
X121752500Y-93070000D03*
X123827500Y-93070000D03*
%TD*%
D43*
%TO.C,C33*%
X122167500Y-91060000D03*
X123892500Y-91060000D03*
%TD*%
D41*
%TO.C,C32*%
X126470000Y-88312500D03*
X126470000Y-86587500D03*
%TD*%
D42*
%TO.C,C31*%
X138110000Y-92070000D03*
X139835000Y-92070000D03*
%TD*%
D39*
%TO.C,C30*%
X127700000Y-100347500D03*
X127700000Y-102072500D03*
%TD*%
D43*
%TO.C,C29*%
X129297500Y-82040000D03*
X127572500Y-82040000D03*
%TD*%
D42*
%TO.C,C28*%
X131357500Y-82040000D03*
X133082500Y-82040000D03*
%TD*%
D45*
%TO.C,C27*%
X118780000Y-87377500D03*
X118780000Y-85302500D03*
%TD*%
%TO.C,C26*%
X110470000Y-87377500D03*
X110470000Y-85302500D03*
%TD*%
D43*
%TO.C,C25*%
X141152500Y-101710000D03*
X139427500Y-101710000D03*
%TD*%
D42*
%TO.C,C24*%
X188516000Y-61095000D03*
X186791000Y-61095000D03*
%TD*%
%TO.C,C23*%
X183391000Y-61095000D03*
X181666000Y-61095000D03*
%TD*%
%TO.C,C22*%
X178311000Y-61095000D03*
X176586000Y-61095000D03*
%TD*%
%TO.C,C21*%
X173261000Y-61095000D03*
X171536000Y-61095000D03*
%TD*%
D41*
%TO.C,C20*%
X159280000Y-81585000D03*
X159280000Y-83310000D03*
%TD*%
D39*
%TO.C,C19*%
X163641000Y-73682500D03*
X163641000Y-71957500D03*
%TD*%
%TO.C,C18*%
X155216000Y-73332500D03*
X155216000Y-71607500D03*
%TD*%
%TO.C,C17*%
X153016000Y-73332500D03*
X153016000Y-71607500D03*
%TD*%
%TO.C,C16*%
X127511000Y-61155000D03*
X127511000Y-62880000D03*
%TD*%
D41*
%TO.C,C15*%
X130041000Y-61170000D03*
X130041000Y-62895000D03*
%TD*%
D39*
%TO.C,C14*%
X132581000Y-62882500D03*
X132581000Y-61157500D03*
%TD*%
D41*
%TO.C,C13*%
X135116000Y-61157500D03*
X135116000Y-62882500D03*
%TD*%
D39*
%TO.C,C12*%
X137661000Y-62840000D03*
X137661000Y-61115000D03*
%TD*%
D41*
%TO.C,C11*%
X140201000Y-61157500D03*
X140201000Y-62882500D03*
%TD*%
D39*
%TO.C,C10*%
X142741000Y-62895000D03*
X142741000Y-61170000D03*
%TD*%
D41*
%TO.C,C9*%
X145291000Y-61182500D03*
X145291000Y-62907500D03*
%TD*%
D39*
%TO.C,C8*%
X147891000Y-62882500D03*
X147891000Y-61157500D03*
%TD*%
D41*
%TO.C,C7*%
X150416000Y-61145000D03*
X150416000Y-62870000D03*
%TD*%
D39*
%TO.C,C6*%
X153016000Y-62895000D03*
X153016000Y-61170000D03*
%TD*%
D41*
%TO.C,C5*%
X155566000Y-61170000D03*
X155566000Y-62895000D03*
%TD*%
D39*
%TO.C,C4*%
X158066000Y-62870000D03*
X158066000Y-61145000D03*
%TD*%
D41*
%TO.C,C3*%
X160616000Y-61182500D03*
X160616000Y-62907500D03*
%TD*%
D39*
%TO.C,C2*%
X163191000Y-61182500D03*
X163191000Y-62907500D03*
%TD*%
D41*
%TO.C,C1*%
X165716000Y-62857500D03*
X165716000Y-61132500D03*
%TD*%
M02*
