%TF.GenerationSoftware,KiCad,Pcbnew,(6.0.5)*%
%TF.CreationDate,2023-10-09T20:54:02-04:00*%
%TF.ProjectId,solar-controller-2023,736f6c61-722d-4636-9f6e-74726f6c6c65,rev?*%
%TF.SameCoordinates,Original*%
%TF.FileFunction,Copper,L1,Top*%
%TF.FilePolarity,Positive*%
%FSLAX46Y46*%
G04 Gerber Fmt 4.6, Leading zero omitted, Abs format (unit mm)*
G04 Created by KiCad (PCBNEW (6.0.5)) date 2023-10-09 20:54:02*
%MOMM*%
%LPD*%
G01*
G04 APERTURE LIST*
G04 Aperture macros list*
%AMRoundRect*
0 Rectangle with rounded corners*
0 $1 Rounding radius*
0 $2 $3 $4 $5 $6 $7 $8 $9 X,Y pos of 4 corners*
0 Add a 4 corners polygon primitive as box body*
4,1,4,$2,$3,$4,$5,$6,$7,$8,$9,$2,$3,0*
0 Add four circle primitives for the rounded corners*
1,1,$1+$1,$2,$3*
1,1,$1+$1,$4,$5*
1,1,$1+$1,$6,$7*
1,1,$1+$1,$8,$9*
0 Add four rect primitives between the rounded corners*
20,1,$1+$1,$2,$3,$4,$5,0*
20,1,$1+$1,$4,$5,$6,$7,0*
20,1,$1+$1,$6,$7,$8,$9,0*
20,1,$1+$1,$8,$9,$2,$3,0*%
%AMFreePoly0*
4,1,9,3.862500,-0.866500,0.737500,-0.866500,0.737500,-0.450000,-0.737500,-0.450000,-0.737500,0.450000,0.737500,0.450000,0.737500,0.866500,3.862500,0.866500,3.862500,-0.866500,3.862500,-0.866500,$1*%
G04 Aperture macros list end*
%TA.AperFunction,SMDPad,CuDef*%
%ADD10RoundRect,0.237500X-0.237500X0.250000X-0.237500X-0.250000X0.237500X-0.250000X0.237500X0.250000X0*%
%TD*%
%TA.AperFunction,SMDPad,CuDef*%
%ADD11R,1.350000X0.400000*%
%TD*%
%TA.AperFunction,SMDPad,CuDef*%
%ADD12R,1.550000X1.200000*%
%TD*%
%TA.AperFunction,ComponentPad*%
%ADD13O,0.950000X1.250000*%
%TD*%
%TA.AperFunction,SMDPad,CuDef*%
%ADD14R,1.550000X1.500000*%
%TD*%
%TA.AperFunction,ComponentPad*%
%ADD15O,1.550000X0.890000*%
%TD*%
%TA.AperFunction,SMDPad,CuDef*%
%ADD16RoundRect,0.150000X0.587500X0.150000X-0.587500X0.150000X-0.587500X-0.150000X0.587500X-0.150000X0*%
%TD*%
%TA.AperFunction,ComponentPad*%
%ADD17C,2.000000*%
%TD*%
%TA.AperFunction,ComponentPad*%
%ADD18C,1.500000*%
%TD*%
%TA.AperFunction,ComponentPad*%
%ADD19O,1.600000X1.600000*%
%TD*%
%TA.AperFunction,ComponentPad*%
%ADD20R,1.600000X1.600000*%
%TD*%
%TA.AperFunction,SMDPad,CuDef*%
%ADD21R,0.900000X1.300000*%
%TD*%
%TA.AperFunction,SMDPad,CuDef*%
%ADD22FreePoly0,270.000000*%
%TD*%
%TA.AperFunction,SMDPad,CuDef*%
%ADD23RoundRect,0.075000X-0.662500X-0.075000X0.662500X-0.075000X0.662500X0.075000X-0.662500X0.075000X0*%
%TD*%
%TA.AperFunction,SMDPad,CuDef*%
%ADD24RoundRect,0.075000X-0.075000X-0.662500X0.075000X-0.662500X0.075000X0.662500X-0.075000X0.662500X0*%
%TD*%
%TA.AperFunction,SMDPad,CuDef*%
%ADD25RoundRect,0.150000X-0.825000X-0.150000X0.825000X-0.150000X0.825000X0.150000X-0.825000X0.150000X0*%
%TD*%
%TA.AperFunction,SMDPad,CuDef*%
%ADD26RoundRect,0.150000X0.150000X-0.675000X0.150000X0.675000X-0.150000X0.675000X-0.150000X-0.675000X0*%
%TD*%
%TA.AperFunction,SMDPad,CuDef*%
%ADD27R,0.450000X1.750000*%
%TD*%
%TA.AperFunction,SMDPad,CuDef*%
%ADD28R,1.550000X1.300000*%
%TD*%
%TA.AperFunction,ComponentPad*%
%ADD29C,1.600000*%
%TD*%
%TA.AperFunction,SMDPad,CuDef*%
%ADD30RoundRect,0.250000X-0.350000X-0.450000X0.350000X-0.450000X0.350000X0.450000X-0.350000X0.450000X0*%
%TD*%
%TA.AperFunction,SMDPad,CuDef*%
%ADD31RoundRect,0.237500X-0.250000X-0.237500X0.250000X-0.237500X0.250000X0.237500X-0.250000X0.237500X0*%
%TD*%
%TA.AperFunction,SMDPad,CuDef*%
%ADD32RoundRect,0.237500X0.237500X-0.250000X0.237500X0.250000X-0.237500X0.250000X-0.237500X-0.250000X0*%
%TD*%
%TA.AperFunction,SMDPad,CuDef*%
%ADD33RoundRect,0.237500X0.250000X0.237500X-0.250000X0.237500X-0.250000X-0.237500X0.250000X-0.237500X0*%
%TD*%
%TA.AperFunction,SMDPad,CuDef*%
%ADD34RoundRect,0.150000X-0.150000X0.587500X-0.150000X-0.587500X0.150000X-0.587500X0.150000X0.587500X0*%
%TD*%
%TA.AperFunction,ComponentPad*%
%ADD35C,2.032000*%
%TD*%
%TA.AperFunction,ComponentPad*%
%ADD36O,1.700000X1.700000*%
%TD*%
%TA.AperFunction,ComponentPad*%
%ADD37R,1.700000X1.700000*%
%TD*%
%TA.AperFunction,SMDPad,CuDef*%
%ADD38RoundRect,0.237500X-0.237500X0.300000X-0.237500X-0.300000X0.237500X-0.300000X0.237500X0.300000X0*%
%TD*%
%TA.AperFunction,SMDPad,CuDef*%
%ADD39RoundRect,0.237500X0.237500X-0.287500X0.237500X0.287500X-0.237500X0.287500X-0.237500X-0.287500X0*%
%TD*%
%TA.AperFunction,SMDPad,CuDef*%
%ADD40RoundRect,0.237500X0.237500X-0.300000X0.237500X0.300000X-0.237500X0.300000X-0.237500X-0.300000X0*%
%TD*%
%TA.AperFunction,SMDPad,CuDef*%
%ADD41RoundRect,0.237500X-0.300000X-0.237500X0.300000X-0.237500X0.300000X0.237500X-0.300000X0.237500X0*%
%TD*%
%TA.AperFunction,SMDPad,CuDef*%
%ADD42RoundRect,0.237500X0.300000X0.237500X-0.300000X0.237500X-0.300000X-0.237500X0.300000X-0.237500X0*%
%TD*%
%TA.AperFunction,SMDPad,CuDef*%
%ADD43RoundRect,0.250000X0.337500X0.475000X-0.337500X0.475000X-0.337500X-0.475000X0.337500X-0.475000X0*%
%TD*%
%TA.AperFunction,SMDPad,CuDef*%
%ADD44RoundRect,0.250000X0.475000X-0.337500X0.475000X0.337500X-0.475000X0.337500X-0.475000X-0.337500X0*%
%TD*%
%TA.AperFunction,ViaPad*%
%ADD45C,0.800000*%
%TD*%
%TA.AperFunction,ViaPad*%
%ADD46C,0.600000*%
%TD*%
%TA.AperFunction,Conductor*%
%ADD47C,0.250000*%
%TD*%
%TA.AperFunction,Conductor*%
%ADD48C,0.280000*%
%TD*%
%TA.AperFunction,Conductor*%
%ADD49C,0.290000*%
%TD*%
%TA.AperFunction,Conductor*%
%ADD50C,0.800000*%
%TD*%
%TA.AperFunction,Conductor*%
%ADD51C,0.400000*%
%TD*%
%TA.AperFunction,Conductor*%
%ADD52C,1.000000*%
%TD*%
%TA.AperFunction,Conductor*%
%ADD53C,0.600000*%
%TD*%
%TA.AperFunction,Conductor*%
%ADD54C,1.600000*%
%TD*%
%TA.AperFunction,Conductor*%
%ADD55C,0.500000*%
%TD*%
%TA.AperFunction,Conductor*%
%ADD56C,1.250000*%
%TD*%
%TA.AperFunction,Conductor*%
%ADD57C,0.700000*%
%TD*%
%TA.AperFunction,Conductor*%
%ADD58C,0.750000*%
%TD*%
%TA.AperFunction,Conductor*%
%ADD59C,0.450000*%
%TD*%
%TA.AperFunction,Conductor*%
%ADD60C,0.900000*%
%TD*%
G04 APERTURE END LIST*
D10*
%TO.P,R44,1*%
%TO.N,Net-(J5-Pad1)*%
X113030000Y-78081500D03*
%TO.P,R44,2*%
%TO.N,+5V*%
X113030000Y-79906500D03*
%TD*%
D11*
%TO.P,J5,1,VBUS*%
%TO.N,Net-(J5-Pad1)*%
X104135000Y-72240000D03*
%TO.P,J5,2,D-*%
X104135000Y-72890000D03*
%TO.P,J5,3,D+*%
%TO.N,/mcu/USB+*%
X104135000Y-73540000D03*
%TO.P,J5,4,GND*%
%TO.N,GND*%
X104135000Y-74190000D03*
%TO.P,J5,5,Shield*%
X104135000Y-74840000D03*
D12*
%TO.P,J5,6*%
%TO.N,N/C*%
X101435000Y-70640000D03*
D13*
X104135000Y-76040000D03*
D14*
X101435000Y-74540000D03*
D15*
X101435000Y-77040000D03*
D12*
X101435000Y-76440000D03*
D13*
X104135000Y-71040000D03*
D14*
X101435000Y-72540000D03*
D15*
X101435000Y-70040000D03*
%TD*%
D11*
%TO.P,J8,1,VBUS*%
%TO.N,+5V*%
X104140000Y-85330000D03*
%TO.P,J8,2,D-*%
%TO.N,unconnected-(J8-Pad2)*%
X104140000Y-85980000D03*
%TO.P,J8,3,D+*%
%TO.N,unconnected-(J8-Pad3)*%
X104140000Y-86630000D03*
%TO.P,J8,4,GND*%
%TO.N,GND*%
X104140000Y-87280000D03*
%TO.P,J8,5,Shield*%
X104140000Y-87930000D03*
D12*
%TO.P,J8,6*%
%TO.N,N/C*%
X101440000Y-83730000D03*
D13*
X104140000Y-89130000D03*
D14*
X101440000Y-87630000D03*
D15*
X101440000Y-90130000D03*
D12*
X101440000Y-89530000D03*
D13*
X104140000Y-84130000D03*
D14*
X101440000Y-85630000D03*
D15*
X101440000Y-83130000D03*
%TD*%
D16*
%TO.P,Q1,1,B*%
%TO.N,Net-(Q1-Pad1)*%
X163450000Y-84260000D03*
%TO.P,Q1,2,E*%
%TO.N,+3V3*%
X163450000Y-82360000D03*
%TO.P,Q1,3,C*%
%TO.N,SENSOR_READY*%
X161575000Y-83310000D03*
%TD*%
D17*
%TO.P,F8,1*%
%TO.N,Net-(F8-Pad1)*%
X141440000Y-132210000D03*
%TO.P,F8,2*%
%TO.N,Net-(F8-Pad2)*%
X141440000Y-137210000D03*
%TD*%
%TO.P,F7,2*%
%TO.N,Net-(F7-Pad2)*%
X116440000Y-137210000D03*
%TO.P,F7,1*%
%TO.N,Net-(F7-Pad1)*%
X116440000Y-132210000D03*
%TD*%
%TO.P,F6,1*%
%TO.N,Net-(F6-Pad1)*%
X128940000Y-132210000D03*
%TO.P,F6,2*%
%TO.N,Net-(F6-Pad2)*%
X128940000Y-137210000D03*
%TD*%
%TO.P,F5,1*%
%TO.N,Net-(F5-Pad1)*%
X103940000Y-132210000D03*
%TO.P,F5,2*%
%TO.N,Net-(F5-Pad2)*%
X103940000Y-137210000D03*
%TD*%
%TO.P,F4,1*%
%TO.N,Net-(F4-Pad1)*%
X191940000Y-132210000D03*
%TO.P,F4,2*%
%TO.N,Net-(F4-Pad2)*%
X191940000Y-137210000D03*
%TD*%
%TO.P,F3,1*%
%TO.N,Net-(F3-Pad1)*%
X166370000Y-132334000D03*
%TO.P,F3,2*%
%TO.N,Net-(F3-Pad2)*%
X166370000Y-137334000D03*
%TD*%
%TO.P,F2,1*%
%TO.N,Net-(F2-Pad1)*%
X178940000Y-132210000D03*
%TO.P,F2,2*%
%TO.N,Net-(F2-Pad2)*%
X178940000Y-137210000D03*
%TD*%
%TO.P,F1,1*%
%TO.N,Net-(F1-Pad1)*%
X154090000Y-132210000D03*
%TO.P,F1,2*%
%TO.N,Net-(F1-Pad2)*%
X154090000Y-137210000D03*
%TD*%
D18*
%TO.P,Y1,2,2*%
%TO.N,Net-(C28-Pad1)*%
X132710000Y-79810000D03*
%TO.P,Y1,1,1*%
%TO.N,Net-(C29-Pad1)*%
X127830000Y-79810000D03*
%TD*%
D19*
%TO.P,U14,8*%
%TO.N,Net-(OUT_4-Pad1)*%
X147775000Y-124795000D03*
%TO.P,U14,6*%
%TO.N,Net-(F8-Pad1)*%
X142695000Y-124795000D03*
%TO.P,U14,5*%
%TO.N,unconnected-(U14-Pad5)*%
X140155000Y-124795000D03*
%TO.P,U14,4*%
%TO.N,Net-(Q9-Pad3)*%
X140155000Y-117175000D03*
%TO.P,U14,3*%
X142695000Y-117175000D03*
%TO.P,U14,2*%
%TO.N,Net-(D8-Pad1)*%
X145235000Y-117175000D03*
D20*
%TO.P,U14,1*%
%TO.N,Net-(Q9-Pad3)*%
X147775000Y-117175000D03*
%TD*%
%TO.P,U13,1*%
%TO.N,Net-(Q8-Pad3)*%
X122800000Y-117175000D03*
D19*
%TO.P,U13,2*%
%TO.N,Net-(D7-Pad1)*%
X120260000Y-117175000D03*
%TO.P,U13,3*%
%TO.N,Net-(Q8-Pad3)*%
X117720000Y-117175000D03*
%TO.P,U13,4*%
X115180000Y-117175000D03*
%TO.P,U13,5*%
%TO.N,unconnected-(U13-Pad5)*%
X115180000Y-124795000D03*
%TO.P,U13,6*%
%TO.N,Net-(F7-Pad1)*%
X117720000Y-124795000D03*
%TO.P,U13,8*%
%TO.N,Net-(OUT_6-Pad1)*%
X122800000Y-124795000D03*
%TD*%
%TO.P,U12,8*%
%TO.N,Net-(OUT_5-Pad1)*%
X135250000Y-124795000D03*
%TO.P,U12,6*%
%TO.N,Net-(F6-Pad1)*%
X130170000Y-124795000D03*
%TO.P,U12,5*%
%TO.N,unconnected-(U12-Pad5)*%
X127630000Y-124795000D03*
%TO.P,U12,4*%
%TO.N,Net-(Q7-Pad3)*%
X127630000Y-117175000D03*
%TO.P,U12,3*%
X130170000Y-117175000D03*
%TO.P,U12,2*%
%TO.N,Net-(D6-Pad1)*%
X132710000Y-117175000D03*
D20*
%TO.P,U12,1*%
%TO.N,Net-(Q7-Pad3)*%
X135250000Y-117175000D03*
%TD*%
D19*
%TO.P,U11,8*%
%TO.N,Net-(OUT_7-Pad1)*%
X110200000Y-124745000D03*
%TO.P,U11,6*%
%TO.N,Net-(F5-Pad1)*%
X105120000Y-124745000D03*
%TO.P,U11,5*%
%TO.N,unconnected-(U11-Pad5)*%
X102580000Y-124745000D03*
%TO.P,U11,4*%
%TO.N,Net-(Q6-Pad3)*%
X102580000Y-117125000D03*
%TO.P,U11,3*%
X105120000Y-117125000D03*
%TO.P,U11,2*%
%TO.N,Net-(D5-Pad1)*%
X107660000Y-117125000D03*
D20*
%TO.P,U11,1*%
%TO.N,Net-(Q6-Pad3)*%
X110200000Y-117125000D03*
%TD*%
%TO.P,U10,1*%
%TO.N,Net-(Q5-Pad3)*%
X197300000Y-117200000D03*
D19*
%TO.P,U10,2*%
%TO.N,Net-(D4-Pad1)*%
X194760000Y-117200000D03*
%TO.P,U10,3*%
%TO.N,Net-(Q5-Pad3)*%
X192220000Y-117200000D03*
%TO.P,U10,4*%
X189680000Y-117200000D03*
%TO.P,U10,5*%
%TO.N,unconnected-(U10-Pad5)*%
X189680000Y-124820000D03*
%TO.P,U10,6*%
%TO.N,Net-(F4-Pad1)*%
X192220000Y-124820000D03*
%TO.P,U10,8*%
%TO.N,Net-(OUT_0-Pad1)*%
X197300000Y-124820000D03*
%TD*%
D20*
%TO.P,U9,1*%
%TO.N,Net-(Q4-Pad3)*%
X172700000Y-117175000D03*
D19*
%TO.P,U9,2*%
%TO.N,Net-(D3-Pad1)*%
X170160000Y-117175000D03*
%TO.P,U9,3*%
%TO.N,Net-(Q4-Pad3)*%
X167620000Y-117175000D03*
%TO.P,U9,4*%
X165080000Y-117175000D03*
%TO.P,U9,5*%
%TO.N,unconnected-(U9-Pad5)*%
X165080000Y-124795000D03*
%TO.P,U9,6*%
%TO.N,Net-(F3-Pad1)*%
X167620000Y-124795000D03*
%TO.P,U9,8*%
%TO.N,Net-(OUT_2-Pad1)*%
X172700000Y-124795000D03*
%TD*%
D20*
%TO.P,U8,1*%
%TO.N,Net-(Q3-Pad3)*%
X185156000Y-117200000D03*
D19*
%TO.P,U8,2*%
%TO.N,Net-(D2-Pad1)*%
X182616000Y-117200000D03*
%TO.P,U8,3*%
%TO.N,Net-(Q3-Pad3)*%
X180076000Y-117200000D03*
%TO.P,U8,4*%
X177536000Y-117200000D03*
%TO.P,U8,5*%
%TO.N,unconnected-(U8-Pad5)*%
X177536000Y-124820000D03*
%TO.P,U8,6*%
%TO.N,Net-(F2-Pad1)*%
X180076000Y-124820000D03*
%TO.P,U8,8*%
%TO.N,Net-(OUT_1-Pad1)*%
X185156000Y-124820000D03*
%TD*%
D20*
%TO.P,U7,1*%
%TO.N,Net-(Q2-Pad3)*%
X160150000Y-117175000D03*
D19*
%TO.P,U7,2*%
%TO.N,Net-(D1-Pad1)*%
X157610000Y-117175000D03*
%TO.P,U7,3*%
%TO.N,Net-(Q2-Pad3)*%
X155070000Y-117175000D03*
%TO.P,U7,4*%
X152530000Y-117175000D03*
%TO.P,U7,5*%
%TO.N,unconnected-(U7-Pad5)*%
X152530000Y-124795000D03*
%TO.P,U7,6*%
%TO.N,Net-(F1-Pad1)*%
X155070000Y-124795000D03*
%TO.P,U7,8*%
%TO.N,Net-(OUT_3-Pad1)*%
X160150000Y-124795000D03*
%TD*%
D21*
%TO.P,U6,1,VO*%
%TO.N,+3V3*%
X116088000Y-85381500D03*
D22*
%TO.P,U6,2,GND*%
%TO.N,GND*%
X114588000Y-85469000D03*
D21*
%TO.P,U6,3,VI*%
%TO.N,+5V*%
X113088000Y-85381500D03*
%TD*%
D23*
%TO.P,U5,1,ADREF*%
%TO.N,+3V3*%
X126807500Y-90980000D03*
%TO.P,U5,2,GND*%
%TO.N,GND*%
X126807500Y-91480000D03*
%TO.P,U5,3,PB0/AD4*%
%TO.N,unconnected-(U5-Pad3)*%
X126807500Y-91980000D03*
%TO.P,U5,4,PB1/AD5*%
%TO.N,unconnected-(U5-Pad4)*%
X126807500Y-92480000D03*
%TO.P,U5,5,PB2/AD6*%
%TO.N,CS2*%
X126807500Y-92980000D03*
%TO.P,U5,6,PB3/AD7*%
%TO.N,ASW_A0*%
X126807500Y-93480000D03*
%TO.P,U5,7,VDDIN*%
%TO.N,+3V3*%
X126807500Y-93980000D03*
%TO.P,U5,8,VDDOUT*%
%TO.N,Net-(C35-Pad1)*%
X126807500Y-94480000D03*
%TO.P,U5,9,PA17*%
%TO.N,OUT_7*%
X126807500Y-94980000D03*
%TO.P,U5,10,PA18*%
%TO.N,OUT_6*%
X126807500Y-95480000D03*
%TO.P,U5,11,PA19*%
%TO.N,OUT_5*%
X126807500Y-95980000D03*
%TO.P,U5,12,PA20*%
%TO.N,OUT_4*%
X126807500Y-96480000D03*
D24*
%TO.P,U5,13,VDDIO*%
%TO.N,+3V3*%
X128220000Y-97892500D03*
%TO.P,U5,14,PA16*%
%TO.N,OUT_3*%
X128720000Y-97892500D03*
%TO.P,U5,15,PA15*%
%TO.N,OUT_2*%
X129220000Y-97892500D03*
%TO.P,U5,16,PA14*%
%TO.N,SCLK*%
X129720000Y-97892500D03*
%TO.P,U5,17,PA13*%
%TO.N,MOSI*%
X130220000Y-97892500D03*
%TO.P,U5,18,VDDCORE*%
%TO.N,Net-(C35-Pad1)*%
X130720000Y-97892500D03*
%TO.P,U5,19,PA12*%
%TO.N,MISO*%
X131220000Y-97892500D03*
%TO.P,U5,20,PA11*%
%TO.N,CS0*%
X131720000Y-97892500D03*
%TO.P,U5,21,PA10*%
%TO.N,Net-(J4-Pad2)*%
X132220000Y-97892500D03*
%TO.P,U5,22,PA9*%
%TO.N,Net-(J4-Pad3)*%
X132720000Y-97892500D03*
%TO.P,U5,23,PA8*%
%TO.N,OUT_1*%
X133220000Y-97892500D03*
%TO.P,U5,24,PA7*%
%TO.N,OUT_0*%
X133720000Y-97892500D03*
D23*
%TO.P,U5,25*%
%TO.N,N/C*%
X135132500Y-96480000D03*
%TO.P,U5,26,PA6*%
%TO.N,SENSOR_READY*%
X135132500Y-95980000D03*
%TO.P,U5,27,PA5*%
%TO.N,CS3*%
X135132500Y-95480000D03*
%TO.P,U5,28,PA4*%
%TO.N,SENSOR_TICK*%
X135132500Y-94980000D03*
%TO.P,U5,29,NRST*%
%TO.N,Net-(R31-Pad1)*%
X135132500Y-94480000D03*
%TO.P,U5,30,TST*%
%TO.N,GND*%
X135132500Y-93980000D03*
%TO.P,U5,31,PA3*%
%TO.N,SW_3*%
X135132500Y-93480000D03*
%TO.P,U5,32,PA2*%
%TO.N,SW_2*%
X135132500Y-92980000D03*
%TO.P,U5,33,VDDIO*%
%TO.N,+3V3*%
X135132500Y-92480000D03*
%TO.P,U5,34,GND*%
%TO.N,GND*%
X135132500Y-91980000D03*
%TO.P,U5,35,PA1*%
%TO.N,SW_1*%
X135132500Y-91480000D03*
%TO.P,U5,36,PA0*%
%TO.N,SW_0*%
X135132500Y-90980000D03*
D24*
%TO.P,U5,37,PB5*%
%TO.N,ASW_A1*%
X133720000Y-89567500D03*
%TO.P,U5,38,JTAGSEL*%
%TO.N,unconnected-(U5-Pad38)*%
X133220000Y-89567500D03*
%TO.P,U5,39,PB6*%
%TO.N,ASW_A2*%
X132720000Y-89567500D03*
%TO.P,U5,40,PB7*%
%TO.N,ASW_EN*%
X132220000Y-89567500D03*
%TO.P,U5,41,VDDCORE*%
%TO.N,Net-(C35-Pad1)*%
X131720000Y-89567500D03*
%TO.P,U5,42,PB12/ERASE*%
%TO.N,Net-(SW1-Pad1)*%
X131220000Y-89567500D03*
%TO.P,U5,43,PB10/DDM*%
%TO.N,Net-(R32-Pad1)*%
X130720000Y-89567500D03*
%TO.P,U5,44,PB11/DDP*%
%TO.N,Net-(R33-Pad1)*%
X130220000Y-89567500D03*
%TO.P,U5,45,PB8/XOUT*%
%TO.N,Net-(C28-Pad1)*%
X129720000Y-89567500D03*
%TO.P,U5,46,PB9/XIN*%
%TO.N,Net-(C29-Pad1)*%
X129220000Y-89567500D03*
%TO.P,U5,47,VDDIO*%
%TO.N,+3V3*%
X128720000Y-89567500D03*
%TO.P,U5,48,VDDPLL*%
%TO.N,Net-(C35-Pad1)*%
X128220000Y-89567500D03*
%TD*%
D25*
%TO.P,U4,1,~{S}*%
%TO.N,CS0*%
X135705000Y-103595000D03*
%TO.P,U4,2,Q*%
%TO.N,MISO*%
X135705000Y-104865000D03*
%TO.P,U4,3,~{W}*%
%TO.N,+3V3*%
X135705000Y-106135000D03*
%TO.P,U4,4,VSS*%
%TO.N,GND*%
X135705000Y-107405000D03*
%TO.P,U4,5,D*%
%TO.N,MOSI*%
X140655000Y-107405000D03*
%TO.P,U4,6,C*%
%TO.N,SCLK*%
X140655000Y-106135000D03*
%TO.P,U4,7,~{HOLD}*%
%TO.N,+3V3*%
X140655000Y-104865000D03*
%TO.P,U4,8,VCC*%
X140655000Y-103595000D03*
%TD*%
D26*
%TO.P,U3,8,V+*%
%TO.N,+3V3*%
X166306000Y-72220000D03*
%TO.P,U3,7*%
%TO.N,SENSOR_TICK*%
X167576000Y-72220000D03*
%TO.P,U3,6,-*%
%TO.N,Net-(R23-Pad2)*%
X168846000Y-72220000D03*
%TO.P,U3,5,+*%
%TO.N,Net-(R22-Pad2)*%
X170116000Y-72220000D03*
%TO.P,U3,4,V-*%
%TO.N,GND*%
X170116000Y-77470000D03*
%TO.P,U3,3,+*%
%TO.N,Net-(R19-Pad2)*%
X168846000Y-77470000D03*
%TO.P,U3,2,-*%
%TO.N,Net-(R20-Pad2)*%
X167576000Y-77470000D03*
%TO.P,U3,1*%
%TO.N,Net-(R22-Pad2)*%
X166306000Y-77470000D03*
%TD*%
%TO.P,U2,8,V+*%
%TO.N,+3V3*%
X157536000Y-72245000D03*
%TO.P,U2,7*%
%TO.N,Net-(R19-Pad1)*%
X158806000Y-72245000D03*
%TO.P,U2,6,-*%
X160076000Y-72245000D03*
%TO.P,U2,5,+*%
%TO.N,Net-(R17-Pad2)*%
X161346000Y-72245000D03*
%TO.P,U2,4,V-*%
%TO.N,GND*%
X161346000Y-77495000D03*
%TO.P,U2,3,+*%
%TO.N,Net-(R18-Pad2)*%
X160076000Y-77495000D03*
%TO.P,U2,2,-*%
%TO.N,Net-(R20-Pad1)*%
X158806000Y-77495000D03*
%TO.P,U2,1*%
X157536000Y-77495000D03*
%TD*%
D27*
%TO.P,U1,28,DA*%
%TO.N,Net-(R18-Pad2)*%
X150416000Y-79170000D03*
%TO.P,U1,27,VSS*%
%TO.N,GND*%
X149766000Y-79170000D03*
%TO.P,U1,26,S8A*%
%TO.N,Net-(C2-Pad1)*%
X149116000Y-79170000D03*
%TO.P,U1,25,S7A*%
%TO.N,Net-(C4-Pad1)*%
X148466000Y-79170000D03*
%TO.P,U1,24,S6A*%
%TO.N,Net-(C6-Pad1)*%
X147816000Y-79170000D03*
%TO.P,U1,23,S5A*%
%TO.N,Net-(C8-Pad1)*%
X147166000Y-79170000D03*
%TO.P,U1,22,S4A*%
%TO.N,Net-(C10-Pad1)*%
X146516000Y-79170000D03*
%TO.P,U1,21,S3A*%
%TO.N,Net-(C12-Pad1)*%
X145866000Y-79170000D03*
%TO.P,U1,20,S2A*%
%TO.N,Net-(C14-Pad1)*%
X145216000Y-79170000D03*
%TO.P,U1,19,S1A*%
%TO.N,Net-(C16-Pad1)*%
X144566000Y-79170000D03*
%TO.P,U1,18,EN*%
%TO.N,ASW_EN*%
X143916000Y-79170000D03*
%TO.P,U1,17,A0*%
%TO.N,ASW_A0*%
X143266000Y-79170000D03*
%TO.P,U1,16,A1*%
%TO.N,ASW_A1*%
X142616000Y-79170000D03*
%TO.P,U1,15,A2*%
%TO.N,ASW_A2*%
X141966000Y-79170000D03*
%TO.P,U1,14*%
%TO.N,N/C*%
X141966000Y-71970000D03*
%TO.P,U1,13*%
X142616000Y-71970000D03*
%TO.P,U1,12,GND*%
%TO.N,GND*%
X143266000Y-71970000D03*
%TO.P,U1,11,S1B*%
%TO.N,Net-(C15-Pad2)*%
X143916000Y-71970000D03*
%TO.P,U1,10,S2B*%
%TO.N,Net-(C13-Pad2)*%
X144566000Y-71970000D03*
%TO.P,U1,9,S3B*%
%TO.N,Net-(C11-Pad2)*%
X145216000Y-71970000D03*
%TO.P,U1,8,S4B*%
%TO.N,Net-(C9-Pad2)*%
X145866000Y-71970000D03*
%TO.P,U1,7,S5B*%
%TO.N,Net-(C7-Pad2)*%
X146516000Y-71970000D03*
%TO.P,U1,6,S6B*%
%TO.N,Net-(C5-Pad2)*%
X147166000Y-71970000D03*
%TO.P,U1,5,S7B*%
%TO.N,Net-(C3-Pad2)*%
X147816000Y-71970000D03*
%TO.P,U1,4,S8B*%
%TO.N,Net-(C1-Pad2)*%
X148466000Y-71970000D03*
%TO.P,U1,3*%
%TO.N,N/C*%
X149116000Y-71970000D03*
%TO.P,U1,2,DB*%
%TO.N,Net-(R17-Pad2)*%
X149766000Y-71970000D03*
%TO.P,U1,1,VDD*%
%TO.N,+3V3*%
X150416000Y-71970000D03*
%TD*%
D28*
%TO.P,SW2,1,1*%
%TO.N,Net-(R31-Pad1)*%
X192905000Y-84210000D03*
X184955000Y-84210000D03*
%TO.P,SW2,2,2*%
%TO.N,GND*%
X184955000Y-88710000D03*
X192905000Y-88710000D03*
%TD*%
%TO.P,SW1,2,2*%
%TO.N,+3V3*%
X192905000Y-74390000D03*
X184955000Y-74390000D03*
%TO.P,SW1,1,1*%
%TO.N,Net-(SW1-Pad1)*%
X184955000Y-69890000D03*
X192905000Y-69890000D03*
%TD*%
D29*
%TO.P,RV8,1*%
%TO.N,Net-(OUT_4-Pad1)*%
X146500000Y-129000000D03*
%TO.P,RV8,2*%
%TO.N,Net-(F8-Pad1)*%
X141500000Y-127800000D03*
%TD*%
%TO.P,RV7,2*%
%TO.N,Net-(F7-Pad1)*%
X116500000Y-127800000D03*
%TO.P,RV7,1*%
%TO.N,Net-(OUT_6-Pad1)*%
X121500000Y-129000000D03*
%TD*%
%TO.P,RV6,1*%
%TO.N,Net-(OUT_5-Pad1)*%
X134000000Y-129000000D03*
%TO.P,RV6,2*%
%TO.N,Net-(F6-Pad1)*%
X129000000Y-127800000D03*
%TD*%
%TO.P,RV5,1*%
%TO.N,Net-(OUT_7-Pad1)*%
X109000000Y-129100000D03*
%TO.P,RV5,2*%
%TO.N,Net-(F5-Pad1)*%
X104000000Y-127900000D03*
%TD*%
%TO.P,RV4,2*%
%TO.N,Net-(F4-Pad1)*%
X191500000Y-127900000D03*
%TO.P,RV4,1*%
%TO.N,Net-(OUT_0-Pad1)*%
X196500000Y-129100000D03*
%TD*%
%TO.P,RV3,1*%
%TO.N,Net-(OUT_2-Pad1)*%
X171500000Y-129100000D03*
%TO.P,RV3,2*%
%TO.N,Net-(F3-Pad1)*%
X166500000Y-127900000D03*
%TD*%
%TO.P,RV2,1*%
%TO.N,Net-(OUT_1-Pad1)*%
X184000000Y-129100000D03*
%TO.P,RV2,2*%
%TO.N,Net-(F2-Pad1)*%
X179000000Y-127900000D03*
%TD*%
%TO.P,RV1,1*%
%TO.N,Net-(OUT_3-Pad1)*%
X159000000Y-129100000D03*
%TO.P,RV1,2*%
%TO.N,Net-(F1-Pad1)*%
X154000000Y-127900000D03*
%TD*%
D30*
%TO.P,R43,1*%
%TO.N,+5V*%
X139462000Y-114300000D03*
%TO.P,R43,2*%
%TO.N,Net-(D8-Pad2)*%
X141462000Y-114300000D03*
%TD*%
%TO.P,R42,1*%
%TO.N,+5V*%
X114570000Y-114300000D03*
%TO.P,R42,2*%
%TO.N,Net-(D7-Pad2)*%
X116570000Y-114300000D03*
%TD*%
%TO.P,R41,1*%
%TO.N,+5V*%
X127016000Y-114300000D03*
%TO.P,R41,2*%
%TO.N,Net-(D6-Pad2)*%
X129016000Y-114300000D03*
%TD*%
%TO.P,R40,1*%
%TO.N,+5V*%
X102378000Y-114046000D03*
%TO.P,R40,2*%
%TO.N,Net-(D5-Pad2)*%
X104378000Y-114046000D03*
%TD*%
%TO.P,R39,2*%
%TO.N,Net-(D4-Pad2)*%
X191246000Y-114300000D03*
%TO.P,R39,1*%
%TO.N,+5V*%
X189246000Y-114300000D03*
%TD*%
%TO.P,R38,1*%
%TO.N,+5V*%
X164608000Y-114300000D03*
%TO.P,R38,2*%
%TO.N,Net-(D3-Pad2)*%
X166608000Y-114300000D03*
%TD*%
%TO.P,R37,1*%
%TO.N,+5V*%
X177038000Y-114300000D03*
%TO.P,R37,2*%
%TO.N,Net-(D2-Pad2)*%
X179038000Y-114300000D03*
%TD*%
%TO.P,R36,1*%
%TO.N,+5V*%
X151924000Y-114300000D03*
%TO.P,R36,2*%
%TO.N,Net-(D1-Pad2)*%
X153924000Y-114300000D03*
%TD*%
D31*
%TO.P,R35,1*%
%TO.N,CS0*%
X135465000Y-100130000D03*
%TO.P,R35,2*%
%TO.N,CS3*%
X137290000Y-100130000D03*
%TD*%
D10*
%TO.P,R34,1*%
%TO.N,CS0*%
X125750000Y-109357500D03*
%TO.P,R34,2*%
%TO.N,CS2*%
X125750000Y-111182500D03*
%TD*%
D31*
%TO.P,R33,1*%
%TO.N,Net-(R33-Pad1)*%
X133170000Y-83720000D03*
%TO.P,R33,2*%
%TO.N,/mcu/USB+*%
X134995000Y-83720000D03*
%TD*%
%TO.P,R32,1*%
%TO.N,Net-(R32-Pad1)*%
X133180000Y-85360000D03*
%TO.P,R32,2*%
%TO.N,Net-(J5-Pad1)*%
X135005000Y-85360000D03*
%TD*%
D32*
%TO.P,R31,1*%
%TO.N,Net-(R31-Pad1)*%
X184870000Y-80042500D03*
%TO.P,R31,2*%
%TO.N,+3V3*%
X184870000Y-78217500D03*
%TD*%
D31*
%TO.P,R30,2*%
%TO.N,+3V3*%
X188623500Y-63005000D03*
%TO.P,R30,1*%
%TO.N,SW_3*%
X186798500Y-63005000D03*
%TD*%
%TO.P,R29,2*%
%TO.N,+3V3*%
X183473500Y-63025000D03*
%TO.P,R29,1*%
%TO.N,SW_2*%
X181648500Y-63025000D03*
%TD*%
%TO.P,R28,2*%
%TO.N,+3V3*%
X178373500Y-63005000D03*
%TO.P,R28,1*%
%TO.N,SW_1*%
X176548500Y-63005000D03*
%TD*%
%TO.P,R27,2*%
%TO.N,+3V3*%
X173273500Y-63025000D03*
%TO.P,R27,1*%
%TO.N,SW_0*%
X171448500Y-63025000D03*
%TD*%
D10*
%TO.P,R26,1*%
%TO.N,SENSOR_READY*%
X157060000Y-82910000D03*
%TO.P,R26,2*%
%TO.N,GND*%
X157060000Y-84735000D03*
%TD*%
D33*
%TO.P,R25,1*%
%TO.N,SENSOR_TICK*%
X167550000Y-84250000D03*
%TO.P,R25,2*%
%TO.N,Net-(Q1-Pad1)*%
X165725000Y-84250000D03*
%TD*%
D32*
%TO.P,R24,2*%
%TO.N,GND*%
X170561000Y-67982500D03*
%TO.P,R24,1*%
%TO.N,Net-(R23-Pad2)*%
X170561000Y-69807500D03*
%TD*%
D31*
%TO.P,R23,2*%
%TO.N,Net-(R23-Pad2)*%
X168663500Y-69825000D03*
%TO.P,R23,1*%
%TO.N,+3V3*%
X166838500Y-69825000D03*
%TD*%
%TO.P,R22,2*%
%TO.N,Net-(R22-Pad2)*%
X166186000Y-79795000D03*
%TO.P,R22,1*%
%TO.N,Net-(R20-Pad2)*%
X164361000Y-79795000D03*
%TD*%
%TO.P,R21,2*%
%TO.N,GND*%
X170186000Y-79770000D03*
%TO.P,R21,1*%
%TO.N,Net-(R19-Pad2)*%
X168361000Y-79770000D03*
%TD*%
%TO.P,R20,1*%
%TO.N,Net-(R20-Pad1)*%
X155153500Y-79770000D03*
%TO.P,R20,2*%
%TO.N,Net-(R20-Pad2)*%
X156978500Y-79770000D03*
%TD*%
D10*
%TO.P,R19,2*%
%TO.N,Net-(R19-Pad2)*%
X163691000Y-77807500D03*
%TO.P,R19,1*%
%TO.N,Net-(R19-Pad1)*%
X163691000Y-75982500D03*
%TD*%
D32*
%TO.P,R18,2*%
%TO.N,Net-(R18-Pad2)*%
X153016000Y-77757500D03*
%TO.P,R18,1*%
%TO.N,GND*%
X153016000Y-79582500D03*
%TD*%
D33*
%TO.P,R17,2*%
%TO.N,Net-(R17-Pad2)*%
X153003500Y-75470000D03*
%TO.P,R17,1*%
%TO.N,+3V3*%
X154828500Y-75470000D03*
%TD*%
D32*
%TO.P,R16,2*%
%TO.N,GND*%
X127531000Y-65285000D03*
%TO.P,R16,1*%
%TO.N,Net-(C16-Pad1)*%
X127531000Y-67110000D03*
%TD*%
D10*
%TO.P,R15,2*%
%TO.N,Net-(C15-Pad2)*%
X130041000Y-67100000D03*
%TO.P,R15,1*%
%TO.N,GND*%
X130041000Y-65275000D03*
%TD*%
D32*
%TO.P,R14,2*%
%TO.N,GND*%
X132611000Y-65272500D03*
%TO.P,R14,1*%
%TO.N,Net-(C14-Pad1)*%
X132611000Y-67097500D03*
%TD*%
D10*
%TO.P,R13,2*%
%TO.N,Net-(C13-Pad2)*%
X135161000Y-67089500D03*
%TO.P,R13,1*%
%TO.N,GND*%
X135161000Y-65264500D03*
%TD*%
D32*
%TO.P,R12,2*%
%TO.N,GND*%
X137701000Y-65264500D03*
%TO.P,R12,1*%
%TO.N,Net-(C12-Pad1)*%
X137701000Y-67089500D03*
%TD*%
D10*
%TO.P,R11,2*%
%TO.N,Net-(C11-Pad2)*%
X140241000Y-67089500D03*
%TO.P,R11,1*%
%TO.N,GND*%
X140241000Y-65264500D03*
%TD*%
D32*
%TO.P,R10,2*%
%TO.N,GND*%
X142781000Y-65264500D03*
%TO.P,R10,1*%
%TO.N,Net-(C10-Pad1)*%
X142781000Y-67089500D03*
%TD*%
D10*
%TO.P,R9,2*%
%TO.N,Net-(C9-Pad2)*%
X145321000Y-67089500D03*
%TO.P,R9,1*%
%TO.N,GND*%
X145321000Y-65264500D03*
%TD*%
D32*
%TO.P,R8,2*%
%TO.N,GND*%
X147916000Y-65307500D03*
%TO.P,R8,1*%
%TO.N,Net-(C8-Pad1)*%
X147916000Y-67132500D03*
%TD*%
D10*
%TO.P,R7,2*%
%TO.N,Net-(C7-Pad2)*%
X150441000Y-67107500D03*
%TO.P,R7,1*%
%TO.N,GND*%
X150441000Y-65282500D03*
%TD*%
D32*
%TO.P,R6,2*%
%TO.N,GND*%
X153016000Y-65282500D03*
%TO.P,R6,1*%
%TO.N,Net-(C6-Pad1)*%
X153016000Y-67107500D03*
%TD*%
D10*
%TO.P,R5,2*%
%TO.N,Net-(C5-Pad2)*%
X155541000Y-67107500D03*
%TO.P,R5,1*%
%TO.N,GND*%
X155541000Y-65282500D03*
%TD*%
D32*
%TO.P,R4,2*%
%TO.N,GND*%
X158091000Y-65282500D03*
%TO.P,R4,1*%
%TO.N,Net-(C4-Pad1)*%
X158091000Y-67107500D03*
%TD*%
D10*
%TO.P,R3,2*%
%TO.N,Net-(C3-Pad2)*%
X160666000Y-67107500D03*
%TO.P,R3,1*%
%TO.N,GND*%
X160666000Y-65282500D03*
%TD*%
D32*
%TO.P,R2,1*%
%TO.N,Net-(C2-Pad1)*%
X163186000Y-67107500D03*
%TO.P,R2,2*%
%TO.N,GND*%
X163186000Y-65282500D03*
%TD*%
D10*
%TO.P,R1,1*%
%TO.N,GND*%
X165716000Y-65282500D03*
%TO.P,R1,2*%
%TO.N,Net-(C1-Pad2)*%
X165716000Y-67107500D03*
%TD*%
D34*
%TO.P,Q9,1,B*%
%TO.N,OUT_4*%
X148778000Y-112346500D03*
%TO.P,Q9,2,E*%
%TO.N,GND*%
X146878000Y-112346500D03*
%TO.P,Q9,3,C*%
%TO.N,Net-(Q9-Pad3)*%
X147828000Y-114221500D03*
%TD*%
%TO.P,Q8,1,B*%
%TO.N,OUT_6*%
X123632000Y-112346500D03*
%TO.P,Q8,2,E*%
%TO.N,GND*%
X121732000Y-112346500D03*
%TO.P,Q8,3,C*%
%TO.N,Net-(Q8-Pad3)*%
X122682000Y-114221500D03*
%TD*%
%TO.P,Q7,1,B*%
%TO.N,OUT_5*%
X136078000Y-112346500D03*
%TO.P,Q7,2,E*%
%TO.N,GND*%
X134178000Y-112346500D03*
%TO.P,Q7,3,C*%
%TO.N,Net-(Q7-Pad3)*%
X135128000Y-114221500D03*
%TD*%
%TO.P,Q6,3,C*%
%TO.N,Net-(Q6-Pad3)*%
X110236000Y-113967500D03*
%TO.P,Q6,2,E*%
%TO.N,GND*%
X109286000Y-112092500D03*
%TO.P,Q6,1,B*%
%TO.N,OUT_7*%
X111186000Y-112092500D03*
%TD*%
%TO.P,Q5,3,C*%
%TO.N,Net-(Q5-Pad3)*%
X196596000Y-114221500D03*
%TO.P,Q5,2,E*%
%TO.N,GND*%
X195646000Y-112346500D03*
%TO.P,Q5,1,B*%
%TO.N,OUT_0*%
X197546000Y-112346500D03*
%TD*%
%TO.P,Q4,3,C*%
%TO.N,Net-(Q4-Pad3)*%
X172720000Y-114221500D03*
%TO.P,Q4,2,E*%
%TO.N,GND*%
X171770000Y-112346500D03*
%TO.P,Q4,1,B*%
%TO.N,OUT_2*%
X173670000Y-112346500D03*
%TD*%
%TO.P,Q3,3,C*%
%TO.N,Net-(Q3-Pad3)*%
X185166000Y-114221500D03*
%TO.P,Q3,2,E*%
%TO.N,GND*%
X184216000Y-112346500D03*
%TO.P,Q3,1,B*%
%TO.N,OUT_1*%
X186116000Y-112346500D03*
%TD*%
%TO.P,Q2,1,B*%
%TO.N,OUT_3*%
X160970000Y-112346500D03*
%TO.P,Q2,2,E*%
%TO.N,GND*%
X159070000Y-112346500D03*
%TO.P,Q2,3,C*%
%TO.N,Net-(Q2-Pad3)*%
X160020000Y-114221500D03*
%TD*%
D35*
%TO.P,OUT_7,2,Pin_2*%
%TO.N,Net-(F5-Pad2)*%
X103400000Y-143610000D03*
%TO.P,OUT_7,1,Pin_1*%
%TO.N,Net-(OUT_7-Pad1)*%
X108480000Y-143610000D03*
%TD*%
%TO.P,OUT_6,2,Pin_2*%
%TO.N,Net-(F7-Pad2)*%
X115900000Y-143610000D03*
%TO.P,OUT_6,1,Pin_1*%
%TO.N,Net-(OUT_6-Pad1)*%
X120980000Y-143610000D03*
%TD*%
%TO.P,OUT_5,1,Pin_1*%
%TO.N,Net-(OUT_5-Pad1)*%
X133480000Y-143610000D03*
%TO.P,OUT_5,2,Pin_2*%
%TO.N,Net-(F6-Pad2)*%
X128400000Y-143610000D03*
%TD*%
%TO.P,OUT_4,1,Pin_1*%
%TO.N,Net-(OUT_4-Pad1)*%
X145980000Y-143610000D03*
%TO.P,OUT_4,2,Pin_2*%
%TO.N,Net-(F8-Pad2)*%
X140900000Y-143610000D03*
%TD*%
%TO.P,OUT_3,1,Pin_1*%
%TO.N,Net-(OUT_3-Pad1)*%
X158486600Y-143610000D03*
%TO.P,OUT_3,2,Pin_2*%
%TO.N,Net-(F1-Pad2)*%
X153406600Y-143610000D03*
%TD*%
%TO.P,OUT_2,1,Pin_1*%
%TO.N,Net-(OUT_2-Pad1)*%
X170986600Y-143610000D03*
%TO.P,OUT_2,2,Pin_2*%
%TO.N,Net-(F3-Pad2)*%
X165906600Y-143610000D03*
%TD*%
%TO.P,OUT_1,1,Pin_1*%
%TO.N,Net-(OUT_1-Pad1)*%
X183480000Y-143610000D03*
%TO.P,OUT_1,2,Pin_2*%
%TO.N,Net-(F2-Pad2)*%
X178400000Y-143610000D03*
%TD*%
%TO.P,OUT_0,2,Pin_2*%
%TO.N,Net-(F4-Pad2)*%
X190900000Y-143610000D03*
%TO.P,OUT_0,1,Pin_1*%
%TO.N,Net-(OUT_0-Pad1)*%
X195980000Y-143610000D03*
%TD*%
D36*
%TO.P,J7,10,Pin_10*%
%TO.N,GND*%
X102466000Y-107858000D03*
%TO.P,J7,9,Pin_9*%
%TO.N,SCLK*%
X105006000Y-107858000D03*
%TO.P,J7,8,Pin_8*%
%TO.N,GND*%
X102466000Y-105318000D03*
%TO.P,J7,7,Pin_7*%
%TO.N,MOSI*%
X105006000Y-105318000D03*
%TO.P,J7,6,Pin_6*%
%TO.N,GND*%
X102466000Y-102778000D03*
%TO.P,J7,5,Pin_5*%
%TO.N,MISO*%
X105006000Y-102778000D03*
%TO.P,J7,4,Pin_4*%
%TO.N,+5V*%
X102466000Y-100238000D03*
%TO.P,J7,3,Pin_3*%
%TO.N,CS3*%
X105006000Y-100238000D03*
%TO.P,J7,2,Pin_2*%
%TO.N,+5V*%
X102466000Y-97698000D03*
D37*
%TO.P,J7,1,Pin_1*%
%TO.N,CS2*%
X105006000Y-97698000D03*
%TD*%
D36*
%TO.P,J6,10,Pin_10*%
%TO.N,GND*%
X197315000Y-107835000D03*
%TO.P,J6,9,Pin_9*%
%TO.N,SCLK*%
X194775000Y-107835000D03*
%TO.P,J6,8,Pin_8*%
%TO.N,GND*%
X197315000Y-105295000D03*
%TO.P,J6,7,Pin_7*%
%TO.N,MOSI*%
X194775000Y-105295000D03*
%TO.P,J6,6,Pin_6*%
%TO.N,GND*%
X197315000Y-102755000D03*
%TO.P,J6,5,Pin_5*%
%TO.N,MISO*%
X194775000Y-102755000D03*
%TO.P,J6,4,Pin_4*%
%TO.N,+5V*%
X197315000Y-100215000D03*
%TO.P,J6,3,Pin_3*%
%TO.N,CS3*%
X194775000Y-100215000D03*
%TO.P,J6,2,Pin_2*%
%TO.N,+5V*%
X197315000Y-97675000D03*
D37*
%TO.P,J6,1,Pin_1*%
%TO.N,CS2*%
X194775000Y-97675000D03*
%TD*%
%TO.P,J4,1,Pin_1*%
%TO.N,+3V3*%
X144660000Y-99120000D03*
D36*
%TO.P,J4,2,Pin_2*%
%TO.N,Net-(J4-Pad2)*%
X147200000Y-99120000D03*
%TO.P,J4,3,Pin_3*%
%TO.N,Net-(J4-Pad3)*%
X149740000Y-99120000D03*
%TO.P,J4,4,Pin_4*%
%TO.N,GND*%
X152280000Y-99120000D03*
%TD*%
%TO.P,J3,8,Pin_8*%
%TO.N,Net-(FB24-Pad1)*%
X189306000Y-53995000D03*
%TO.P,J3,7,Pin_7*%
%TO.N,Net-(FB23-Pad1)*%
X186766000Y-53995000D03*
%TO.P,J3,6,Pin_6*%
%TO.N,Net-(FB22-Pad1)*%
X184226000Y-53995000D03*
%TO.P,J3,5,Pin_5*%
%TO.N,Net-(FB21-Pad1)*%
X181686000Y-53995000D03*
%TO.P,J3,4,Pin_4*%
%TO.N,Net-(FB20-Pad1)*%
X179146000Y-53995000D03*
%TO.P,J3,3,Pin_3*%
%TO.N,Net-(FB19-Pad1)*%
X176606000Y-53995000D03*
%TO.P,J3,2,Pin_2*%
%TO.N,Net-(FB18-Pad1)*%
X174066000Y-53995000D03*
D37*
%TO.P,J3,1,Pin_1*%
%TO.N,Net-(FB17-Pad1)*%
X171526000Y-53995000D03*
%TD*%
D36*
%TO.P,J2,8,Pin_8*%
%TO.N,Net-(FB16-Pad1)*%
X127446000Y-54005000D03*
%TO.P,J2,7,Pin_7*%
%TO.N,Net-(FB15-Pad1)*%
X129986000Y-54005000D03*
%TO.P,J2,6,Pin_6*%
%TO.N,Net-(FB14-Pad1)*%
X132526000Y-54005000D03*
%TO.P,J2,5,Pin_5*%
%TO.N,Net-(FB13-Pad1)*%
X135066000Y-54005000D03*
%TO.P,J2,4,Pin_4*%
%TO.N,Net-(FB12-Pad1)*%
X137606000Y-54005000D03*
%TO.P,J2,3,Pin_3*%
%TO.N,Net-(FB11-Pad1)*%
X140146000Y-54005000D03*
%TO.P,J2,2,Pin_2*%
%TO.N,Net-(FB10-Pad1)*%
X142686000Y-54005000D03*
D37*
%TO.P,J2,1,Pin_1*%
%TO.N,Net-(FB9-Pad1)*%
X145226000Y-54005000D03*
%TD*%
D36*
%TO.P,J1,8,Pin_8*%
%TO.N,Net-(FB8-Pad1)*%
X147881000Y-54005000D03*
%TO.P,J1,7,Pin_7*%
%TO.N,Net-(FB7-Pad1)*%
X150421000Y-54005000D03*
%TO.P,J1,6,Pin_6*%
%TO.N,Net-(FB6-Pad1)*%
X152961000Y-54005000D03*
%TO.P,J1,5,Pin_5*%
%TO.N,Net-(FB5-Pad1)*%
X155501000Y-54005000D03*
%TO.P,J1,4,Pin_4*%
%TO.N,Net-(FB4-Pad1)*%
X158041000Y-54005000D03*
%TO.P,J1,3,Pin_3*%
%TO.N,Net-(FB3-Pad1)*%
X160581000Y-54005000D03*
%TO.P,J1,2,Pin_2*%
%TO.N,Net-(FB2-Pad1)*%
X163121000Y-54005000D03*
D37*
%TO.P,J1,1,Pin_1*%
%TO.N,Net-(FB1-Pad1)*%
X165661000Y-54005000D03*
%TD*%
D38*
%TO.P,FB24,2*%
%TO.N,GND*%
X189351000Y-58685000D03*
%TO.P,FB24,1*%
%TO.N,Net-(FB24-Pad1)*%
X189351000Y-56960000D03*
%TD*%
%TO.P,FB23,2*%
%TO.N,SW_3*%
X186781000Y-58697500D03*
%TO.P,FB23,1*%
%TO.N,Net-(FB23-Pad1)*%
X186781000Y-56972500D03*
%TD*%
%TO.P,FB22,2*%
%TO.N,GND*%
X184241000Y-58657500D03*
%TO.P,FB22,1*%
%TO.N,Net-(FB22-Pad1)*%
X184241000Y-56932500D03*
%TD*%
%TO.P,FB21,2*%
%TO.N,SW_2*%
X181681000Y-58657500D03*
%TO.P,FB21,1*%
%TO.N,Net-(FB21-Pad1)*%
X181681000Y-56932500D03*
%TD*%
%TO.P,FB20,2*%
%TO.N,GND*%
X179161000Y-58667500D03*
%TO.P,FB20,1*%
%TO.N,Net-(FB20-Pad1)*%
X179161000Y-56942500D03*
%TD*%
%TO.P,FB19,2*%
%TO.N,SW_1*%
X176591000Y-58695000D03*
%TO.P,FB19,1*%
%TO.N,Net-(FB19-Pad1)*%
X176591000Y-56970000D03*
%TD*%
%TO.P,FB18,2*%
%TO.N,GND*%
X174061000Y-58727500D03*
%TO.P,FB18,1*%
%TO.N,Net-(FB18-Pad1)*%
X174061000Y-57002500D03*
%TD*%
%TO.P,FB17,2*%
%TO.N,SW_0*%
X171551000Y-58705000D03*
%TO.P,FB17,1*%
%TO.N,Net-(FB17-Pad1)*%
X171551000Y-56980000D03*
%TD*%
%TO.P,FB16,1*%
%TO.N,Net-(FB16-Pad1)*%
X127511000Y-56992500D03*
%TO.P,FB16,2*%
%TO.N,Net-(C16-Pad1)*%
X127511000Y-58717500D03*
%TD*%
%TO.P,FB15,2*%
%TO.N,Net-(C15-Pad2)*%
X130031000Y-58717500D03*
%TO.P,FB15,1*%
%TO.N,Net-(FB15-Pad1)*%
X130031000Y-56992500D03*
%TD*%
%TO.P,FB14,2*%
%TO.N,Net-(C14-Pad1)*%
X132581000Y-58707500D03*
%TO.P,FB14,1*%
%TO.N,Net-(FB14-Pad1)*%
X132581000Y-56982500D03*
%TD*%
%TO.P,FB13,2*%
%TO.N,Net-(C13-Pad2)*%
X135111000Y-58697500D03*
%TO.P,FB13,1*%
%TO.N,Net-(FB13-Pad1)*%
X135111000Y-56972500D03*
%TD*%
%TO.P,FB12,2*%
%TO.N,Net-(C12-Pad1)*%
X137651000Y-58707500D03*
%TO.P,FB12,1*%
%TO.N,Net-(FB12-Pad1)*%
X137651000Y-56982500D03*
%TD*%
%TO.P,FB11,2*%
%TO.N,Net-(C11-Pad2)*%
X140191000Y-58717500D03*
%TO.P,FB11,1*%
%TO.N,Net-(FB11-Pad1)*%
X140191000Y-56992500D03*
%TD*%
%TO.P,FB10,2*%
%TO.N,Net-(C10-Pad1)*%
X142731000Y-58717500D03*
%TO.P,FB10,1*%
%TO.N,Net-(FB10-Pad1)*%
X142731000Y-56992500D03*
%TD*%
%TO.P,FB9,1*%
%TO.N,Net-(FB9-Pad1)*%
X145271000Y-56952500D03*
%TO.P,FB9,2*%
%TO.N,Net-(C9-Pad2)*%
X145271000Y-58677500D03*
%TD*%
%TO.P,FB8,1*%
%TO.N,Net-(FB8-Pad1)*%
X147941000Y-57007500D03*
%TO.P,FB8,2*%
%TO.N,Net-(C8-Pad1)*%
X147941000Y-58732500D03*
%TD*%
%TO.P,FB7,2*%
%TO.N,Net-(C7-Pad2)*%
X150466000Y-58732500D03*
%TO.P,FB7,1*%
%TO.N,Net-(FB7-Pad1)*%
X150466000Y-57007500D03*
%TD*%
%TO.P,FB6,2*%
%TO.N,Net-(C6-Pad1)*%
X153016000Y-58732500D03*
%TO.P,FB6,1*%
%TO.N,Net-(FB6-Pad1)*%
X153016000Y-57007500D03*
%TD*%
%TO.P,FB5,2*%
%TO.N,Net-(C5-Pad2)*%
X155541000Y-58732500D03*
%TO.P,FB5,1*%
%TO.N,Net-(FB5-Pad1)*%
X155541000Y-57007500D03*
%TD*%
%TO.P,FB4,2*%
%TO.N,Net-(C4-Pad1)*%
X158091000Y-58707500D03*
%TO.P,FB4,1*%
%TO.N,Net-(FB4-Pad1)*%
X158091000Y-56982500D03*
%TD*%
%TO.P,FB3,2*%
%TO.N,Net-(C3-Pad2)*%
X160616000Y-58707500D03*
%TO.P,FB3,1*%
%TO.N,Net-(FB3-Pad1)*%
X160616000Y-56982500D03*
%TD*%
%TO.P,FB2,2*%
%TO.N,Net-(C2-Pad1)*%
X163166000Y-58732500D03*
%TO.P,FB2,1*%
%TO.N,Net-(FB2-Pad1)*%
X163166000Y-57007500D03*
%TD*%
%TO.P,FB1,1*%
%TO.N,Net-(FB1-Pad1)*%
X165716000Y-57007500D03*
%TO.P,FB1,2*%
%TO.N,Net-(C1-Pad2)*%
X165716000Y-58732500D03*
%TD*%
D39*
%TO.P,D8,1,K*%
%TO.N,Net-(D8-Pad1)*%
X144780000Y-114413000D03*
%TO.P,D8,2,A*%
%TO.N,Net-(D8-Pad2)*%
X144780000Y-112663000D03*
%TD*%
%TO.P,D7,1,K*%
%TO.N,Net-(D7-Pad1)*%
X119634000Y-114413000D03*
%TO.P,D7,2,A*%
%TO.N,Net-(D7-Pad2)*%
X119634000Y-112663000D03*
%TD*%
%TO.P,D6,1,K*%
%TO.N,Net-(D6-Pad1)*%
X132080000Y-114413000D03*
%TO.P,D6,2,A*%
%TO.N,Net-(D6-Pad2)*%
X132080000Y-112663000D03*
%TD*%
%TO.P,D5,1,K*%
%TO.N,Net-(D5-Pad1)*%
X107188000Y-114159000D03*
%TO.P,D5,2,A*%
%TO.N,Net-(D5-Pad2)*%
X107188000Y-112409000D03*
%TD*%
%TO.P,D4,1,K*%
%TO.N,Net-(D4-Pad1)*%
X193548000Y-114413000D03*
%TO.P,D4,2,A*%
%TO.N,Net-(D4-Pad2)*%
X193548000Y-112663000D03*
%TD*%
%TO.P,D3,1,K*%
%TO.N,Net-(D3-Pad1)*%
X169672000Y-114413000D03*
%TO.P,D3,2,A*%
%TO.N,Net-(D3-Pad2)*%
X169672000Y-112663000D03*
%TD*%
%TO.P,D2,1,K*%
%TO.N,Net-(D2-Pad1)*%
X182118000Y-114413000D03*
%TO.P,D2,2,A*%
%TO.N,Net-(D2-Pad2)*%
X182118000Y-112663000D03*
%TD*%
%TO.P,D1,1,K*%
%TO.N,Net-(D1-Pad1)*%
X156972000Y-114413000D03*
%TO.P,D1,2,A*%
%TO.N,Net-(D1-Pad2)*%
X156972000Y-112663000D03*
%TD*%
D40*
%TO.P,C38,2*%
%TO.N,GND*%
X128220000Y-84247500D03*
%TO.P,C38,1*%
%TO.N,Net-(C35-Pad1)*%
X128220000Y-85972500D03*
%TD*%
D41*
%TO.P,C37,1*%
%TO.N,Net-(C35-Pad1)*%
X132627500Y-87200000D03*
%TO.P,C37,2*%
%TO.N,GND*%
X134352500Y-87200000D03*
%TD*%
D42*
%TO.P,C36,2*%
%TO.N,GND*%
X122137500Y-97260000D03*
%TO.P,C36,1*%
%TO.N,Net-(C35-Pad1)*%
X123862500Y-97260000D03*
%TD*%
D43*
%TO.P,C35,2*%
%TO.N,GND*%
X121742500Y-95280000D03*
%TO.P,C35,1*%
%TO.N,Net-(C35-Pad1)*%
X123817500Y-95280000D03*
%TD*%
%TO.P,C34,2*%
%TO.N,GND*%
X121752500Y-93070000D03*
%TO.P,C34,1*%
%TO.N,+3V3*%
X123827500Y-93070000D03*
%TD*%
D42*
%TO.P,C33,2*%
%TO.N,GND*%
X122167500Y-91060000D03*
%TO.P,C33,1*%
%TO.N,+3V3*%
X123892500Y-91060000D03*
%TD*%
D40*
%TO.P,C32,1*%
%TO.N,+3V3*%
X126470000Y-88312500D03*
%TO.P,C32,2*%
%TO.N,GND*%
X126470000Y-86587500D03*
%TD*%
D41*
%TO.P,C31,1*%
%TO.N,+3V3*%
X138110000Y-92070000D03*
%TO.P,C31,2*%
%TO.N,GND*%
X139835000Y-92070000D03*
%TD*%
D38*
%TO.P,C30,1*%
%TO.N,+3V3*%
X127700000Y-100347500D03*
%TO.P,C30,2*%
%TO.N,GND*%
X127700000Y-102072500D03*
%TD*%
D42*
%TO.P,C29,1*%
%TO.N,Net-(C29-Pad1)*%
X129297500Y-82040000D03*
%TO.P,C29,2*%
%TO.N,GND*%
X127572500Y-82040000D03*
%TD*%
D41*
%TO.P,C28,1*%
%TO.N,Net-(C28-Pad1)*%
X131357500Y-82040000D03*
%TO.P,C28,2*%
%TO.N,GND*%
X133082500Y-82040000D03*
%TD*%
D44*
%TO.P,C27,1*%
%TO.N,GND*%
X118780000Y-87377500D03*
%TO.P,C27,2*%
%TO.N,+3V3*%
X118780000Y-85302500D03*
%TD*%
%TO.P,C26,1*%
%TO.N,GND*%
X110470000Y-87377500D03*
%TO.P,C26,2*%
%TO.N,+5V*%
X110470000Y-85302500D03*
%TD*%
D42*
%TO.P,C25,1*%
%TO.N,+3V3*%
X141152500Y-101710000D03*
%TO.P,C25,2*%
%TO.N,GND*%
X139427500Y-101710000D03*
%TD*%
D41*
%TO.P,C24,2*%
%TO.N,GND*%
X188516000Y-61095000D03*
%TO.P,C24,1*%
%TO.N,SW_3*%
X186791000Y-61095000D03*
%TD*%
%TO.P,C23,2*%
%TO.N,GND*%
X183391000Y-61095000D03*
%TO.P,C23,1*%
%TO.N,SW_2*%
X181666000Y-61095000D03*
%TD*%
%TO.P,C22,2*%
%TO.N,GND*%
X178311000Y-61095000D03*
%TO.P,C22,1*%
%TO.N,SW_1*%
X176586000Y-61095000D03*
%TD*%
%TO.P,C21,2*%
%TO.N,GND*%
X173261000Y-61095000D03*
%TO.P,C21,1*%
%TO.N,SW_0*%
X171536000Y-61095000D03*
%TD*%
D40*
%TO.P,C20,2*%
%TO.N,+3V3*%
X159280000Y-81585000D03*
%TO.P,C20,1*%
%TO.N,SENSOR_READY*%
X159280000Y-83310000D03*
%TD*%
D38*
%TO.P,C19,2*%
%TO.N,GND*%
X163641000Y-73682500D03*
%TO.P,C19,1*%
%TO.N,+3V3*%
X163641000Y-71957500D03*
%TD*%
%TO.P,C18,2*%
%TO.N,GND*%
X155216000Y-73332500D03*
%TO.P,C18,1*%
%TO.N,+3V3*%
X155216000Y-71607500D03*
%TD*%
%TO.P,C17,2*%
%TO.N,GND*%
X153016000Y-73332500D03*
%TO.P,C17,1*%
%TO.N,+3V3*%
X153016000Y-71607500D03*
%TD*%
%TO.P,C16,1*%
%TO.N,Net-(C16-Pad1)*%
X127511000Y-61155000D03*
%TO.P,C16,2*%
%TO.N,GND*%
X127511000Y-62880000D03*
%TD*%
D40*
%TO.P,C15,2*%
%TO.N,Net-(C15-Pad2)*%
X130041000Y-61170000D03*
%TO.P,C15,1*%
%TO.N,GND*%
X130041000Y-62895000D03*
%TD*%
D38*
%TO.P,C14,2*%
%TO.N,GND*%
X132581000Y-62882500D03*
%TO.P,C14,1*%
%TO.N,Net-(C14-Pad1)*%
X132581000Y-61157500D03*
%TD*%
D40*
%TO.P,C13,2*%
%TO.N,Net-(C13-Pad2)*%
X135116000Y-61157500D03*
%TO.P,C13,1*%
%TO.N,GND*%
X135116000Y-62882500D03*
%TD*%
D38*
%TO.P,C12,2*%
%TO.N,GND*%
X137661000Y-62840000D03*
%TO.P,C12,1*%
%TO.N,Net-(C12-Pad1)*%
X137661000Y-61115000D03*
%TD*%
D40*
%TO.P,C11,2*%
%TO.N,Net-(C11-Pad2)*%
X140201000Y-61157500D03*
%TO.P,C11,1*%
%TO.N,GND*%
X140201000Y-62882500D03*
%TD*%
D38*
%TO.P,C10,2*%
%TO.N,GND*%
X142741000Y-62895000D03*
%TO.P,C10,1*%
%TO.N,Net-(C10-Pad1)*%
X142741000Y-61170000D03*
%TD*%
D40*
%TO.P,C9,2*%
%TO.N,Net-(C9-Pad2)*%
X145291000Y-61182500D03*
%TO.P,C9,1*%
%TO.N,GND*%
X145291000Y-62907500D03*
%TD*%
D38*
%TO.P,C8,2*%
%TO.N,GND*%
X147891000Y-62882500D03*
%TO.P,C8,1*%
%TO.N,Net-(C8-Pad1)*%
X147891000Y-61157500D03*
%TD*%
D40*
%TO.P,C7,2*%
%TO.N,Net-(C7-Pad2)*%
X150416000Y-61145000D03*
%TO.P,C7,1*%
%TO.N,GND*%
X150416000Y-62870000D03*
%TD*%
D38*
%TO.P,C6,2*%
%TO.N,GND*%
X153016000Y-62895000D03*
%TO.P,C6,1*%
%TO.N,Net-(C6-Pad1)*%
X153016000Y-61170000D03*
%TD*%
D40*
%TO.P,C5,2*%
%TO.N,Net-(C5-Pad2)*%
X155566000Y-61170000D03*
%TO.P,C5,1*%
%TO.N,GND*%
X155566000Y-62895000D03*
%TD*%
D38*
%TO.P,C4,2*%
%TO.N,GND*%
X158066000Y-62870000D03*
%TO.P,C4,1*%
%TO.N,Net-(C4-Pad1)*%
X158066000Y-61145000D03*
%TD*%
D40*
%TO.P,C3,2*%
%TO.N,Net-(C3-Pad2)*%
X160616000Y-61182500D03*
%TO.P,C3,1*%
%TO.N,GND*%
X160616000Y-62907500D03*
%TD*%
D38*
%TO.P,C2,1*%
%TO.N,Net-(C2-Pad1)*%
X163191000Y-61182500D03*
%TO.P,C2,2*%
%TO.N,GND*%
X163191000Y-62907500D03*
%TD*%
D40*
%TO.P,C1,1*%
%TO.N,GND*%
X165716000Y-62857500D03*
%TO.P,C1,2*%
%TO.N,Net-(C1-Pad2)*%
X165716000Y-61132500D03*
%TD*%
D45*
%TO.N,Net-(J5-Pad1)*%
X113050000Y-74600000D03*
X113040000Y-71650000D03*
%TO.N,GND*%
X134160000Y-82040000D03*
X105903000Y-76698000D03*
X105903000Y-75682000D03*
X105903000Y-74666000D03*
X146510000Y-115190000D03*
X108920000Y-114900000D03*
X121340000Y-115180000D03*
X133810000Y-115180000D03*
X158710000Y-115180000D03*
X171360000Y-115130000D03*
X183750000Y-115110000D03*
X118780000Y-88610000D03*
X114620000Y-90010000D03*
X110430000Y-88590000D03*
X126460000Y-85510000D03*
X127750000Y-83160000D03*
%TO.N,+3V3*%
X121340000Y-74590000D03*
X121320000Y-71630000D03*
X131780000Y-69760000D03*
X151366000Y-71970000D03*
%TO.N,GND*%
X140920000Y-92040000D03*
%TO.N,+3V3*%
X154280000Y-91340000D03*
X146410000Y-95260000D03*
X154400000Y-85070000D03*
%TO.N,GND*%
X189110000Y-88680000D03*
X169700000Y-67970000D03*
X188800000Y-59920000D03*
X183750000Y-59860000D03*
X178800000Y-59890000D03*
X173690000Y-59890000D03*
%TO.N,+3V3*%
X173790000Y-65850000D03*
X172180000Y-67420000D03*
X175420000Y-64120000D03*
X177440000Y-64190000D03*
X180060000Y-63180000D03*
X181330000Y-64530000D03*
X184180000Y-64190000D03*
X186720000Y-64250000D03*
%TO.N,GND*%
X153030000Y-80520000D03*
%TO.N,Net-(SW1-Pad1)*%
X174020000Y-69950000D03*
X178750000Y-69950000D03*
%TO.N,GND*%
X156200000Y-84710000D03*
%TO.N,SENSOR_READY*%
X159280000Y-85070000D03*
%TO.N,SENSOR_TICK*%
X167560000Y-85120000D03*
%TO.N,SENSOR_READY*%
X159300000Y-90300000D03*
%TO.N,SENSOR_TICK*%
X167550000Y-90230000D03*
X173210000Y-74120000D03*
X169190000Y-74120000D03*
%TO.N,ASW_EN*%
X140960000Y-82360000D03*
%TO.N,GND*%
X127700000Y-103280000D03*
X120990000Y-91050000D03*
X121030000Y-97280000D03*
X120540000Y-95290000D03*
X120540000Y-93080000D03*
X105930000Y-89330000D03*
X105930000Y-88400000D03*
X105930000Y-87470000D03*
%TO.N,CS2*%
X123930000Y-99300000D03*
X122180000Y-89590000D03*
X125560000Y-89590000D03*
X126560000Y-98870000D03*
X127190000Y-107030000D03*
%TO.N,CS0*%
X124870000Y-108360000D03*
%TO.N,CS2*%
X127210000Y-110620000D03*
%TO.N,GND*%
X137210000Y-107390000D03*
%TO.N,CS0*%
X131800000Y-104350000D03*
X132920000Y-102070000D03*
%TO.N,CS3*%
X138650000Y-99280000D03*
X138650000Y-96490000D03*
X138040000Y-102340000D03*
X132900000Y-105800000D03*
%TO.N,GND*%
X139040000Y-102900000D03*
%TO.N,ASW_A0*%
X122800000Y-74610000D03*
X122780000Y-71860000D03*
%TO.N,Net-(SW1-Pad1)*%
X144300000Y-85180000D03*
X140000000Y-84410000D03*
%TO.N,CS0*%
X134290000Y-103070000D03*
X134300000Y-100110000D03*
%TO.N,MISO*%
X132040000Y-106760000D03*
%TO.N,MOSI*%
X131250000Y-107610000D03*
%TO.N,SCLK*%
X130400000Y-108430000D03*
%TO.N,ASW_A0*%
X141090000Y-81150000D03*
X143450000Y-81130000D03*
%TO.N,ASW_EN*%
X144310000Y-82310000D03*
%TO.N,GND*%
X141870000Y-74900000D03*
X135380000Y-87200000D03*
D46*
%TO.N,Net-(C35-Pad1)*%
X130680000Y-93720000D03*
X131220000Y-91670000D03*
X129570000Y-92670000D03*
X129214030Y-94025970D03*
%TO.N,GND*%
X133780000Y-93880000D03*
X133700000Y-91800000D03*
X128110000Y-92200000D03*
D45*
X195260000Y-115070000D03*
%TO.N,Net-(C16-Pad1)*%
X140361000Y-71185000D03*
%TO.N,Net-(C14-Pad1)*%
X135291000Y-68585000D03*
%TO.N,Net-(C12-Pad1)*%
X141791000Y-68745000D03*
%TO.N,Net-(C10-Pad1)*%
X143771000Y-68335000D03*
%TO.N,GND*%
X165721000Y-64095000D03*
X163191000Y-64125000D03*
X160621000Y-64115000D03*
X158071000Y-64095000D03*
X155561000Y-64105000D03*
X153021000Y-64115000D03*
X150421000Y-64095000D03*
X147901000Y-64125000D03*
X145301000Y-64105000D03*
X142761000Y-64105000D03*
X140221000Y-64095000D03*
X137671000Y-64075000D03*
X135131000Y-64095000D03*
X132601000Y-64095000D03*
X130041000Y-64105000D03*
X127531000Y-64105000D03*
X161366000Y-75970000D03*
X164766000Y-73695000D03*
X170116000Y-76045000D03*
X150116000Y-77545000D03*
X154141000Y-73345000D03*
%TO.N,Net-(C16-Pad1)*%
X144041000Y-73970000D03*
%TO.N,Net-(C14-Pad1)*%
X144766000Y-74795000D03*
%TO.N,Net-(C12-Pad1)*%
X145566000Y-73970000D03*
%TO.N,Net-(C10-Pad1)*%
X146391000Y-74795000D03*
%TO.N,Net-(C2-Pad1)*%
X149866000Y-74795000D03*
%TO.N,Net-(C4-Pad1)*%
X149041000Y-73970000D03*
%TO.N,Net-(C6-Pad1)*%
X148116000Y-74795000D03*
%TO.N,Net-(C8-Pad1)*%
X146716000Y-68420000D03*
%TO.N,Net-(C2-Pad1)*%
X160066000Y-68395000D03*
%TO.N,Net-(C4-Pad1)*%
X155291000Y-68745000D03*
%TO.N,Net-(C6-Pad1)*%
X152166000Y-67970000D03*
%TO.N,Net-(C8-Pad1)*%
X147241000Y-73970000D03*
%TD*%
D47*
%TO.N,OUT_0*%
X133720000Y-97892500D02*
X139737500Y-97892500D01*
X141320000Y-96310000D02*
X153590000Y-96310000D01*
X139737500Y-97892500D02*
X141320000Y-96310000D01*
X153590000Y-96310000D02*
X155030000Y-97750000D01*
X155030000Y-97750000D02*
X155030000Y-105114282D01*
X183560000Y-108580000D02*
X185540000Y-110560000D01*
X196240000Y-110560000D02*
X197546000Y-111866000D01*
X155030000Y-105114282D02*
X158495718Y-108580000D01*
X158495718Y-108580000D02*
X183560000Y-108580000D01*
X185540000Y-110560000D02*
X196240000Y-110560000D01*
X197546000Y-111866000D02*
X197546000Y-112346500D01*
%TO.N,ASW_A2*%
X141966000Y-79170000D02*
X141966000Y-84784000D01*
X141966000Y-84784000D02*
X137950000Y-88800000D01*
X137950000Y-88800000D02*
X134850000Y-88800000D01*
X132950000Y-88490000D02*
X132720000Y-88720000D01*
X134850000Y-88800000D02*
X134540000Y-88490000D01*
X134540000Y-88490000D02*
X132950000Y-88490000D01*
X132720000Y-88720000D02*
X132720000Y-89567500D01*
%TO.N,ASW_EN*%
X132220000Y-89567500D02*
X132220000Y-88350000D01*
X132220000Y-88350000D02*
X132550000Y-88020000D01*
X132550000Y-88020000D02*
X137670000Y-88020000D01*
X137670000Y-88020000D02*
X140960000Y-84730000D01*
X140960000Y-84730000D02*
X140960000Y-82360000D01*
%TO.N,OUT_1*%
X186116000Y-112346500D02*
X186116000Y-112046000D01*
X186116000Y-112046000D02*
X183230000Y-109160000D01*
X138210000Y-98430000D02*
X137450000Y-99190000D01*
X183230000Y-109160000D02*
X158270000Y-109160000D01*
X140103749Y-98430000D02*
X138210000Y-98430000D01*
X158270000Y-109160000D02*
X154460000Y-105350000D01*
X154460000Y-105350000D02*
X154460000Y-97950000D01*
X154460000Y-97950000D02*
X153390000Y-96880000D01*
X153390000Y-96880000D02*
X141653749Y-96880000D01*
X141653749Y-96880000D02*
X140103749Y-98430000D01*
X137450000Y-99190000D02*
X133600000Y-99190000D01*
X133220000Y-98810000D02*
X133220000Y-97892500D01*
X133600000Y-99190000D02*
X133220000Y-98810000D01*
%TO.N,Net-(J4-Pad3)*%
X149740000Y-99120000D02*
X148040000Y-97420000D01*
X148040000Y-97420000D02*
X142150000Y-97420000D01*
X139890000Y-99180000D02*
X137979520Y-101090480D01*
X142150000Y-97420000D02*
X140390000Y-99180000D01*
X140390000Y-99180000D02*
X139890000Y-99180000D01*
X137979520Y-101090480D02*
X134060000Y-101090480D01*
X134060000Y-101090480D02*
X132720000Y-99750480D01*
X132720000Y-99750480D02*
X132720000Y-97892500D01*
%TO.N,Net-(J4-Pad2)*%
X147200000Y-99120000D02*
X146010000Y-97930000D01*
X146010000Y-97930000D02*
X142650000Y-97930000D01*
X137739897Y-101615489D02*
X137705386Y-101650000D01*
X137705386Y-101650000D02*
X133770000Y-101650000D01*
X133770000Y-101650000D02*
X132220000Y-100100000D01*
X142650000Y-97930000D02*
X140800000Y-99780000D01*
X140800000Y-99780000D02*
X140025184Y-99780000D01*
X140025184Y-99780000D02*
X138189695Y-101615489D01*
X138189695Y-101615489D02*
X137739897Y-101615489D01*
X132220000Y-100100000D02*
X132220000Y-97892500D01*
%TO.N,OUT_3*%
X160970000Y-112346500D02*
X160970000Y-111980000D01*
X160970000Y-111980000D02*
X159220000Y-110230000D01*
X159220000Y-110230000D02*
X129997141Y-110230000D01*
X129997141Y-110230000D02*
X128720000Y-108952859D01*
X128720000Y-108952859D02*
X128720000Y-97892500D01*
%TO.N,OUT_4*%
X148778000Y-112346500D02*
X148778000Y-111908000D01*
X148778000Y-111908000D02*
X147600000Y-110730000D01*
X147600000Y-110730000D02*
X129559520Y-110730000D01*
X128150000Y-109320480D02*
X128150000Y-106500000D01*
X129559520Y-110730000D02*
X128150000Y-109320480D01*
X128150000Y-106500000D02*
X126880000Y-105230000D01*
X126880000Y-105230000D02*
X126880000Y-99820000D01*
X126880000Y-99820000D02*
X127490000Y-99210000D01*
X127490000Y-99210000D02*
X127490000Y-98420000D01*
X127490000Y-98420000D02*
X126807500Y-97737500D01*
X126807500Y-97737500D02*
X126807500Y-96480000D01*
%TO.N,OUT_5*%
X136078000Y-112346500D02*
X136078000Y-112018000D01*
X136078000Y-112018000D02*
X135280000Y-111220000D01*
X135280000Y-111220000D02*
X129070000Y-111220000D01*
X129070000Y-111220000D02*
X125740000Y-107890000D01*
X125740000Y-96230000D02*
X125990000Y-95980000D01*
X125990000Y-95980000D02*
X126807500Y-95980000D01*
X125740000Y-107890000D02*
X125740000Y-96230000D01*
%TO.N,OUT_6*%
X126807500Y-95480000D02*
X125730000Y-95480000D01*
X125730000Y-95480000D02*
X125260000Y-95950000D01*
X125260000Y-95950000D02*
X125260000Y-106200000D01*
X125260000Y-106200000D02*
X123632000Y-107828000D01*
X123632000Y-107828000D02*
X123632000Y-112346500D01*
%TO.N,OUT_7*%
X126807500Y-94980000D02*
X125510000Y-94980000D01*
X125510000Y-94980000D02*
X124770000Y-95720000D01*
X124770000Y-95720000D02*
X124770000Y-105560000D01*
X124770000Y-105560000D02*
X119160000Y-111170000D01*
X111186000Y-111694000D02*
X111186000Y-112092500D01*
X119160000Y-111170000D02*
X111710000Y-111170000D01*
X111710000Y-111170000D02*
X111186000Y-111694000D01*
%TO.N,+3V3*%
X128220000Y-97892500D02*
X128220000Y-96980000D01*
X128220000Y-96980000D02*
X129989511Y-95210489D01*
X129989511Y-95210489D02*
X129989511Y-93370489D01*
X128720000Y-89567500D02*
X128720000Y-90410000D01*
X128720000Y-90410000D02*
X129766066Y-91456066D01*
X129766066Y-91456066D02*
X129856066Y-91456066D01*
X129856066Y-91456066D02*
X130880000Y-92480000D01*
%TO.N,Net-(C35-Pad1)*%
X128220000Y-89567500D02*
X128220000Y-90590000D01*
X128220000Y-90590000D02*
X129570000Y-91940000D01*
X129570000Y-91940000D02*
X129570000Y-92670000D01*
D48*
%TO.N,+3V3*%
X128749511Y-93370489D02*
X128749511Y-91819511D01*
X128749511Y-91819511D02*
X127925481Y-90995481D01*
X127925481Y-90995481D02*
X127560000Y-90995481D01*
D49*
%TO.N,GND*%
X126807500Y-91480000D02*
X127670000Y-91480000D01*
X127670000Y-91480000D02*
X128110000Y-91920000D01*
X128110000Y-91920000D02*
X128110000Y-92200000D01*
D47*
%TO.N,Net-(C16-Pad1)*%
X140361000Y-71185000D02*
X137285000Y-71185000D01*
X137285000Y-71185000D02*
X136140000Y-70040000D01*
X136140000Y-70040000D02*
X133356000Y-70040000D01*
X133356000Y-70040000D02*
X132031000Y-68715000D01*
X132031000Y-68715000D02*
X130691000Y-68715000D01*
X130691000Y-68715000D02*
X130131000Y-68155000D01*
X128576000Y-68155000D02*
X127531000Y-67110000D01*
X130131000Y-68155000D02*
X128576000Y-68155000D01*
%TO.N,Net-(C3-Pad2)*%
X147816000Y-71970000D02*
X147816000Y-70595000D01*
X147816000Y-70595000D02*
X148791000Y-69620000D01*
X148791000Y-69620000D02*
X156460000Y-69620000D01*
X156460000Y-69620000D02*
X157628802Y-68451198D01*
X157628802Y-68451198D02*
X158134802Y-68451198D01*
X158134802Y-68451198D02*
X159478500Y-67107500D01*
%TO.N,Net-(C4-Pad1)*%
X155291000Y-68745000D02*
X156125000Y-68745000D01*
X156125000Y-68745000D02*
X156881000Y-67989000D01*
X156881000Y-67989000D02*
X156881000Y-67165000D01*
D50*
%TO.N,Net-(J5-Pad1)*%
X113030000Y-78081500D02*
X113030000Y-74620000D01*
X113030000Y-74620000D02*
X113050000Y-74600000D01*
D51*
X104135000Y-72240000D02*
X105070000Y-72240000D01*
X105070000Y-72240000D02*
X107880000Y-69430000D01*
D52*
X107880000Y-69430000D02*
X111860000Y-69430000D01*
X111860000Y-69430000D02*
X113040000Y-70610000D01*
X113040000Y-70610000D02*
X113040000Y-71510000D01*
D50*
%TO.N,+5V*%
X113088000Y-85381500D02*
X113088000Y-79964500D01*
X113088000Y-79964500D02*
X113030000Y-79906500D01*
D51*
%TO.N,Net-(J5-Pad1)*%
X104135000Y-72890000D02*
X135524620Y-72890000D01*
X135524620Y-72890000D02*
X135532310Y-72882310D01*
X135532310Y-72882310D02*
X138927690Y-76277690D01*
%TO.N,/mcu/USB+*%
X104135000Y-73540000D02*
X135260000Y-73540000D01*
X135260000Y-73540000D02*
X138287310Y-76567310D01*
%TO.N,+5V*%
X105390000Y-85340000D02*
X105380000Y-85330000D01*
X105380000Y-85330000D02*
X104140000Y-85330000D01*
D53*
%TO.N,GND*%
X134160000Y-82040000D02*
X133082500Y-82040000D01*
D47*
%TO.N,Net-(C28-Pad1)*%
X131357500Y-82040000D02*
X131357500Y-81162500D01*
X131357500Y-81162500D02*
X132710000Y-79810000D01*
%TO.N,Net-(C29-Pad1)*%
X129297500Y-82040000D02*
X129297500Y-81277500D01*
X129297500Y-81277500D02*
X127830000Y-79810000D01*
D53*
%TO.N,GND*%
X105903000Y-75682000D02*
X105903000Y-74666000D01*
X105903000Y-76698000D02*
X105903000Y-75682000D01*
D51*
X104135000Y-74840000D02*
X105729000Y-74840000D01*
X105729000Y-74840000D02*
X105903000Y-74666000D01*
X104135000Y-74190000D02*
X105427000Y-74190000D01*
X105427000Y-74190000D02*
X105903000Y-74666000D01*
D47*
%TO.N,Net-(FB16-Pad1)*%
X127511000Y-56992500D02*
X127446000Y-56927500D01*
X127446000Y-56927500D02*
X127446000Y-54005000D01*
%TO.N,Net-(FB15-Pad1)*%
X130031000Y-56992500D02*
X129986000Y-56947500D01*
X129986000Y-56947500D02*
X129986000Y-54005000D01*
%TO.N,Net-(FB14-Pad1)*%
X132581000Y-56982500D02*
X132526000Y-56927500D01*
X132526000Y-56927500D02*
X132526000Y-54005000D01*
%TO.N,Net-(FB13-Pad1)*%
X135111000Y-56972500D02*
X135066000Y-56927500D01*
X135066000Y-56927500D02*
X135066000Y-54005000D01*
%TO.N,Net-(FB12-Pad1)*%
X137651000Y-56982500D02*
X137606000Y-56937500D01*
X137606000Y-56937500D02*
X137606000Y-54005000D01*
%TO.N,Net-(FB11-Pad1)*%
X140191000Y-56992500D02*
X140146000Y-56947500D01*
X140146000Y-56947500D02*
X140146000Y-54005000D01*
%TO.N,Net-(FB10-Pad1)*%
X142731000Y-56992500D02*
X142686000Y-56947500D01*
X142686000Y-56947500D02*
X142686000Y-54005000D01*
%TO.N,Net-(FB9-Pad1)*%
X145271000Y-56952500D02*
X145226000Y-56907500D01*
X145226000Y-56907500D02*
X145226000Y-54005000D01*
%TO.N,Net-(FB8-Pad1)*%
X147941000Y-57007500D02*
X147881000Y-56947500D01*
X147881000Y-56947500D02*
X147881000Y-54005000D01*
%TO.N,Net-(FB7-Pad1)*%
X150466000Y-57007500D02*
X150421000Y-56962500D01*
X150421000Y-56962500D02*
X150421000Y-54005000D01*
%TO.N,Net-(FB6-Pad1)*%
X153016000Y-57007500D02*
X152961000Y-56952500D01*
X152961000Y-56952500D02*
X152961000Y-54005000D01*
%TO.N,Net-(FB5-Pad1)*%
X155541000Y-57007500D02*
X155501000Y-56967500D01*
X155501000Y-56967500D02*
X155501000Y-54005000D01*
%TO.N,Net-(FB4-Pad1)*%
X158091000Y-56982500D02*
X158041000Y-56932500D01*
X158041000Y-56932500D02*
X158041000Y-54005000D01*
%TO.N,Net-(FB3-Pad1)*%
X160616000Y-56982500D02*
X160581000Y-56947500D01*
X160581000Y-56947500D02*
X160581000Y-54005000D01*
%TO.N,Net-(FB2-Pad1)*%
X163166000Y-57007500D02*
X163121000Y-56962500D01*
X163121000Y-56962500D02*
X163121000Y-54005000D01*
%TO.N,Net-(FB1-Pad1)*%
X165716000Y-57007500D02*
X165661000Y-56952500D01*
X165661000Y-56952500D02*
X165661000Y-54005000D01*
D54*
%TO.N,Net-(F5-Pad1)*%
X105120000Y-124745000D02*
X105120000Y-126780000D01*
X105120000Y-126780000D02*
X104000000Y-127900000D01*
%TO.N,Net-(F7-Pad1)*%
X117720000Y-124795000D02*
X117720000Y-126580000D01*
X117720000Y-126580000D02*
X116500000Y-127800000D01*
%TO.N,Net-(F6-Pad1)*%
X130170000Y-124795000D02*
X130170000Y-126630000D01*
X130170000Y-126630000D02*
X129000000Y-127800000D01*
%TO.N,Net-(F6-Pad2)*%
X128400000Y-143610000D02*
X128400000Y-137750000D01*
X128400000Y-137750000D02*
X128940000Y-137210000D01*
%TO.N,Net-(F7-Pad2)*%
X115900000Y-143610000D02*
X115900000Y-137750000D01*
X115900000Y-137750000D02*
X116440000Y-137210000D01*
%TO.N,Net-(F5-Pad2)*%
X103400000Y-143610000D02*
X103400000Y-137750000D01*
X103400000Y-137750000D02*
X103940000Y-137210000D01*
%TO.N,Net-(F5-Pad1)*%
X104000000Y-127900000D02*
X104000000Y-132150000D01*
X104000000Y-132150000D02*
X103940000Y-132210000D01*
%TO.N,Net-(F7-Pad1)*%
X116500000Y-127800000D02*
X116500000Y-132150000D01*
X116500000Y-132150000D02*
X116440000Y-132210000D01*
%TO.N,Net-(F6-Pad1)*%
X129000000Y-127800000D02*
X129000000Y-132150000D01*
X129000000Y-132150000D02*
X128940000Y-132210000D01*
%TO.N,Net-(OUT_6-Pad1)*%
X121500000Y-129000000D02*
X121500000Y-143090000D01*
X121500000Y-143090000D02*
X120980000Y-143610000D01*
%TO.N,Net-(OUT_7-Pad1)*%
X109000000Y-129100000D02*
X109000000Y-143090000D01*
X109000000Y-143090000D02*
X108480000Y-143610000D01*
X110200000Y-124745000D02*
X110200000Y-127900000D01*
X110200000Y-127900000D02*
X109000000Y-129100000D01*
%TO.N,Net-(OUT_6-Pad1)*%
X122800000Y-124795000D02*
X122800000Y-127700000D01*
X122800000Y-127700000D02*
X121500000Y-129000000D01*
%TO.N,Net-(OUT_2-Pad1)*%
X171500000Y-129100000D02*
X172700000Y-127900000D01*
X172700000Y-127900000D02*
X172700000Y-124795000D01*
%TO.N,Net-(OUT_3-Pad1)*%
X159000000Y-129100000D02*
X160150000Y-127950000D01*
X160150000Y-127950000D02*
X160150000Y-124795000D01*
%TO.N,Net-(OUT_4-Pad1)*%
X146500000Y-129000000D02*
X147775000Y-127725000D01*
X147775000Y-127725000D02*
X147775000Y-124795000D01*
%TO.N,Net-(OUT_5-Pad1)*%
X134000000Y-129000000D02*
X134144000Y-129000000D01*
X134144000Y-129000000D02*
X135250000Y-127894000D01*
X135250000Y-127894000D02*
X135250000Y-124795000D01*
%TO.N,Net-(OUT_1-Pad1)*%
X184000000Y-129100000D02*
X185156000Y-127944000D01*
X185156000Y-127944000D02*
X185156000Y-124820000D01*
%TO.N,Net-(OUT_0-Pad1)*%
X196500000Y-129100000D02*
X196528000Y-129100000D01*
X196528000Y-129100000D02*
X197358000Y-128270000D01*
X197358000Y-128270000D02*
X197358000Y-124878000D01*
X197358000Y-124878000D02*
X197300000Y-124820000D01*
%TO.N,Net-(F2-Pad1)*%
X180076000Y-124820000D02*
X180076000Y-126824000D01*
X180076000Y-126824000D02*
X179000000Y-127900000D01*
%TO.N,Net-(F3-Pad1)*%
X167620000Y-124795000D02*
X167620000Y-126780000D01*
X167620000Y-126780000D02*
X166500000Y-127900000D01*
%TO.N,Net-(F1-Pad1)*%
X155070000Y-124795000D02*
X155070000Y-126830000D01*
X155070000Y-126830000D02*
X154000000Y-127900000D01*
%TO.N,Net-(F8-Pad1)*%
X142695000Y-124795000D02*
X142695000Y-126605000D01*
X142695000Y-126605000D02*
X141500000Y-127800000D01*
%TO.N,Net-(F8-Pad2)*%
X140900000Y-143610000D02*
X140900000Y-137750000D01*
X140900000Y-137750000D02*
X141440000Y-137210000D01*
%TO.N,Net-(F1-Pad2)*%
X153406600Y-143610000D02*
X153406600Y-137893400D01*
X153406600Y-137893400D02*
X154090000Y-137210000D01*
%TO.N,Net-(F3-Pad2)*%
X165906600Y-143610000D02*
X165906600Y-137797400D01*
X165906600Y-137797400D02*
X166370000Y-137334000D01*
%TO.N,Net-(F2-Pad2)*%
X178400000Y-143610000D02*
X178400000Y-137750000D01*
X178400000Y-137750000D02*
X178940000Y-137210000D01*
%TO.N,Net-(F2-Pad1)*%
X179000000Y-127900000D02*
X179000000Y-132150000D01*
X179000000Y-132150000D02*
X178940000Y-132210000D01*
%TO.N,Net-(F3-Pad1)*%
X166500000Y-127900000D02*
X166500000Y-132204000D01*
X166500000Y-132204000D02*
X166370000Y-132334000D01*
%TO.N,Net-(F1-Pad1)*%
X154000000Y-127900000D02*
X154000000Y-132120000D01*
X154000000Y-132120000D02*
X154090000Y-132210000D01*
%TO.N,Net-(F8-Pad1)*%
X141500000Y-127800000D02*
X141500000Y-132150000D01*
X141500000Y-132150000D02*
X141440000Y-132210000D01*
%TO.N,Net-(OUT_5-Pad1)*%
X134000000Y-129000000D02*
X134000000Y-143090000D01*
X134000000Y-143090000D02*
X133480000Y-143610000D01*
%TO.N,Net-(OUT_4-Pad1)*%
X146500000Y-129000000D02*
X146500000Y-143090000D01*
X146500000Y-143090000D02*
X145980000Y-143610000D01*
%TO.N,Net-(OUT_3-Pad1)*%
X159000000Y-129100000D02*
X159000000Y-143096600D01*
X159000000Y-143096600D02*
X158486600Y-143610000D01*
%TO.N,Net-(OUT_2-Pad1)*%
X171500000Y-129100000D02*
X171500000Y-143096600D01*
X171500000Y-143096600D02*
X170986600Y-143610000D01*
D53*
%TO.N,Net-(D5-Pad1)*%
X107188000Y-114159000D02*
X107188000Y-116653000D01*
X107188000Y-116653000D02*
X107660000Y-117125000D01*
D55*
%TO.N,Net-(Q8-Pad3)*%
X122682000Y-114221500D02*
X122650000Y-114253500D01*
X122650000Y-114253500D02*
X122650000Y-117025000D01*
X122650000Y-117025000D02*
X122800000Y-117175000D01*
%TO.N,Net-(Q7-Pad3)*%
X135128000Y-114221500D02*
X135140000Y-114233500D01*
X135140000Y-114233500D02*
X135140000Y-117065000D01*
X135140000Y-117065000D02*
X135250000Y-117175000D01*
D53*
%TO.N,Net-(D6-Pad1)*%
X132080000Y-114413000D02*
X132080000Y-116545000D01*
X132080000Y-116545000D02*
X132710000Y-117175000D01*
%TO.N,Net-(D1-Pad1)*%
X156972000Y-114413000D02*
X156972000Y-116537000D01*
X156972000Y-116537000D02*
X157610000Y-117175000D01*
D47*
X157610000Y-116426000D02*
X157610000Y-116800000D01*
X157610000Y-116800000D02*
X157235000Y-117175000D01*
X157235000Y-117175000D02*
X157610000Y-117175000D01*
D55*
%TO.N,Net-(Q2-Pad3)*%
X160020000Y-114221500D02*
X160030000Y-114231500D01*
X160030000Y-114231500D02*
X160030000Y-117055000D01*
X160030000Y-117055000D02*
X160150000Y-117175000D01*
D47*
%TO.N,OUT_2*%
X173670000Y-112346500D02*
X173670000Y-112010000D01*
X173670000Y-112010000D02*
X171391440Y-109731440D01*
X171391440Y-109731440D02*
X130441440Y-109731440D01*
X130441440Y-109731440D02*
X129220000Y-108510000D01*
X129220000Y-108510000D02*
X129220000Y-97892500D01*
D53*
%TO.N,Net-(D3-Pad1)*%
X169672000Y-114413000D02*
X169672000Y-116687000D01*
X169672000Y-116687000D02*
X170160000Y-117175000D01*
%TO.N,Net-(D2-Pad1)*%
X182118000Y-114413000D02*
X182118000Y-116702000D01*
X182118000Y-116702000D02*
X182616000Y-117200000D01*
D55*
%TO.N,Net-(Q3-Pad3)*%
X185166000Y-114221500D02*
X185156000Y-114231500D01*
X185156000Y-114231500D02*
X185156000Y-117200000D01*
%TO.N,Net-(Q5-Pad3)*%
X196596000Y-114221500D02*
X196596000Y-115056000D01*
X196596000Y-115056000D02*
X197300000Y-115760000D01*
X197300000Y-115760000D02*
X197300000Y-117200000D01*
D53*
%TO.N,Net-(D2-Pad2)*%
X182118000Y-112663000D02*
X180675000Y-112663000D01*
X180675000Y-112663000D02*
X179038000Y-114300000D01*
%TO.N,Net-(D1-Pad2)*%
X156972000Y-112663000D02*
X155561000Y-112663000D01*
X155561000Y-112663000D02*
X153924000Y-114300000D01*
%TO.N,Net-(D3-Pad2)*%
X169672000Y-112663000D02*
X168245000Y-112663000D01*
X168245000Y-112663000D02*
X166608000Y-114300000D01*
D55*
%TO.N,Net-(Q4-Pad3)*%
X172720000Y-114221500D02*
X172700000Y-114241500D01*
X172700000Y-114241500D02*
X172700000Y-117175000D01*
%TO.N,Net-(Q9-Pad3)*%
X147828000Y-114221500D02*
X147775000Y-114274500D01*
X147775000Y-114274500D02*
X147775000Y-117175000D01*
D53*
%TO.N,Net-(D8-Pad1)*%
X144780000Y-114413000D02*
X144780000Y-116720000D01*
X144780000Y-116720000D02*
X145235000Y-117175000D01*
%TO.N,Net-(D8-Pad2)*%
X144780000Y-112663000D02*
X143099000Y-112663000D01*
X143099000Y-112663000D02*
X141462000Y-114300000D01*
%TO.N,Net-(D6-Pad2)*%
X132080000Y-112663000D02*
X130653000Y-112663000D01*
X130653000Y-112663000D02*
X129016000Y-114300000D01*
D55*
%TO.N,Net-(Q6-Pad3)*%
X110236000Y-113967500D02*
X110200000Y-114003500D01*
X110200000Y-114003500D02*
X110200000Y-117125000D01*
%TO.N,Net-(D7-Pad1)*%
X119634000Y-114413000D02*
X119610000Y-114437000D01*
X119610000Y-114437000D02*
X119610000Y-116525000D01*
X119610000Y-116525000D02*
X120260000Y-117175000D01*
D53*
%TO.N,Net-(D7-Pad2)*%
X119634000Y-112663000D02*
X118207000Y-112663000D01*
X118207000Y-112663000D02*
X116570000Y-114300000D01*
%TO.N,Net-(D5-Pad2)*%
X107188000Y-112409000D02*
X106015000Y-112409000D01*
X106015000Y-112409000D02*
X104378000Y-114046000D01*
D55*
%TO.N,GND*%
X108920000Y-114900000D02*
X108920000Y-113550000D01*
X108920000Y-113550000D02*
X109286000Y-113184000D01*
X109286000Y-113184000D02*
X109286000Y-112092500D01*
X121340000Y-115180000D02*
X121340000Y-113760000D01*
X121340000Y-113760000D02*
X121732000Y-113368000D01*
X121732000Y-113368000D02*
X121732000Y-112346500D01*
X133810000Y-115180000D02*
X133810000Y-113910000D01*
X133810000Y-113910000D02*
X134178000Y-113542000D01*
X134178000Y-113542000D02*
X134178000Y-112346500D01*
X146510000Y-115190000D02*
X146510000Y-113800000D01*
X146510000Y-113800000D02*
X146880000Y-113430000D01*
X146880000Y-113430000D02*
X146880000Y-112348500D01*
X146880000Y-112348500D02*
X146878000Y-112346500D01*
X158710000Y-115180000D02*
X158710000Y-113820000D01*
X158710000Y-113820000D02*
X159070000Y-113460000D01*
X159070000Y-113460000D02*
X159070000Y-112346500D01*
X171360000Y-115130000D02*
X171360000Y-113690000D01*
X171360000Y-113690000D02*
X171770000Y-113280000D01*
X171770000Y-113280000D02*
X171770000Y-112346500D01*
X183750000Y-115110000D02*
X183750000Y-113780000D01*
X183750000Y-113780000D02*
X184216000Y-113314000D01*
X184216000Y-113314000D02*
X184216000Y-112346500D01*
D56*
%TO.N,+5V*%
X100791489Y-114178511D02*
X100791489Y-101912511D01*
X100791489Y-118551489D02*
X100791489Y-114178511D01*
X100791489Y-114178511D02*
X102245489Y-114178511D01*
X102245489Y-114178511D02*
X102378000Y-114046000D01*
X125290000Y-119500000D02*
X112720000Y-119500000D01*
X112720000Y-119500000D02*
X101740000Y-119500000D01*
X112720000Y-119500000D02*
X112720000Y-114710000D01*
X112720000Y-114710000D02*
X113130000Y-114300000D01*
X113130000Y-114300000D02*
X114570000Y-114300000D01*
X137800000Y-119500000D02*
X125290000Y-119500000D01*
X125290000Y-119500000D02*
X125290000Y-114840000D01*
X125290000Y-114840000D02*
X125830000Y-114300000D01*
X125830000Y-114300000D02*
X127016000Y-114300000D01*
X150210000Y-119500000D02*
X137800000Y-119500000D01*
X137800000Y-119500000D02*
X137800000Y-114880000D01*
X137800000Y-114880000D02*
X138380000Y-114300000D01*
X138380000Y-114300000D02*
X139462000Y-114300000D01*
X162680000Y-119500000D02*
X150210000Y-119500000D01*
X150210000Y-119500000D02*
X150210000Y-114910000D01*
X150210000Y-114910000D02*
X150820000Y-114300000D01*
X150820000Y-114300000D02*
X151924000Y-114300000D01*
X175120000Y-119500000D02*
X162680000Y-119500000D01*
X162680000Y-119500000D02*
X162680000Y-115080000D01*
X162680000Y-115080000D02*
X163460000Y-114300000D01*
X163460000Y-114300000D02*
X164608000Y-114300000D01*
X186000000Y-119500000D02*
X175120000Y-119500000D01*
X175120000Y-119500000D02*
X175120000Y-115180000D01*
X175120000Y-115180000D02*
X176000000Y-114300000D01*
X176000000Y-114300000D02*
X177038000Y-114300000D01*
X186000000Y-119500000D02*
X187300000Y-119500000D01*
X187300000Y-115640000D02*
X188640000Y-114300000D01*
X187300000Y-119500000D02*
X187300000Y-115640000D01*
X188640000Y-114300000D02*
X189246000Y-114300000D01*
D53*
%TO.N,Net-(D4-Pad2)*%
X191246000Y-114300000D02*
X191246000Y-114294000D01*
X191246000Y-114294000D02*
X192877000Y-112663000D01*
X192877000Y-112663000D02*
X193548000Y-112663000D01*
D47*
X191246000Y-114300000D02*
X191260000Y-114300000D01*
D53*
%TO.N,Net-(D4-Pad1)*%
X193548000Y-115968000D02*
X193920000Y-116340000D01*
X193548000Y-114413000D02*
X193548000Y-115968000D01*
X193920000Y-116340000D02*
X193920000Y-116360000D01*
X193920000Y-116360000D02*
X194760000Y-117200000D01*
D55*
%TO.N,GND*%
X195260000Y-115070000D02*
X195260000Y-113640000D01*
X195260000Y-113640000D02*
X195646000Y-113254000D01*
X195646000Y-113254000D02*
X195646000Y-112346500D01*
D53*
X110430000Y-88590000D02*
X110430000Y-87417500D01*
X110430000Y-87417500D02*
X110470000Y-87377500D01*
X114620000Y-90010000D02*
X114620000Y-85501000D01*
X114620000Y-85501000D02*
X114588000Y-85469000D01*
X118780000Y-87377500D02*
X118780000Y-88610000D01*
D47*
X126470000Y-85560000D02*
X126430000Y-85520000D01*
D53*
X126470000Y-86587500D02*
X126470000Y-85560000D01*
X127572500Y-82040000D02*
X127572500Y-82982500D01*
X127572500Y-82982500D02*
X127750000Y-83160000D01*
X128220000Y-83630000D02*
X127750000Y-83160000D01*
X128220000Y-84247500D02*
X128220000Y-83630000D01*
D57*
%TO.N,+3V3*%
X121340000Y-74590000D02*
X121340000Y-84425000D01*
X121340000Y-84425000D02*
X120462500Y-85302500D01*
X131780000Y-69760000D02*
X122570000Y-69760000D01*
X122570000Y-69760000D02*
X121320000Y-71010000D01*
X121320000Y-71010000D02*
X121320000Y-71630000D01*
D51*
%TO.N,GND*%
X143266000Y-71970000D02*
X143266000Y-73504000D01*
X143266000Y-73504000D02*
X141870000Y-74900000D01*
D53*
X140890000Y-92070000D02*
X140920000Y-92040000D01*
X139835000Y-92070000D02*
X140890000Y-92070000D01*
D48*
%TO.N,+3V3*%
X135132500Y-92480000D02*
X137700000Y-92480000D01*
X137700000Y-92480000D02*
X138110000Y-92070000D01*
D50*
X150360000Y-95260000D02*
X146410000Y-95260000D01*
X154280000Y-91340000D02*
X150360000Y-95260000D01*
X159280000Y-81585000D02*
X159265000Y-81600000D01*
X159265000Y-81600000D02*
X156140000Y-81600000D01*
X156140000Y-81600000D02*
X154400000Y-83340000D01*
X154400000Y-83340000D02*
X154400000Y-85070000D01*
D55*
X163580000Y-81640000D02*
X159335000Y-81640000D01*
X159335000Y-81640000D02*
X159280000Y-81585000D01*
D47*
%TO.N,GND*%
X184955000Y-88710000D02*
X189080000Y-88710000D01*
X189080000Y-88710000D02*
X189110000Y-88680000D01*
X189140000Y-88710000D02*
X189110000Y-88680000D01*
X192905000Y-88710000D02*
X189140000Y-88710000D01*
%TO.N,Net-(R23-Pad2)*%
X168846000Y-72220000D02*
X168846000Y-70007500D01*
X168846000Y-70007500D02*
X168663500Y-69825000D01*
X170561000Y-69807500D02*
X168681000Y-69807500D01*
X168681000Y-69807500D02*
X168663500Y-69825000D01*
D53*
%TO.N,GND*%
X169712500Y-67982500D02*
X169700000Y-67970000D01*
X170561000Y-67982500D02*
X169712500Y-67982500D01*
X173261000Y-61095000D02*
X173261000Y-60319000D01*
X173261000Y-60319000D02*
X173690000Y-59890000D01*
X178311000Y-61095000D02*
X178311000Y-60379000D01*
X178311000Y-60379000D02*
X178800000Y-59890000D01*
X183391000Y-61095000D02*
X183391000Y-60219000D01*
X183391000Y-60219000D02*
X183750000Y-59860000D01*
X188516000Y-61095000D02*
X188516000Y-60204000D01*
X188516000Y-60204000D02*
X188800000Y-59920000D01*
X189351000Y-59369000D02*
X188800000Y-59920000D01*
X189351000Y-58685000D02*
X189351000Y-59369000D01*
X184241000Y-59369000D02*
X183750000Y-59860000D01*
X184241000Y-58657500D02*
X184241000Y-59369000D01*
X179161000Y-59529000D02*
X178800000Y-59890000D01*
X179161000Y-58667500D02*
X179161000Y-59529000D01*
X174061000Y-59519000D02*
X173690000Y-59890000D01*
X174061000Y-58727500D02*
X174061000Y-59519000D01*
D47*
%TO.N,Net-(FB24-Pad1)*%
X189351000Y-56960000D02*
X189306000Y-56915000D01*
X189306000Y-56915000D02*
X189306000Y-53995000D01*
%TO.N,Net-(FB23-Pad1)*%
X186781000Y-56972500D02*
X186766000Y-56957500D01*
X186766000Y-56957500D02*
X186766000Y-53995000D01*
%TO.N,Net-(FB22-Pad1)*%
X184241000Y-56932500D02*
X184226000Y-56917500D01*
X184226000Y-56917500D02*
X184226000Y-53995000D01*
%TO.N,Net-(FB21-Pad1)*%
X181681000Y-56932500D02*
X181686000Y-56927500D01*
X181686000Y-56927500D02*
X181686000Y-53995000D01*
%TO.N,Net-(FB20-Pad1)*%
X179161000Y-56942500D02*
X179146000Y-56927500D01*
X179146000Y-56927500D02*
X179146000Y-53995000D01*
%TO.N,Net-(FB19-Pad1)*%
X176591000Y-56970000D02*
X176606000Y-56955000D01*
X176606000Y-56955000D02*
X176606000Y-53995000D01*
%TO.N,Net-(FB18-Pad1)*%
X174061000Y-57002500D02*
X174066000Y-56997500D01*
X174066000Y-56997500D02*
X174066000Y-53995000D01*
%TO.N,Net-(FB17-Pad1)*%
X171551000Y-56980000D02*
X171526000Y-56955000D01*
X171526000Y-56955000D02*
X171526000Y-53995000D01*
%TO.N,+3V3*%
X175420000Y-64120000D02*
X175420000Y-64220000D01*
X175420000Y-64220000D02*
X173790000Y-65850000D01*
%TO.N,SW_0*%
X171536000Y-61095000D02*
X171536000Y-58720000D01*
X171536000Y-58720000D02*
X171551000Y-58705000D01*
X171448500Y-63025000D02*
X171448500Y-61182500D01*
X171448500Y-61182500D02*
X171536000Y-61095000D01*
%TO.N,SW_1*%
X176586000Y-61095000D02*
X176586000Y-58700000D01*
X176586000Y-58700000D02*
X176591000Y-58695000D01*
X176548500Y-63005000D02*
X176548500Y-61132500D01*
X176548500Y-61132500D02*
X176586000Y-61095000D01*
%TO.N,SW_2*%
X181666000Y-61095000D02*
X181666000Y-58672500D01*
X181666000Y-58672500D02*
X181681000Y-58657500D01*
X181648500Y-63025000D02*
X181648500Y-61112500D01*
X181648500Y-61112500D02*
X181666000Y-61095000D01*
%TO.N,SW_3*%
X186791000Y-61095000D02*
X186791000Y-58707500D01*
X186791000Y-58707500D02*
X186781000Y-58697500D01*
X186798500Y-63005000D02*
X186798500Y-61102500D01*
X186798500Y-61102500D02*
X186791000Y-61095000D01*
%TO.N,+3V3*%
X184180000Y-64190000D02*
X183530000Y-64190000D01*
X183473500Y-63025000D02*
X183473500Y-64133500D01*
X183530000Y-64190000D02*
X181670000Y-64190000D01*
X183473500Y-64133500D02*
X183530000Y-64190000D01*
X173273500Y-63025000D02*
X174325000Y-63025000D01*
X174325000Y-63025000D02*
X175420000Y-64120000D01*
X177500000Y-64250000D02*
X177440000Y-64190000D01*
X177650000Y-64250000D02*
X177500000Y-64250000D01*
X178373500Y-63005000D02*
X178373500Y-63526500D01*
X178373500Y-63526500D02*
X177650000Y-64250000D01*
X178373500Y-63005000D02*
X179885000Y-63005000D01*
X179885000Y-63005000D02*
X180060000Y-63180000D01*
X181670000Y-64190000D02*
X181330000Y-64530000D01*
X187378500Y-64250000D02*
X186720000Y-64250000D01*
X188623500Y-63005000D02*
X187378500Y-64250000D01*
X192905000Y-74390000D02*
X194596000Y-74390000D01*
X194596000Y-74390000D02*
X195580000Y-73406000D01*
X195580000Y-73406000D02*
X195580000Y-66802000D01*
X195580000Y-66802000D02*
X191783000Y-63005000D01*
X191783000Y-63005000D02*
X188623500Y-63005000D01*
%TO.N,Net-(SW1-Pad1)*%
X184955000Y-69890000D02*
X192905000Y-69890000D01*
D53*
%TO.N,GND*%
X153030000Y-80520000D02*
X153030000Y-79596500D01*
X153030000Y-79596500D02*
X153016000Y-79582500D01*
D47*
%TO.N,Net-(R31-Pad1)*%
X184955000Y-84210000D02*
X192905000Y-84210000D01*
X184870000Y-80042500D02*
X184955000Y-80127500D01*
X184955000Y-80127500D02*
X184955000Y-84210000D01*
%TO.N,+3V3*%
X184955000Y-74390000D02*
X192905000Y-74390000D01*
X184870000Y-78217500D02*
X184955000Y-78132500D01*
X184955000Y-78132500D02*
X184955000Y-74390000D01*
%TO.N,Net-(SW1-Pad1)*%
X144300000Y-85180000D02*
X145050000Y-85930000D01*
X174170000Y-70100000D02*
X174020000Y-69950000D01*
X145050000Y-85930000D02*
X170170000Y-85930000D01*
X170170000Y-85930000D02*
X174170000Y-81930000D01*
X174170000Y-81930000D02*
X174170000Y-70100000D01*
X178810000Y-69890000D02*
X178750000Y-69950000D01*
X184955000Y-69890000D02*
X178810000Y-69890000D01*
%TO.N,SW_3*%
X135132500Y-93480000D02*
X142870000Y-93480000D01*
X142870000Y-93480000D02*
X148020000Y-88330000D01*
X184273500Y-65530000D02*
X186798500Y-63005000D01*
X148020000Y-88330000D02*
X172280000Y-88330000D01*
X172280000Y-88330000D02*
X177710000Y-82900000D01*
X177710000Y-82900000D02*
X177710000Y-67310000D01*
X177710000Y-67310000D02*
X179490000Y-65530000D01*
X179490000Y-65530000D02*
X184273500Y-65530000D01*
%TO.N,Net-(R31-Pad1)*%
X135132500Y-94480000D02*
X143000000Y-94480000D01*
X148560000Y-88920000D02*
X172840000Y-88920000D01*
X177550000Y-84210000D02*
X184955000Y-84210000D01*
X143000000Y-94480000D02*
X148560000Y-88920000D01*
X172840000Y-88920000D02*
X177550000Y-84210000D01*
D56*
%TO.N,+5V*%
X197315000Y-100215000D02*
X197315000Y-97675000D01*
D53*
%TO.N,GND*%
X156225000Y-84735000D02*
X156200000Y-84710000D01*
X157060000Y-84735000D02*
X156225000Y-84735000D01*
D47*
%TO.N,SENSOR_READY*%
X159280000Y-83310000D02*
X158540000Y-83310000D01*
X158540000Y-83310000D02*
X158140000Y-82910000D01*
X158140000Y-82910000D02*
X157060000Y-82910000D01*
%TO.N,SW_2*%
X135132500Y-92980000D02*
X142170000Y-92980000D01*
X180303500Y-64370000D02*
X181648500Y-63025000D01*
X142170000Y-92980000D02*
X147420000Y-87730000D01*
X147420000Y-87730000D02*
X171800000Y-87730000D01*
X171800000Y-87730000D02*
X176790000Y-82740000D01*
X176790000Y-82740000D02*
X176790000Y-66720000D01*
X176790000Y-66720000D02*
X179140000Y-64370000D01*
X179140000Y-64370000D02*
X180303500Y-64370000D01*
%TO.N,SW_1*%
X135132500Y-91480000D02*
X136620000Y-91480000D01*
X136620000Y-91480000D02*
X137210000Y-90890000D01*
X137210000Y-90890000D02*
X143130000Y-90890000D01*
X143130000Y-90890000D02*
X146860000Y-87160000D01*
X146860000Y-87160000D02*
X171290000Y-87160000D01*
X171290000Y-87160000D02*
X175830000Y-82620000D01*
X175830000Y-82620000D02*
X175830000Y-65360000D01*
X175830000Y-65360000D02*
X176548500Y-64641500D01*
X176548500Y-64641500D02*
X176548500Y-63005000D01*
%TO.N,SW_0*%
X135132500Y-90980000D02*
X136270000Y-90980000D01*
X136270000Y-90980000D02*
X137030000Y-90220000D01*
X137030000Y-90220000D02*
X142800000Y-90220000D01*
X146460000Y-86560000D02*
X170650000Y-86560000D01*
X142800000Y-90220000D02*
X146460000Y-86560000D01*
X170650000Y-86560000D02*
X174970000Y-82240000D01*
X174970000Y-82240000D02*
X174970000Y-68110000D01*
X174970000Y-68110000D02*
X171448500Y-64588500D01*
X171448500Y-64588500D02*
X171448500Y-63025000D01*
%TO.N,SENSOR_READY*%
X159300000Y-90300000D02*
X149600000Y-90300000D01*
X149600000Y-90300000D02*
X144160000Y-95740000D01*
X137550000Y-97340000D02*
X136190000Y-95980000D01*
X144160000Y-95740000D02*
X141030000Y-95740000D01*
X141030000Y-95740000D02*
X139430000Y-97340000D01*
X136190000Y-95980000D02*
X135132500Y-95980000D01*
X139430000Y-97340000D02*
X137550000Y-97340000D01*
X159320000Y-85110000D02*
X159280000Y-85070000D01*
X159280000Y-83310000D02*
X159280000Y-85070000D01*
%TO.N,SENSOR_TICK*%
X167550000Y-90230000D02*
X166850000Y-89530000D01*
X166850000Y-89530000D02*
X149140000Y-89530000D01*
X149140000Y-89530000D02*
X143690000Y-94980000D01*
X143690000Y-94980000D02*
X135132500Y-94980000D01*
X167560000Y-84260000D02*
X167560000Y-85120000D01*
X167550000Y-84250000D02*
X167560000Y-84260000D01*
%TO.N,SENSOR_READY*%
X161575000Y-83310000D02*
X159280000Y-83310000D01*
D55*
%TO.N,+3V3*%
X171360000Y-81640000D02*
X163580000Y-81640000D01*
D53*
X163450000Y-82360000D02*
X163450000Y-81770000D01*
D47*
X163450000Y-81770000D02*
X163580000Y-81640000D01*
%TO.N,SENSOR_TICK*%
X173210000Y-74120000D02*
X173210000Y-81330000D01*
X173210000Y-81330000D02*
X170290000Y-84250000D01*
X170290000Y-84250000D02*
X167550000Y-84250000D01*
%TO.N,Net-(Q1-Pad1)*%
X165725000Y-84250000D02*
X163460000Y-84250000D01*
X163460000Y-84250000D02*
X163450000Y-84260000D01*
%TO.N,SENSOR_TICK*%
X167576000Y-72220000D02*
X167576000Y-73466000D01*
X167576000Y-73466000D02*
X168230000Y-74120000D01*
X168230000Y-74120000D02*
X169190000Y-74120000D01*
D55*
%TO.N,+3V3*%
X166838500Y-69825000D02*
X166838500Y-68481500D01*
X166838500Y-68481500D02*
X168840000Y-66480000D01*
X172180000Y-80820000D02*
X171360000Y-81640000D01*
X168840000Y-66480000D02*
X171240000Y-66480000D01*
X172180000Y-67420000D02*
X172180000Y-80820000D01*
X171240000Y-66480000D02*
X172180000Y-67420000D01*
X157536000Y-72245000D02*
X157536000Y-70975000D01*
X157536000Y-70975000D02*
X158616000Y-69895000D01*
X158616000Y-69895000D02*
X166768500Y-69895000D01*
X166768500Y-69895000D02*
X166838500Y-69825000D01*
D57*
X118780000Y-85302500D02*
X116167000Y-85302500D01*
X116167000Y-85302500D02*
X116088000Y-85381500D01*
X123892500Y-91060000D02*
X123892500Y-88732500D01*
X123892500Y-88732500D02*
X120462500Y-85302500D01*
X120462500Y-85302500D02*
X118780000Y-85302500D01*
D47*
%TO.N,ASW_A0*%
X141090000Y-81150000D02*
X140580000Y-80640000D01*
X138640000Y-71800000D02*
X136915480Y-71800000D01*
X140580000Y-80640000D02*
X140580000Y-73740000D01*
X140580000Y-73740000D02*
X138640000Y-71800000D01*
X136915480Y-71800000D02*
X135805480Y-70690000D01*
X122780000Y-71120000D02*
X122780000Y-71860000D01*
X135805480Y-70690000D02*
X123210000Y-70690000D01*
X123210000Y-70690000D02*
X122780000Y-71120000D01*
%TO.N,ASW_A1*%
X133720000Y-89567500D02*
X138392500Y-89567500D01*
X138392500Y-89567500D02*
X142616000Y-85344000D01*
X142616000Y-85344000D02*
X142616000Y-79170000D01*
%TO.N,ASW_EN*%
X144270000Y-80690000D02*
X144270000Y-82270000D01*
X144270000Y-82270000D02*
X144310000Y-82310000D01*
D53*
%TO.N,GND*%
X127700000Y-102072500D02*
X127700000Y-103280000D01*
D50*
X122137500Y-97260000D02*
X122137500Y-96587500D01*
X122137500Y-96587500D02*
X121742500Y-96192500D01*
X121742500Y-96192500D02*
X121742500Y-95280000D01*
X121752500Y-93070000D02*
X121752500Y-92067500D01*
X121752500Y-92067500D02*
X122167500Y-91652500D01*
X122167500Y-91652500D02*
X122167500Y-91060000D01*
D52*
X121752500Y-93070000D02*
X121752500Y-95270000D01*
X121752500Y-95270000D02*
X121742500Y-95280000D01*
D53*
X121030000Y-97280000D02*
X122117500Y-97280000D01*
X122117500Y-97280000D02*
X122137500Y-97260000D01*
X120540000Y-95290000D02*
X121732500Y-95290000D01*
X121732500Y-95290000D02*
X121742500Y-95280000D01*
X120540000Y-93080000D02*
X121742500Y-93080000D01*
X121742500Y-93080000D02*
X121752500Y-93070000D01*
X120990000Y-91050000D02*
X122157500Y-91050000D01*
X122157500Y-91050000D02*
X122167500Y-91060000D01*
D47*
%TO.N,+3V3*%
X128220000Y-97892500D02*
X128220000Y-99827500D01*
X128220000Y-99827500D02*
X127700000Y-100347500D01*
D51*
%TO.N,GND*%
X104210000Y-87280000D02*
X105710000Y-87280000D01*
D47*
X105710000Y-87280000D02*
X105930000Y-87500000D01*
D53*
X105930000Y-88400000D02*
X105930000Y-87940000D01*
X105930000Y-87940000D02*
X105930000Y-87500000D01*
D51*
X104210000Y-87930000D02*
X105920000Y-87930000D01*
D47*
X105920000Y-87930000D02*
X105930000Y-87940000D01*
X105930000Y-87500000D02*
X105950000Y-87480000D01*
D53*
X105930000Y-89330000D02*
X105930000Y-88400000D01*
D51*
%TO.N,+5V*%
X105390000Y-85340000D02*
X107900000Y-85340000D01*
X107900000Y-85340000D02*
X108520000Y-85960000D01*
D52*
X108040000Y-90780000D02*
X108520000Y-90300000D01*
X108520000Y-90300000D02*
X108520000Y-85960000D01*
X108520000Y-85960000D02*
X109177500Y-85302500D01*
X109177500Y-85302500D02*
X110470000Y-85302500D01*
X110470000Y-85302500D02*
X113009000Y-85302500D01*
D56*
X102466000Y-97698000D02*
X102466000Y-96354000D01*
X102466000Y-96354000D02*
X108040000Y-90780000D01*
X102466000Y-100238000D02*
X102466000Y-97698000D01*
D47*
%TO.N,ASW_A0*%
X126807500Y-93480000D02*
X125460000Y-93480000D01*
X124930000Y-89984614D02*
X124835489Y-89890103D01*
X125460000Y-93480000D02*
X124930000Y-92950000D01*
X124930000Y-92950000D02*
X124930000Y-89984614D01*
X124835489Y-89890103D02*
X124835489Y-84605489D01*
X124835489Y-84605489D02*
X122800000Y-82570000D01*
X122800000Y-82570000D02*
X122800000Y-74610000D01*
%TO.N,CS2*%
X127190000Y-107030000D02*
X126380000Y-106220000D01*
X126380000Y-106220000D02*
X126380000Y-99050000D01*
X126380000Y-99050000D02*
X126560000Y-98870000D01*
X119540000Y-99300000D02*
X123930000Y-99300000D01*
X118810000Y-98570000D02*
X119540000Y-99300000D01*
X120160000Y-89590000D02*
X120110000Y-89540000D01*
X122180000Y-89590000D02*
X120160000Y-89590000D01*
X120110000Y-89540000D02*
X118810000Y-90840000D01*
X118810000Y-90840000D02*
X118810000Y-98570000D01*
X125560000Y-92590000D02*
X125560000Y-89590000D01*
X126807500Y-92980000D02*
X125820000Y-92980000D01*
X125820000Y-92980000D02*
X125560000Y-92720000D01*
X125560000Y-92720000D02*
X125560000Y-92590000D01*
X125580000Y-89570000D02*
X125560000Y-89590000D01*
%TO.N,CS0*%
X125750000Y-109357500D02*
X125750000Y-109240000D01*
X125750000Y-109240000D02*
X124870000Y-108360000D01*
%TO.N,CS2*%
X125750000Y-111182500D02*
X126647500Y-111182500D01*
X126647500Y-111182500D02*
X127210000Y-110620000D01*
D53*
%TO.N,GND*%
X137195000Y-107405000D02*
X137210000Y-107390000D01*
X135705000Y-107405000D02*
X137195000Y-107405000D01*
D47*
%TO.N,CS0*%
X132130000Y-102860000D02*
X132130000Y-104020000D01*
X132130000Y-104020000D02*
X131800000Y-104350000D01*
%TO.N,MISO*%
X132040000Y-106760000D02*
X132040000Y-106700000D01*
X132040000Y-106700000D02*
X130800000Y-105460000D01*
X130800000Y-105460000D02*
X130800000Y-103870000D01*
X130800000Y-103870000D02*
X131220000Y-103450000D01*
X131220000Y-103450000D02*
X131220000Y-97892500D01*
%TO.N,CS0*%
X132920000Y-102070000D02*
X132130000Y-102860000D01*
%TO.N,MOSI*%
X131250000Y-107610000D02*
X131250000Y-107590000D01*
X131250000Y-107590000D02*
X130220000Y-106560000D01*
X130220000Y-106560000D02*
X130220000Y-97892500D01*
%TO.N,SCLK*%
X130400000Y-108430000D02*
X129720000Y-107750000D01*
X129720000Y-107750000D02*
X129720000Y-97892500D01*
%TO.N,CS0*%
X132920000Y-102070000D02*
X131720000Y-100870000D01*
X131720000Y-100870000D02*
X131720000Y-97892500D01*
%TO.N,CS3*%
X138040000Y-102340000D02*
X137950000Y-102250000D01*
X137950000Y-102250000D02*
X133980000Y-102250000D01*
X133980000Y-102250000D02*
X132900000Y-103330000D01*
X132900000Y-103330000D02*
X132900000Y-105800000D01*
X137630000Y-95480000D02*
X138640000Y-96490000D01*
X137290000Y-100130000D02*
X137800000Y-100130000D01*
X135132500Y-95480000D02*
X137630000Y-95480000D01*
X138640000Y-96490000D02*
X138650000Y-96490000D01*
X137800000Y-100130000D02*
X138650000Y-99280000D01*
%TO.N,CS0*%
X135705000Y-103595000D02*
X134815000Y-103595000D01*
X134815000Y-103595000D02*
X134290000Y-103070000D01*
D53*
%TO.N,GND*%
X139427500Y-102512500D02*
X139040000Y-102900000D01*
X139427500Y-101710000D02*
X139427500Y-102512500D01*
D52*
%TO.N,+3V3*%
X144660000Y-99120000D02*
X142950000Y-99120000D01*
X142950000Y-99120000D02*
X141152500Y-100917500D01*
X141152500Y-100917500D02*
X141152500Y-101710000D01*
D47*
X140655000Y-104865000D02*
X139125000Y-104865000D01*
X139125000Y-104865000D02*
X137855000Y-106135000D01*
X137855000Y-106135000D02*
X135705000Y-106135000D01*
X140655000Y-104865000D02*
X140655000Y-103595000D01*
D55*
X141152500Y-101710000D02*
X141152500Y-103097500D01*
X141152500Y-103097500D02*
X140655000Y-103595000D01*
D47*
X126807500Y-90980000D02*
X126807500Y-88650000D01*
X126807500Y-88650000D02*
X126470000Y-88312500D01*
%TO.N,Net-(C35-Pad1)*%
X128220000Y-89567500D02*
X128220000Y-85972500D01*
%TO.N,Net-(SW1-Pad1)*%
X131220000Y-89567500D02*
X131220000Y-87040000D01*
X131220000Y-87040000D02*
X132020000Y-86240000D01*
X132020000Y-86240000D02*
X138170000Y-86240000D01*
X138170000Y-86240000D02*
X140000000Y-84410000D01*
%TO.N,Net-(R32-Pad1)*%
X130720000Y-89567500D02*
X130720000Y-86590000D01*
X130720000Y-86590000D02*
X131950000Y-85360000D01*
X131950000Y-85360000D02*
X133180000Y-85360000D01*
%TO.N,Net-(R33-Pad1)*%
X130220000Y-89567500D02*
X130220000Y-85910000D01*
X130220000Y-85910000D02*
X132410000Y-83720000D01*
X132410000Y-83720000D02*
X133170000Y-83720000D01*
%TO.N,Net-(C28-Pad1)*%
X129720000Y-89567500D02*
X129720000Y-83677500D01*
X129720000Y-83677500D02*
X131357500Y-82040000D01*
%TO.N,Net-(C29-Pad1)*%
X129220000Y-89567500D02*
X129220000Y-82117500D01*
X129220000Y-82117500D02*
X129297500Y-82040000D01*
%TO.N,CS0*%
X134320000Y-100130000D02*
X134300000Y-100110000D01*
X135465000Y-100130000D02*
X134320000Y-100130000D01*
%TO.N,CS3*%
X138660000Y-96300000D02*
X138660000Y-96255500D01*
%TO.N,MISO*%
X135705000Y-104865000D02*
X135095000Y-104865000D01*
X135095000Y-104865000D02*
X133200000Y-106760000D01*
X133200000Y-106760000D02*
X132040000Y-106760000D01*
%TO.N,MOSI*%
X139915000Y-107405000D02*
X138970000Y-108350000D01*
X140655000Y-107405000D02*
X139915000Y-107405000D01*
X138970000Y-108350000D02*
X131990000Y-108350000D01*
X131990000Y-108350000D02*
X131250000Y-107610000D01*
%TO.N,SCLK*%
X140655000Y-106135000D02*
X141685000Y-106135000D01*
X141685000Y-106135000D02*
X142250000Y-106700000D01*
X142250000Y-106700000D02*
X142250000Y-108160000D01*
X142250000Y-108160000D02*
X141310000Y-109100000D01*
X141310000Y-109100000D02*
X131070000Y-109100000D01*
X131070000Y-109100000D02*
X130400000Y-108430000D01*
%TO.N,ASW_A0*%
X143266000Y-80946000D02*
X143450000Y-81130000D01*
X143266000Y-79170000D02*
X143266000Y-80946000D01*
%TO.N,ASW_EN*%
X143916000Y-79170000D02*
X143916000Y-80336000D01*
X143916000Y-80336000D02*
X144270000Y-80690000D01*
D51*
%TO.N,/mcu/USB+*%
X138285000Y-82465380D02*
X136530380Y-84220000D01*
X138285000Y-76564620D02*
X138285000Y-82465380D01*
%TO.N,Net-(J5-Pad1)*%
X138935000Y-82734620D02*
X136799620Y-84870000D01*
%TO.N,/mcu/USB+*%
X136530380Y-84220000D02*
X135495000Y-84220000D01*
X135495000Y-84220000D02*
X134995000Y-83720000D01*
%TO.N,Net-(J5-Pad1)*%
X136799620Y-84870000D02*
X135495000Y-84870000D01*
X138935000Y-76295380D02*
X138935000Y-82734620D01*
X135495000Y-84870000D02*
X135005000Y-85360000D01*
D58*
%TO.N,GND*%
X135390000Y-87190000D02*
X135380000Y-87200000D01*
X134352500Y-87200000D02*
X135380000Y-87200000D01*
D47*
%TO.N,Net-(C35-Pad1)*%
X131720000Y-89567500D02*
X131720000Y-87970000D01*
X131720000Y-87970000D02*
X132490000Y-87200000D01*
X132490000Y-87200000D02*
X132627500Y-87200000D01*
X130720000Y-97892500D02*
X130720000Y-93760000D01*
X130720000Y-93760000D02*
X130680000Y-93720000D01*
X131720000Y-89567500D02*
X131720000Y-91170000D01*
X131720000Y-91170000D02*
X131220000Y-91670000D01*
D48*
%TO.N,+3V3*%
X130880000Y-92480000D02*
X129989511Y-93370489D01*
X129989511Y-93370489D02*
X128749511Y-93370489D01*
X130880000Y-92480000D02*
X135132500Y-92480000D01*
D47*
%TO.N,Net-(C35-Pad1)*%
X129214030Y-94025970D02*
X128760000Y-94480000D01*
X128760000Y-94480000D02*
X126807500Y-94480000D01*
D48*
%TO.N,+3V3*%
X126807500Y-93980000D02*
X128140000Y-93980000D01*
X128140000Y-93980000D02*
X128749511Y-93370489D01*
D49*
%TO.N,GND*%
X135132500Y-91980000D02*
X133850000Y-91980000D01*
X133850000Y-91980000D02*
X133770000Y-91900000D01*
X135132500Y-93980000D02*
X133880000Y-93980000D01*
X133880000Y-93980000D02*
X133780000Y-93880000D01*
D57*
%TO.N,Net-(C35-Pad1)*%
X123817500Y-95280000D02*
X123817500Y-97215000D01*
X123817500Y-97215000D02*
X123862500Y-97260000D01*
%TO.N,+3V3*%
X123892500Y-91060000D02*
X123892500Y-93005000D01*
D47*
X123892500Y-93005000D02*
X123827500Y-93070000D01*
D48*
%TO.N,Net-(C35-Pad1)*%
X126807500Y-94480000D02*
X124617500Y-94480000D01*
X124617500Y-94480000D02*
X123817500Y-95280000D01*
%TO.N,+3V3*%
X126807500Y-93980000D02*
X124737500Y-93980000D01*
X124737500Y-93980000D02*
X123827500Y-93070000D01*
D56*
%TO.N,+5V*%
X101740000Y-119500000D02*
X100791489Y-118551489D01*
X100791489Y-101912511D02*
X102466000Y-100238000D01*
X197315000Y-100215000D02*
X197815000Y-100215000D01*
X199160000Y-118640000D02*
X198300000Y-119500000D01*
X197815000Y-100215000D02*
X199160000Y-101560000D01*
X199160000Y-101560000D02*
X199160000Y-118640000D01*
X198300000Y-119500000D02*
X186000000Y-119500000D01*
D47*
%TO.N,Net-(C16-Pad1)*%
X127531000Y-67110000D02*
X126716000Y-67110000D01*
X126716000Y-67110000D02*
X126381000Y-66775000D01*
X126381000Y-66775000D02*
X126381000Y-61575000D01*
X126381000Y-61575000D02*
X126801000Y-61155000D01*
X126801000Y-61155000D02*
X127511000Y-61155000D01*
%TO.N,Net-(C15-Pad2)*%
X130041000Y-67100000D02*
X129436000Y-67100000D01*
X129436000Y-67100000D02*
X128791000Y-66455000D01*
X128791000Y-66455000D02*
X128791000Y-61645000D01*
X128791000Y-61645000D02*
X129266000Y-61170000D01*
X129266000Y-61170000D02*
X130041000Y-61170000D01*
%TO.N,Net-(C14-Pad1)*%
X132611000Y-67097500D02*
X131883500Y-67097500D01*
X131361000Y-61595000D02*
X131798500Y-61157500D01*
X131798500Y-61157500D02*
X132581000Y-61157500D01*
X131883500Y-67097500D02*
X131361000Y-66575000D01*
X131361000Y-66575000D02*
X131361000Y-61595000D01*
%TO.N,Net-(C13-Pad2)*%
X135161000Y-67089500D02*
X134475500Y-67089500D01*
X134475500Y-67089500D02*
X133931000Y-66545000D01*
X133931000Y-66545000D02*
X133931000Y-61775000D01*
X133931000Y-61775000D02*
X134548500Y-61157500D01*
X134548500Y-61157500D02*
X135116000Y-61157500D01*
%TO.N,Net-(C12-Pad1)*%
X137701000Y-67089500D02*
X136795500Y-67089500D01*
X136795500Y-67089500D02*
X136421000Y-66715000D01*
X136421000Y-66715000D02*
X136421000Y-61745000D01*
X136421000Y-61745000D02*
X137051000Y-61115000D01*
X137051000Y-61115000D02*
X137661000Y-61115000D01*
%TO.N,Net-(C11-Pad2)*%
X140241000Y-67089500D02*
X139275500Y-67089500D01*
X139275500Y-67089500D02*
X138991000Y-66805000D01*
X138991000Y-66805000D02*
X138991000Y-61685000D01*
X138991000Y-61685000D02*
X139518500Y-61157500D01*
X139518500Y-61157500D02*
X140201000Y-61157500D01*
%TO.N,Net-(C15-Pad2)*%
X143916000Y-71970000D02*
X143916000Y-70845000D01*
X143916000Y-70845000D02*
X143426000Y-70355000D01*
X143426000Y-70355000D02*
X137381000Y-70355000D01*
X137381000Y-70355000D02*
X136461000Y-69435000D01*
X136461000Y-69435000D02*
X133721000Y-69435000D01*
X133721000Y-69435000D02*
X132431000Y-68145000D01*
X132431000Y-68145000D02*
X131086000Y-68145000D01*
X131086000Y-68145000D02*
X130041000Y-67100000D01*
%TO.N,Net-(C14-Pad1)*%
X135291000Y-68585000D02*
X134098500Y-68585000D01*
X134098500Y-68585000D02*
X132611000Y-67097500D01*
%TO.N,Net-(C13-Pad2)*%
X144566000Y-71970000D02*
X144566000Y-70100000D01*
X137496500Y-69425000D02*
X135161000Y-67089500D01*
X144566000Y-70100000D02*
X144191000Y-69725000D01*
X144191000Y-69725000D02*
X141451000Y-69725000D01*
X141451000Y-69725000D02*
X141151000Y-69425000D01*
X141151000Y-69425000D02*
X137496500Y-69425000D01*
%TO.N,Net-(C12-Pad1)*%
X141791000Y-68745000D02*
X139356500Y-68745000D01*
X139356500Y-68745000D02*
X137701000Y-67089500D01*
%TO.N,Net-(C11-Pad2)*%
X145216000Y-71970000D02*
X145216000Y-69710000D01*
X145216000Y-69710000D02*
X144701000Y-69195000D01*
X144701000Y-69195000D02*
X143391000Y-69195000D01*
X141081000Y-67955000D02*
X140241000Y-67115000D01*
X143391000Y-69195000D02*
X142151000Y-67955000D01*
X142151000Y-67955000D02*
X141081000Y-67955000D01*
X140241000Y-67115000D02*
X140241000Y-67089500D01*
%TO.N,Net-(C10-Pad1)*%
X142781000Y-67089500D02*
X142075500Y-67089500D01*
X142075500Y-67089500D02*
X141521000Y-66535000D01*
X141521000Y-66535000D02*
X141521000Y-61745000D01*
X141521000Y-61745000D02*
X142096000Y-61170000D01*
X142096000Y-61170000D02*
X142741000Y-61170000D01*
X143771000Y-68335000D02*
X143771000Y-68079500D01*
X143771000Y-68079500D02*
X142781000Y-67089500D01*
%TO.N,Net-(C9-Pad2)*%
X144101000Y-67515000D02*
X144101000Y-67105000D01*
X144101000Y-67105000D02*
X144101000Y-61715000D01*
X145321000Y-67089500D02*
X144116500Y-67089500D01*
X144116500Y-67089500D02*
X144101000Y-67105000D01*
X145866000Y-71970000D02*
X145866000Y-69280000D01*
X145866000Y-69280000D02*
X144101000Y-67515000D01*
X144101000Y-61715000D02*
X144633500Y-61182500D01*
X144633500Y-61182500D02*
X145291000Y-61182500D01*
%TO.N,Net-(C6-Pad1)*%
X153016000Y-61170000D02*
X152316000Y-61170000D01*
X151766000Y-67570000D02*
X152166000Y-67970000D01*
X152316000Y-61170000D02*
X151766000Y-61720000D01*
X151766000Y-61720000D02*
X151766000Y-67570000D01*
%TO.N,Net-(C5-Pad2)*%
X155566000Y-61170000D02*
X154766000Y-61170000D01*
X154766000Y-61170000D02*
X154316000Y-61620000D01*
X154316000Y-61620000D02*
X154316000Y-67045000D01*
%TO.N,Net-(C7-Pad2)*%
X150416000Y-61145000D02*
X149631000Y-61145000D01*
X149631000Y-61145000D02*
X149216000Y-61560000D01*
X149216000Y-61560000D02*
X149216000Y-67170000D01*
%TO.N,Net-(C8-Pad1)*%
X146681000Y-67105000D02*
X146681000Y-61635000D01*
X147158500Y-61157500D02*
X147891000Y-61157500D01*
X146681000Y-61635000D02*
X147158500Y-61157500D01*
X146681000Y-68385000D02*
X146681000Y-67105000D01*
X147916000Y-67132500D02*
X146708500Y-67132500D01*
X146708500Y-67132500D02*
X146681000Y-67105000D01*
X146716000Y-68420000D02*
X146681000Y-68385000D01*
%TO.N,Net-(C4-Pad1)*%
X156881000Y-67165000D02*
X156881000Y-61515000D01*
X156881000Y-61515000D02*
X157251000Y-61145000D01*
X157251000Y-61145000D02*
X158066000Y-61145000D01*
%TO.N,Net-(C1-Pad2)*%
X165716000Y-61132500D02*
X164833500Y-61132500D01*
X164521000Y-67105000D02*
X164523500Y-67107500D01*
X164833500Y-61132500D02*
X164521000Y-61445000D01*
X164521000Y-61445000D02*
X164521000Y-67105000D01*
%TO.N,Net-(C2-Pad1)*%
X162066000Y-66920000D02*
X162066000Y-61580000D01*
X162066000Y-61580000D02*
X162463500Y-61182500D01*
X162463500Y-61182500D02*
X163191000Y-61182500D01*
%TO.N,Net-(C4-Pad1)*%
X158091000Y-67107500D02*
X156938500Y-67107500D01*
X156938500Y-67107500D02*
X156881000Y-67165000D01*
%TO.N,Net-(C1-Pad2)*%
X148466000Y-71970000D02*
X148466000Y-70945000D01*
X148466000Y-70945000D02*
X149241000Y-70170000D01*
X157966000Y-69170000D02*
X163986000Y-69170000D01*
X149241000Y-70170000D02*
X156966000Y-70170000D01*
X156966000Y-70170000D02*
X157966000Y-69170000D01*
X163986000Y-69170000D02*
X164523500Y-68632500D01*
X164523500Y-68632500D02*
X164523500Y-67107500D01*
X164523500Y-67107500D02*
X165716000Y-67107500D01*
%TO.N,Net-(C2-Pad1)*%
X162066000Y-67770000D02*
X162066000Y-66920000D01*
X163186000Y-67107500D02*
X162253500Y-67107500D01*
X162253500Y-67107500D02*
X162066000Y-66920000D01*
%TO.N,Net-(C3-Pad2)*%
X160616000Y-61182500D02*
X159803500Y-61182500D01*
X159421000Y-67050000D02*
X159478500Y-67107500D01*
X159803500Y-61182500D02*
X159421000Y-61565000D01*
X159421000Y-61565000D02*
X159421000Y-67050000D01*
X160616000Y-61182500D02*
X160616000Y-58707500D01*
%TO.N,Net-(C4-Pad1)*%
X158066000Y-61145000D02*
X158066000Y-58732500D01*
X158066000Y-58732500D02*
X158091000Y-58707500D01*
%TO.N,Net-(C5-Pad2)*%
X155566000Y-61170000D02*
X155566000Y-58757500D01*
X155566000Y-58757500D02*
X155541000Y-58732500D01*
%TO.N,Net-(C6-Pad1)*%
X153016000Y-61170000D02*
X153016000Y-58732500D01*
%TO.N,Net-(C7-Pad2)*%
X150416000Y-61145000D02*
X150416000Y-58782500D01*
X150416000Y-58782500D02*
X150466000Y-58732500D01*
%TO.N,Net-(C8-Pad1)*%
X147891000Y-61157500D02*
X147891000Y-58782500D01*
X147891000Y-58782500D02*
X147941000Y-58732500D01*
%TO.N,Net-(C16-Pad1)*%
X127511000Y-58717500D02*
X127511000Y-61155000D01*
%TO.N,Net-(C15-Pad2)*%
X130031000Y-58717500D02*
X130031000Y-61160000D01*
X130031000Y-61160000D02*
X130041000Y-61170000D01*
%TO.N,Net-(C14-Pad1)*%
X132581000Y-58707500D02*
X132581000Y-61157500D01*
%TO.N,Net-(C13-Pad2)*%
X135111000Y-58697500D02*
X135111000Y-61152500D01*
X135111000Y-61152500D02*
X135116000Y-61157500D01*
%TO.N,Net-(C12-Pad1)*%
X137651000Y-58707500D02*
X137651000Y-61105000D01*
X137651000Y-61105000D02*
X137661000Y-61115000D01*
%TO.N,Net-(C11-Pad2)*%
X140191000Y-58717500D02*
X140191000Y-61147500D01*
X140191000Y-61147500D02*
X140201000Y-61157500D01*
%TO.N,Net-(C10-Pad1)*%
X142731000Y-58717500D02*
X142731000Y-61160000D01*
X142731000Y-61160000D02*
X142741000Y-61170000D01*
%TO.N,Net-(C9-Pad2)*%
X145271000Y-58677500D02*
X145271000Y-61162500D01*
X145271000Y-61162500D02*
X145291000Y-61182500D01*
%TO.N,Net-(C1-Pad2)*%
X165716000Y-58732500D02*
X165716000Y-61132500D01*
%TO.N,Net-(C2-Pad1)*%
X163166000Y-58732500D02*
X163166000Y-61157500D01*
X163166000Y-61157500D02*
X163191000Y-61182500D01*
D57*
%TO.N,GND*%
X165716000Y-65282500D02*
X165716000Y-64100000D01*
D47*
X165716000Y-64100000D02*
X165721000Y-64095000D01*
D57*
X165716000Y-62857500D02*
X165716000Y-64090000D01*
D47*
X165716000Y-64090000D02*
X165721000Y-64095000D01*
D57*
X163186000Y-65282500D02*
X163186000Y-64130000D01*
D47*
X163186000Y-64130000D02*
X163191000Y-64125000D01*
D57*
X163191000Y-62907500D02*
X163191000Y-64125000D01*
X160666000Y-65282500D02*
X160666000Y-64160000D01*
D47*
X160666000Y-64160000D02*
X160621000Y-64115000D01*
D57*
X160616000Y-62907500D02*
X160616000Y-64110000D01*
D47*
X160616000Y-64110000D02*
X160621000Y-64115000D01*
D57*
X158091000Y-65282500D02*
X158091000Y-64115000D01*
D47*
X158091000Y-64115000D02*
X158071000Y-64095000D01*
D57*
X158066000Y-62870000D02*
X158066000Y-64090000D01*
D47*
X158066000Y-64090000D02*
X158071000Y-64095000D01*
D57*
X155541000Y-65282500D02*
X155541000Y-64125000D01*
D47*
X155541000Y-64125000D02*
X155561000Y-64105000D01*
D57*
X155566000Y-62895000D02*
X155566000Y-64100000D01*
D47*
X155566000Y-64100000D02*
X155561000Y-64105000D01*
D57*
X153016000Y-65282500D02*
X153016000Y-64120000D01*
D47*
X153016000Y-64120000D02*
X153021000Y-64115000D01*
D57*
X153016000Y-62895000D02*
X153016000Y-64110000D01*
D47*
X153016000Y-64110000D02*
X153021000Y-64115000D01*
D57*
X150441000Y-65282500D02*
X150441000Y-64115000D01*
D47*
X150441000Y-64115000D02*
X150421000Y-64095000D01*
D57*
X150416000Y-62870000D02*
X150416000Y-64090000D01*
D47*
X150416000Y-64090000D02*
X150421000Y-64095000D01*
X147916000Y-65307500D02*
X147916000Y-64140000D01*
X147916000Y-64140000D02*
X147901000Y-64125000D01*
X147891000Y-62882500D02*
X147891000Y-64115000D01*
X147891000Y-64115000D02*
X147901000Y-64125000D01*
D57*
X145321000Y-65264500D02*
X145321000Y-64125000D01*
D47*
X145321000Y-64125000D02*
X145301000Y-64105000D01*
D57*
X145291000Y-62907500D02*
X145291000Y-64095000D01*
D47*
X145291000Y-64095000D02*
X145301000Y-64105000D01*
D57*
X142781000Y-65264500D02*
X142781000Y-64125000D01*
D47*
X142781000Y-64125000D02*
X142761000Y-64105000D01*
D57*
X142741000Y-62895000D02*
X142741000Y-64085000D01*
D47*
X142741000Y-64085000D02*
X142761000Y-64105000D01*
D57*
X140241000Y-65264500D02*
X140241000Y-64115000D01*
D47*
X140241000Y-64115000D02*
X140221000Y-64095000D01*
D57*
X140201000Y-62882500D02*
X140201000Y-64075000D01*
D47*
X140201000Y-64075000D02*
X140221000Y-64095000D01*
D57*
X137701000Y-65264500D02*
X137701000Y-64105000D01*
D47*
X137701000Y-64105000D02*
X137671000Y-64075000D01*
D57*
X137661000Y-62840000D02*
X137661000Y-64065000D01*
D47*
X137661000Y-64065000D02*
X137671000Y-64075000D01*
D57*
X135116000Y-62882500D02*
X135116000Y-64080000D01*
D47*
X135116000Y-64080000D02*
X135131000Y-64095000D01*
D57*
X135161000Y-65264500D02*
X135161000Y-64125000D01*
D47*
X135161000Y-64125000D02*
X135131000Y-64095000D01*
D57*
X132611000Y-65272500D02*
X132611000Y-64105000D01*
D47*
X132611000Y-64105000D02*
X132601000Y-64095000D01*
D57*
X132581000Y-62882500D02*
X132581000Y-64075000D01*
D47*
X132581000Y-64075000D02*
X132601000Y-64095000D01*
D57*
X130041000Y-62895000D02*
X130041000Y-64105000D01*
X130041000Y-65275000D02*
X130041000Y-64105000D01*
X127531000Y-65285000D02*
X127531000Y-64105000D01*
X127511000Y-62880000D02*
X127511000Y-64085000D01*
D47*
X127511000Y-64085000D02*
X127531000Y-64105000D01*
%TO.N,Net-(C5-Pad2)*%
X147166000Y-71970000D02*
X147166000Y-70345000D01*
X147166000Y-70345000D02*
X148641000Y-68870000D01*
X148641000Y-68870000D02*
X153616000Y-68870000D01*
X153616000Y-68870000D02*
X154316000Y-68170000D01*
X154316000Y-68170000D02*
X154316000Y-67045000D01*
%TO.N,Net-(C7-Pad2)*%
X149216000Y-67470000D02*
X149216000Y-67170000D01*
X150441000Y-67107500D02*
X149278500Y-67107500D01*
X149278500Y-67107500D02*
X149216000Y-67170000D01*
%TO.N,Net-(C2-Pad1)*%
X160066000Y-68395000D02*
X161441000Y-68395000D01*
X161441000Y-68395000D02*
X162066000Y-67770000D01*
%TO.N,Net-(C5-Pad2)*%
X155541000Y-67107500D02*
X154378500Y-67107500D01*
X154378500Y-67107500D02*
X154316000Y-67045000D01*
%TO.N,Net-(C3-Pad2)*%
X160666000Y-67107500D02*
X159478500Y-67107500D01*
D55*
%TO.N,+3V3*%
X163641000Y-71957500D02*
X166043500Y-71957500D01*
X166043500Y-71957500D02*
X166306000Y-72220000D01*
D50*
X155216000Y-71607500D02*
X153016000Y-71607500D01*
D47*
X155216000Y-71607500D02*
X155228500Y-71595000D01*
D53*
X155228500Y-71595000D02*
X157536000Y-71595000D01*
D47*
X157536000Y-71595000D02*
X157536000Y-72245000D01*
%TO.N,GND*%
X161346000Y-75990000D02*
X161366000Y-75970000D01*
D53*
X161346000Y-77495000D02*
X161346000Y-75990000D01*
D47*
X164753500Y-73682500D02*
X164766000Y-73695000D01*
D50*
X163641000Y-73682500D02*
X164753500Y-73682500D01*
D53*
X170116000Y-77470000D02*
X170116000Y-76045000D01*
D47*
%TO.N,Net-(R22-Pad2)*%
X170116000Y-72220000D02*
X170116000Y-74820000D01*
X167161000Y-80770000D02*
X166186000Y-79795000D01*
X170116000Y-74820000D02*
X171216000Y-75920000D01*
X171216000Y-75920000D02*
X171216000Y-80370000D01*
X171216000Y-80370000D02*
X170816000Y-80770000D01*
X170816000Y-80770000D02*
X167161000Y-80770000D01*
%TO.N,GND*%
X170116000Y-77470000D02*
X170116000Y-79700000D01*
X170116000Y-79700000D02*
X170186000Y-79770000D01*
%TO.N,Net-(R19-Pad2)*%
X168846000Y-77470000D02*
X168846000Y-79285000D01*
X168846000Y-79285000D02*
X168361000Y-79770000D01*
%TO.N,Net-(R22-Pad2)*%
X166186000Y-79795000D02*
X166186000Y-77590000D01*
X166186000Y-77590000D02*
X166306000Y-77470000D01*
%TO.N,Net-(R19-Pad2)*%
X163691000Y-77807500D02*
X163728500Y-77807500D01*
X163728500Y-77807500D02*
X164766000Y-76770000D01*
X164766000Y-76770000D02*
X164766000Y-75970000D01*
X165516000Y-75220000D02*
X167616000Y-75220000D01*
X164766000Y-75970000D02*
X165516000Y-75220000D01*
X168541000Y-76095000D02*
X168846000Y-76400000D01*
X167616000Y-75220000D02*
X168491000Y-76095000D01*
X168491000Y-76095000D02*
X168541000Y-76095000D01*
X168846000Y-76400000D02*
X168846000Y-77470000D01*
%TO.N,Net-(R20-Pad2)*%
X164891000Y-78670000D02*
X164891000Y-79265000D01*
X164891000Y-79265000D02*
X164361000Y-79795000D01*
%TO.N,Net-(R20-Pad1)*%
X157536000Y-77495000D02*
X156616000Y-77495000D01*
X156616000Y-77495000D02*
X155153500Y-78957500D01*
X155153500Y-78957500D02*
X155153500Y-79770000D01*
%TO.N,Net-(R20-Pad2)*%
X164361000Y-79795000D02*
X164336000Y-79770000D01*
X164336000Y-79770000D02*
X156978500Y-79770000D01*
X164891000Y-78670000D02*
X165366000Y-78195000D01*
X167541000Y-76295000D02*
X167541000Y-77435000D01*
X165366000Y-78195000D02*
X165366000Y-76420000D01*
X165366000Y-76420000D02*
X165841000Y-75945000D01*
X165841000Y-75945000D02*
X167191000Y-75945000D01*
X167191000Y-75945000D02*
X167541000Y-76295000D01*
X167541000Y-77435000D02*
X167576000Y-77470000D01*
D55*
%TO.N,+3V3*%
X163641000Y-71957500D02*
X163641000Y-70170000D01*
D47*
%TO.N,Net-(R20-Pad1)*%
X158806000Y-77495000D02*
X157536000Y-77495000D01*
%TO.N,Net-(R19-Pad1)*%
X160076000Y-72245000D02*
X158806000Y-72245000D01*
X163691000Y-75982500D02*
X163691000Y-75970000D01*
X163691000Y-75970000D02*
X162691000Y-74970000D01*
X162691000Y-74970000D02*
X162691000Y-71595000D01*
X162691000Y-71595000D02*
X161741000Y-70645000D01*
X161741000Y-70645000D02*
X159391000Y-70645000D01*
X158806000Y-71230000D02*
X158806000Y-72245000D01*
X159391000Y-70645000D02*
X158806000Y-71230000D01*
%TO.N,Net-(C2-Pad1)*%
X160091000Y-68370000D02*
X160066000Y-68395000D01*
D59*
%TO.N,+3V3*%
X150416000Y-71970000D02*
X151366000Y-71970000D01*
X151366000Y-71970000D02*
X151728500Y-71607500D01*
X151728500Y-71607500D02*
X153016000Y-71607500D01*
D51*
%TO.N,GND*%
X149766000Y-77895000D02*
X150116000Y-77545000D01*
X149766000Y-79170000D02*
X149766000Y-77895000D01*
D47*
%TO.N,Net-(R18-Pad2)*%
X160076000Y-77495000D02*
X160076000Y-76455000D01*
X160076000Y-76455000D02*
X159191000Y-75570000D01*
X159191000Y-75570000D02*
X157391000Y-75570000D01*
X157391000Y-75570000D02*
X155791000Y-77170000D01*
X155791000Y-77170000D02*
X153603500Y-77170000D01*
X153603500Y-77170000D02*
X153016000Y-77757500D01*
%TO.N,Net-(R17-Pad2)*%
X153003500Y-75470000D02*
X153003500Y-75532500D01*
X159141000Y-74920000D02*
X161346000Y-72715000D01*
X153003500Y-75532500D02*
X153966000Y-76495000D01*
X153966000Y-76495000D02*
X155516000Y-76495000D01*
X155516000Y-76495000D02*
X157091000Y-74920000D01*
X157091000Y-74920000D02*
X159141000Y-74920000D01*
X161346000Y-72715000D02*
X161346000Y-72245000D01*
D60*
%TO.N,GND*%
X155216000Y-73332500D02*
X154153500Y-73332500D01*
D47*
X154153500Y-73332500D02*
X154141000Y-73345000D01*
D60*
X153016000Y-73332500D02*
X154128500Y-73332500D01*
D47*
X154128500Y-73332500D02*
X154141000Y-73345000D01*
X154228500Y-73332500D02*
X154241000Y-73345000D01*
X154253500Y-73332500D02*
X154241000Y-73345000D01*
D51*
%TO.N,+3V3*%
X154828500Y-75470000D02*
X155041000Y-75470000D01*
X155041000Y-75470000D02*
X157536000Y-72975000D01*
X157536000Y-72975000D02*
X157536000Y-72245000D01*
D47*
%TO.N,Net-(R17-Pad2)*%
X161346000Y-72515000D02*
X161346000Y-71895000D01*
X149766000Y-71970000D02*
X149766000Y-73095000D01*
X149766000Y-73095000D02*
X152141000Y-75470000D01*
X152141000Y-75470000D02*
X153003500Y-75470000D01*
%TO.N,Net-(R18-Pad2)*%
X150416000Y-79170000D02*
X150416000Y-78595000D01*
X150416000Y-78595000D02*
X151253500Y-77757500D01*
X151253500Y-77757500D02*
X153016000Y-77757500D01*
%TO.N,Net-(C14-Pad1)*%
X145216000Y-79170000D02*
X145216000Y-76045000D01*
X145216000Y-76045000D02*
X144766000Y-75595000D01*
X144766000Y-75595000D02*
X144766000Y-74795000D01*
%TO.N,Net-(C16-Pad1)*%
X144116000Y-75770000D02*
X144041000Y-75695000D01*
X144041000Y-75695000D02*
X144041000Y-73970000D01*
X144566000Y-79170000D02*
X144566000Y-76220000D01*
X144566000Y-76220000D02*
X144116000Y-75770000D01*
%TO.N,Net-(C12-Pad1)*%
X145866000Y-79170000D02*
X145866000Y-75495000D01*
X145866000Y-75495000D02*
X145566000Y-75195000D01*
X145566000Y-75195000D02*
X145566000Y-73970000D01*
X145391000Y-74095000D02*
X145491000Y-73995000D01*
%TO.N,Net-(C10-Pad1)*%
X146516000Y-74869500D02*
X146441500Y-74795000D01*
X146516000Y-79170000D02*
X146516000Y-74869500D01*
%TO.N,Net-(C2-Pad1)*%
X149116000Y-75970000D02*
X149866000Y-75220000D01*
X149866000Y-75220000D02*
X149866000Y-74795000D01*
X149116000Y-79170000D02*
X149116000Y-75970000D01*
%TO.N,Net-(C6-Pad1)*%
X147816000Y-79170000D02*
X147816000Y-75095000D01*
X147816000Y-75095000D02*
X148116000Y-74795000D01*
%TO.N,Net-(C4-Pad1)*%
X149041000Y-75055718D02*
X149041000Y-73970000D01*
X148466000Y-75630718D02*
X149041000Y-75055718D01*
X148466000Y-79170000D02*
X148466000Y-75630718D01*
%TO.N,Net-(C8-Pad1)*%
X147166000Y-79170000D02*
X147166000Y-74045000D01*
X147166000Y-74045000D02*
X147241000Y-73970000D01*
X147941000Y-58732500D02*
X147903500Y-58732500D01*
%TO.N,Net-(C4-Pad1)*%
X158091000Y-58707500D02*
X158053500Y-58707500D01*
%TO.N,Net-(C6-Pad1)*%
X153016000Y-58732500D02*
X153003500Y-58732500D01*
%TO.N,Net-(C4-Pad1)*%
X158091000Y-67107500D02*
X158091000Y-67120000D01*
%TO.N,Net-(C6-Pad1)*%
X153016000Y-67120000D02*
X152166000Y-67970000D01*
X153016000Y-67107500D02*
X153016000Y-67120000D01*
%TO.N,Net-(C7-Pad2)*%
X146516000Y-71970000D02*
X146516000Y-70170000D01*
X146516000Y-70170000D02*
X149216000Y-67470000D01*
X150378500Y-58732500D02*
X150466000Y-58732500D01*
D54*
%TO.N,Net-(OUT_1-Pad1)*%
X184000000Y-129100000D02*
X184000000Y-143090000D01*
X184000000Y-143090000D02*
X183480000Y-143610000D01*
%TO.N,Net-(F4-Pad1)*%
X192220000Y-124820000D02*
X192220000Y-127180000D01*
X192220000Y-127180000D02*
X191500000Y-127900000D01*
X191940000Y-132210000D02*
X191940000Y-128340000D01*
X191940000Y-128340000D02*
X191500000Y-127900000D01*
%TO.N,Net-(F4-Pad2)*%
X190900000Y-143610000D02*
X190900000Y-138250000D01*
X190900000Y-138250000D02*
X191940000Y-137210000D01*
%TO.N,Net-(OUT_0-Pad1)*%
X196500000Y-129100000D02*
X196500000Y-143090000D01*
X196500000Y-143090000D02*
X195980000Y-143610000D01*
%TD*%
M02*
